Hack-BoldItalic-PS.ufo
<glyph name="dollar" format="1">
  <advance width="1233"/>
  <unicode hex="0024"/>
  <outline>
    <contour>
      <point x="344" y="-301" type="line" name="hr00"/>
      <point x="485" y="-301" type="line" name="av01"/>
      <point x="543" y="0" type="line"/>
      <point x="688" y="11"/>
      <point x="806" y="52" name="sh02"/>
      <point x="897" y="135" type="curve" smooth="yes"/>
      <point x="985" y="215"/>
      <point x="1028" y="316" name="sh04"/>
      <point x="1028" y="435" type="curve" smooth="yes"/>
      <point x="1028" y="527" name="sh03"/>
      <point x="1002" y="596"/>
      <point x="947" y="652" type="curve" smooth="yes"/>
      <point x="893" y="708"/>
      <point x="809" y="751"/>
      <point x="694" y="782" type="curve" name="at01"/>
      <point x="758" y="1100" type="line"/>
      <point x="812" y="1097"/>
      <point x="863" y="1088" name="sh01"/>
      <point x="911" y="1073" type="curve" smooth="yes"/>
      <point x="952" y="1060"/>
      <point x="999" y="1040"/>
      <point x="1042" y="1012" type="curve"/>
      <point x="1092" y="1262" type="line" name="iv01"/>
      <point x="1039" y="1281"/>
      <point x="987" y="1293"/>
      <point x="943" y="1301" type="curve" smooth="yes"/>
      <point x="900" y="1309"/>
      <point x="846" y="1316"/>
      <point x="799" y="1319" type="curve" name="sh05"/>
      <point x="846" y="1556" type="line"/>
      <point x="705" y="1556" type="line" name="ih01"/>
      <point x="657" y="1319" type="line"/>
      <point x="522" y="1314"/>
      <point x="412" y="1272" name="ah02"/>
      <point x="327" y="1193" type="curve" smooth="yes"/>
      <point x="242" y="1113" name="ih02"/>
      <point x="199" y="1013" name="ah01"/>
      <point x="199" y="900" type="curve" smooth="yes" name="sh06"/>
      <point x="199" y="812"/>
      <point x="225" y="747"/>
      <point x="277" y="691" type="curve" smooth="yes"/>
      <point x="328" y="638"/>
      <point x="400" y="598"/>
      <point x="512" y="569" type="curve"/>
      <point x="444" y="223" type="line"/>
      <point x="385" y="226"/>
      <point x="326" y="239"/>
      <point x="268" y="260" type="curve" smooth="yes"/>
      <point x="208" y="283"/>
      <point x="150" y="313"/>
      <point x="90" y="354" type="curve"/>
      <point x="39" y="92" type="line"/>
      <point x="106" y="63"/>
      <point x="158" y="42"/>
      <point x="226" y="25" type="curve" smooth="yes"/>
      <point x="286" y="10"/>
      <point x="344" y="1"/>
      <point x="401" y="0" type="curve"/>
    </contour>
    <contour>
      <point x="561" y="821" type="line"/>
      <point x="528" y="829"/>
      <point x="502" y="843"/>
      <point x="485" y="862" type="curve" smooth="yes"/>
      <point x="468" y="881"/>
      <point x="459" y="902"/>
      <point x="459" y="935" type="curve" smooth="yes"/>
      <point x="459" y="975"/>
      <point x="472" y="1013"/>
      <point x="501" y="1045" type="curve" smooth="yes"/>
      <point x="528" y="1075"/>
      <point x="565" y="1093"/>
      <point x="614" y="1099" type="curve"/>
    </contour>
    <contour>
      <point x="647" y="532" type="line"/>
      <point x="690" y="521"/>
      <point x="721" y="505"/>
      <point x="740" y="484" type="curve" smooth="yes"/>
      <point x="759" y="463"/>
      <point x="768" y="436"/>
      <point x="768" y="401" type="curve" smooth="yes"/>
      <point x="768" y="352"/>
      <point x="750" y="317"/>
      <point x="719" y="286" type="curve" smooth="yes"/>
      <point x="686" y="253"/>
      <point x="642" y="234"/>
      <point x="588" y="227" type="curve"/>
    </contour>
  </outline>
</glyph>
<glyph name="percent" format="1">
  <advance width="1233"/>
  <unicode hex="0025"/>
  <outline>
    <contour>
      <point x="353" y="778" type="curve" smooth="yes" name="dv05"/>
      <point x="264" y="778"/>
      <point x="176" y="807" name="dh01"/>
      <point x="109" y="871" type="curve" smooth="yes"/>
      <point x="52" y="927" name="dv02"/>
      <point x="13" y="1009"/>
      <point x="13" y="1105" type="curve" smooth="yes"/>
      <point x="13" y="1198"/>
      <point x="49" y="1280"/>
      <point x="109" y="1339" type="curve" smooth="yes"/>
      <point x="172" y="1400"/>
      <point x="257" y="1432"/>
      <point x="360" y="1432" type="curve" smooth="yes" name="dh04"/>
      <point x="363" y="1432"/>
      <point x="374" y="1432"/>
      <point x="385" y="1431" type="curve" smooth="yes"/>
      <point x="394" y="1430"/>
      <point x="408" y="1429" name="dv06"/>
      <point x="419" y="1426" type="curve" smooth="yes"/>
      <point x="430" y="1423"/>
      <point x="435" y="1423"/>
      <point x="452" y="1418" type="curve" smooth="yes" name="dh03"/>
      <point x="476" y="1411"/>
      <point x="481" y="1408" name="dv01"/>
      <point x="484" y="1407" type="curve" smooth="yes"/>
      <point x="518" y="1394" name="dh02"/>
      <point x="524" y="1390"/>
      <point x="545" y="1377" type="curve" smooth="yes"/>
      <point x="564" y="1365" name="sh01"/>
      <point x="582" y="1352" name="sh02"/>
      <point x="597" y="1337" type="curve" smooth="yes"/>
      <point x="628" y="1308" name="ih01"/>
      <point x="654" y="1274" name="ab01"/>
      <point x="673" y="1231" type="curve" smooth="yes"/>
      <point x="691" y="1191"/>
      <point x="700" y="1148"/>
      <point x="700" y="1103" type="curve" smooth="yes"/>
      <point x="700" y="1058" name="ih02"/>
      <point x="692" y="1016"/>
      <point x="675" y="978" type="curve" smooth="yes" name="dv04"/>
      <point x="658" y="940"/>
      <point x="633" y="905"/>
      <point x="599" y="873" type="curve" smooth="yes"/>
      <point x="570" y="846"/>
      <point x="533" y="821"/>
      <point x="486" y="802" type="curve" smooth="yes"/>
      <point x="444" y="786"/>
      <point x="400" y="778"/>
    </contour>
    <contour>
      <point x="351" y="943" type="curve" smooth="yes"/>
      <point x="375" y="943"/>
      <point x="398" y="947" name="sv01"/>
      <point x="419" y="955" type="curve" smooth="yes"/>
      <point x="434" y="960" name="dh05"/>
      <point x="453" y="969"/>
      <point x="476" y="990" type="curve" smooth="yes" name="dv03"/>
      <point x="493" y="1006"/>
      <point x="506" y="1023" name="sh03"/>
      <point x="515" y="1042" type="curve" smooth="yes"/>
      <point x="524" y="1060"/>
      <point x="528" y="1080"/>
      <point x="528" y="1103" type="curve" smooth="yes"/>
      <point x="528" y="1149"/>
      <point x="511" y="1188"/>
      <point x="477" y="1219" type="curve" smooth="yes" name="sh04"/>
      <point x="442" y="1250"/>
      <point x="398" y="1266"/>
      <point x="351" y="1266" type="curve" smooth="yes"/>
      <point x="304" y="1266"/>
      <point x="258" y="1251"/>
      <point x="226" y="1220" type="curve" smooth="yes"/>
      <point x="194" y="1189"/>
      <point x="178" y="1147"/>
      <point x="178" y="1104" type="curve" smooth="yes"/>
      <point x="178" y="1060"/>
      <point x="194" y="1020"/>
      <point x="225" y="989" type="curve" smooth="yes"/>
      <point x="254" y="961"/>
      <point x="299" y="943"/>
    </contour>
    <contour>
      <point x="22" y="570" type="line"/>
      <point x="1232" y="1018" type="line"/>
      <point x="1232" y="873" type="line"/>
      <point x="22" y="431" type="line"/>
    </contour>
    <contour>
      <point x="898" y="0" type="curve" smooth="yes"/>
      <point x="851" y="0"/>
      <point x="806" y="8"/>
      <point x="764" y="24" type="curve" smooth="yes"/>
      <point x="727" y="39"/>
      <point x="689" y="59"/>
      <point x="652" y="94" type="curve" smooth="yes"/>
      <point x="632" y="113"/>
      <point x="612" y="137"/>
      <point x="597" y="162" type="curve" smooth="yes"/>
      <point x="582" y="187"/>
      <point x="571" y="212"/>
      <point x="564" y="239" type="curve" smooth="yes"/>
      <point x="557" y="267"/>
      <point x="553" y="296"/>
      <point x="553" y="327" type="curve" smooth="yes"/>
      <point x="553" y="423"/>
      <point x="591" y="502"/>
      <point x="654" y="561" type="curve" smooth="yes"/>
      <point x="718" y="621"/>
      <point x="803" y="654"/>
      <point x="900" y="654" type="curve" smooth="yes"/>
      <point x="948" y="654"/>
      <point x="992" y="646"/>
      <point x="1031" y="629" type="curve" smooth="yes"/>
      <point x="1071" y="612"/>
      <point x="1115" y="583"/>
      <point x="1140" y="558" type="curve" smooth="yes" name="hr01"/>
      <point x="1159" y="538" type="line"/>
      <point x="1160" y="535"/>
      <point x="1172" y="521"/>
      <point x="1175" y="518" type="curve"/>
      <point x="1189" y="496" type="line"/>
      <point x="1203" y="474" type="line" smooth="yes"/>
      <point x="1206" y="469"/>
      <point x="1211" y="455"/>
      <point x="1214" y="451" type="curve"/>
      <point x="1225" y="428"/>
      <point x="1230" y="407"/>
      <point x="1234" y="390" type="curve" smooth="yes"/>
      <point x="1238" y="371"/>
      <point x="1240" y="346"/>
      <point x="1240" y="325" type="curve" smooth="yes"/>
      <point x="1240" y="240"/>
      <point x="1207" y="156"/>
      <point x="1144" y="95" type="curve" smooth="yes"/>
      <point x="1087" y="39"/>
      <point x="1002" y="0"/>
    </contour>
    <contour>
      <point x="900" y="165" type="curve" smooth="yes"/>
      <point x="949" y="165"/>
      <point x="991" y="181"/>
      <point x="1024" y="212" type="curve" smooth="yes"/>
      <point x="1057" y="243"/>
      <point x="1073" y="282"/>
      <point x="1073" y="325" type="curve" smooth="yes"/>
      <point x="1073" y="369"/>
      <point x="1056" y="411"/>
      <point x="1024" y="442" type="curve" smooth="yes"/>
      <point x="997" y="469"/>
      <point x="955" y="489"/>
      <point x="899" y="489" type="curve" smooth="yes"/>
      <point x="852" y="489"/>
      <point x="808" y="474"/>
      <point x="775" y="443" type="curve" smooth="yes"/>
      <point x="742" y="412"/>
      <point x="725" y="373"/>
      <point x="725" y="326" type="curve" smooth="yes"/>
      <point x="725" y="310"/>
      <point x="727" y="299"/>
      <point x="731" y="284" type="curve" smooth="yes"/>
      <point x="735" y="269"/>
      <point x="739" y="258"/>
      <point x="747" y="245" type="curve" smooth="yes"/>
      <point x="752" y="237"/>
      <point x="763" y="222"/>
      <point x="775" y="211" type="curve" smooth="yes"/>
      <point x="792" y="195"/>
      <point x="810" y="185"/>
      <point x="831" y="177" type="curve" smooth="yes"/>
      <point x="852" y="169"/>
      <point x="875" y="165"/>
    </contour>
  </outline>
</glyph>
<glyph name="ampersand" format="1">
  <advance width="1233"/>
  <unicode hex="0026"/>
  <outline>
    <contour>
      <point x="387" y="-29" type="curve" smooth="yes" name="dv01"/>
      <point x="264" y="-29"/>
      <point x="157" y="5" name="sh01"/>
      <point x="80" y="77" type="curve" smooth="yes"/>
      <point x="1" y="150"/>
      <point x="-33" y="251" name="sh02"/>
      <point x="-33" y="362" type="curve" smooth="yes" name="ah02"/>
      <point x="-33" y="469"/>
      <point x="0" y="571" name="at01"/>
      <point x="66" y="666" type="curve" smooth="yes" name="at02"/>
      <point x="134" y="763"/>
      <point x="225" y="842" name="iv01"/>
      <point x="350" y="913" type="curve"/>
      <point x="331" y="954" name="sv01"/>
      <point x="321" y="985"/>
      <point x="312" y="1021" type="curve" smooth="yes" name="sh03"/>
      <point x="304" y="1053"/>
      <point x="299" y="1079"/>
      <point x="299" y="1118" type="curve" smooth="yes" name="iv02"/>
      <point x="299" y="1235"/>
      <point x="343" y="1338"/>
      <point x="432" y="1411" type="curve" smooth="yes"/>
      <point x="520" y="1483"/>
      <point x="645" y="1520"/>
      <point x="794" y="1520" type="curve" smooth="yes" name="ab01"/>
      <point x="843" y="1520"/>
      <point x="888" y="1516"/>
      <point x="933" y="1509" type="curve" smooth="yes" name="ab02"/>
      <point x="977" y="1502"/>
      <point x="1018" y="1492" name="dv02"/>
      <point x="1065" y="1477" type="curve"/>
      <point x="1016" y="1221" type="line" name="hr01"/>
      <point x="980" y="1244"/>
      <point x="941" y="1262" name="sh04"/>
      <point x="898" y="1275" type="curve" smooth="yes" name="sh05"/>
      <point x="855" y="1288"/>
      <point x="812" y="1294"/>
      <point x="769" y="1294" type="curve" smooth="yes" name="ah01"/>
      <point x="705" y="1294"/>
      <point x="662" y="1282"/>
      <point x="633" y="1259" type="curve" smooth="yes"/>
      <point x="602" y="1235"/>
      <point x="586" y="1201"/>
      <point x="586" y="1158" type="curve" smooth="yes"/>
      <point x="586" y="1134"/>
      <point x="592" y="1103"/>
      <point x="605" y="1065" type="curve" smooth="yes"/>
      <point x="620" y="1018"/>
      <point x="636" y="981"/>
      <point x="664" y="920" type="curve" smooth="yes"/>
      <point x="885" y="440" type="line"/>
      <point x="913" y="479"/>
      <point x="935" y="524"/>
      <point x="951" y="575" type="curve" smooth="yes"/>
      <point x="966" y="625"/>
      <point x="976" y="682"/>
      <point x="979" y="745" type="curve"/>
      <point x="1214" y="745" type="line"/>
      <point x="1207" y="641"/>
      <point x="1184" y="547"/>
      <point x="1143" y="463" type="curve" smooth="yes"/>
      <point x="1103" y="380"/>
      <point x="1047" y="307"/>
      <point x="975" y="246" type="curve"/>
      <point x="1090" y="0" type="line"/>
      <point x="774" y="0" type="line"/>
      <point x="739" y="72" type="line"/>
      <point x="682" y="39"/>
      <point x="624" y="13"/>
      <point x="564" y="-4" type="curve" smooth="yes"/>
      <point x="505" y="-21"/>
      <point x="446" y="-29"/>
    </contour>
    <contour>
      <point x="473" y="207" type="curve" smooth="yes"/>
      <point x="501" y="207"/>
      <point x="531" y="212"/>
      <point x="562" y="221" type="curve" smooth="yes"/>
      <point x="593" y="230"/>
      <point x="622" y="243"/>
      <point x="653" y="262" type="curve"/>
      <point x="436" y="731" type="line"/>
      <point x="375" y="696"/>
      <point x="330" y="654"/>
      <point x="299" y="605" type="curve" smooth="yes"/>
      <point x="267" y="554"/>
      <point x="252" y="496"/>
      <point x="252" y="440" type="curve" smooth="yes"/>
      <point x="252" y="375"/>
      <point x="272" y="317"/>
      <point x="315" y="273" type="curve" smooth="yes"/>
      <point x="358" y="229"/>
      <point x="413" y="207"/>
    </contour>
  </outline>
</glyph>
<glyph name="parenright" format="1">
  <advance width="1233"/>
  <unicode hex="0029"/>
  <outline>
    <contour>
      <point x="468" y="-270" type="line" name="av02"/>
      <point x="640" y="-75"/>
      <point x="770" y="118" name="dh02"/>
      <point x="855" y="310" type="curve" smooth="yes"/>
      <point x="942" y="505"/>
      <point x="984" y="697" name="at01"/>
      <point x="984" y="892" type="curve" smooth="yes"/>
      <point x="984" y="999" name="dh01"/>
      <point x="971" y="1107"/>
      <point x="944" y="1218" type="curve" smooth="yes" name="av01"/>
      <point x="917" y="1327"/>
      <point x="877" y="1439"/>
      <point x="822" y="1554" type="curve"/>
      <point x="597" y="1554" type="line"/>
      <point x="634" y="1445"/>
      <point x="663" y="1338"/>
      <point x="682" y="1235" type="curve" smooth="yes"/>
      <point x="701" y="1131"/>
      <point x="710" y="1034"/>
      <point x="710" y="939" type="curve" smooth="yes"/>
      <point x="710" y="743"/>
      <point x="671" y="545"/>
      <point x="593" y="344" type="curve" smooth="yes"/>
      <point x="515" y="143"/>
      <point x="398" y="-61"/>
      <point x="243" y="-270" type="curve"/>
    </contour>
  </outline>
</glyph>
<glyph name="period" format="1">
  <advance width="1233"/>
  <unicode hex="002E"/>
  <outline>
    <contour>
      <point x="614" y="-42" type="curve" smooth="yes" name="dv01"/>
      <point x="563" y="-42"/>
      <point x="521" y="-25" name="dh01"/>
      <point x="487" y="9" type="curve" smooth="yes"/>
      <point x="455" y="41" name="dv02"/>
      <point x="436" y="86"/>
      <point x="436" y="143" type="curve" smooth="yes" name="dh02"/>
      <point x="436" y="196"/>
      <point x="453" y="240"/>
      <point x="487" y="275" type="curve" smooth="yes"/>
      <point x="521" y="309"/>
      <point x="563" y="326"/>
      <point x="612" y="326" type="curve" smooth="yes"/>
      <point x="663" y="326"/>
      <point x="705" y="309"/>
      <point x="739" y="275" type="curve" smooth="yes"/>
      <point x="773" y="241"/>
      <point x="790" y="196"/>
      <point x="790" y="141" type="curve" smooth="yes"/>
      <point x="790" y="88"/>
      <point x="773" y="44"/>
      <point x="739" y="9" type="curve" smooth="yes"/>
      <point x="705" y="-25"/>
      <point x="663" y="-42"/>
    </contour>
  </outline>
</glyph>
<glyph name="two" format="1">
  <advance width="1233"/>
  <unicode hex="0032"/>
  <outline>
    <contour>
      <point x="13" y="218" type="line" smooth="yes" name="hr00"/>
      <point x="18" y="243"/>
      <point x="27" y="258"/>
      <point x="46" y="275" type="curve" smooth="yes"/>
      <point x="297" y="500" type="line" smooth="yes" name="dh01"/>
      <point x="372" y="567"/>
      <point x="383" y="575" name="sv01"/>
      <point x="442" y="628" type="curve" smooth="yes"/>
      <point x="731" y="887" name="iv01"/>
      <point x="844" y="1033"/>
      <point x="844" y="1138" type="curve" smooth="yes"/>
      <point x="844" y="1181" name="at01"/>
      <point x="825" y="1221"/>
      <point x="788" y="1248" type="curve" smooth="yes" name="dh02"/>
      <point x="751" y="1275"/>
      <point x="699" y="1288"/>
      <point x="635" y="1288" type="curve" smooth="yes" name="sv02"/>
      <point x="579" y="1288"/>
      <point x="515" y="1278" name="ab01"/>
      <point x="447" y="1259" type="curve" smooth="yes"/>
      <point x="387" y="1242"/>
      <point x="309" y="1212" name="sh01"/>
      <point x="225" y="1171" type="curve"/>
      <point x="276" y="1438" type="line"/>
      <point x="349" y="1465"/>
      <point x="424" y="1486"/>
      <point x="492" y="1499" type="curve"/>
      <point x="564" y="1514"/>
      <point x="637" y="1520"/>
      <point x="697" y="1520" type="curve" smooth="yes"/>
      <point x="824" y="1520"/>
      <point x="934" y="1490"/>
      <point x="1014" y="1426" type="curve" smooth="yes"/>
      <point x="1089" y="1367"/>
      <point x="1135" y="1283"/>
      <point x="1135" y="1186" type="curve" smooth="yes"/>
      <point x="1135" y="1011"/>
      <point x="984" y="799"/>
      <point x="681" y="542" type="curve" smooth="yes"/>
      <point x="641" y="508" type="line"/>
      <point x="324" y="260" type="line"/>
      <point x="971" y="260" type="line"/>
      <point x="920" y="0" type="line"/>
      <point x="-29" y="0" type="line"/>
    </contour>
  </outline>
</glyph>
<glyph name="three" format="1">
  <advance width="1233"/>
  <unicode hex="0033"/>
  <outline>
    <contour>
      <point x="421" y="-29" type="curve" smooth="yes" name="dv01"/>
      <point x="353" y="-29"/>
      <point x="285" y="-23"/>
      <point x="206" y="-10" type="curve" smooth="yes"/>
      <point x="122" y="5"/>
      <point x="49" y="22" name="dv02"/>
      <point x="-31" y="45" type="curve"/>
      <point x="23" y="315" type="line" name="dh01"/>
      <point x="90" y="283"/>
      <point x="158" y="260" name="dv03"/>
      <point x="223" y="245" type="curve" smooth="yes"/>
      <point x="292" y="229"/>
      <point x="365" y="221" name="dv04"/>
      <point x="430" y="221" type="curve" smooth="yes"/>
      <point x="547" y="221" name="ih01"/>
      <point x="618" y="247"/>
      <point x="669" y="290" type="curve" smooth="yes" name="sv01"/>
      <point x="720" y="333"/>
      <point x="750" y="397"/>
      <point x="750" y="477" type="curve" smooth="yes"/>
      <point x="750" y="540"/>
      <point x="729" y="588" name="at01"/>
      <point x="686" y="620" type="curve" smooth="yes"/>
      <point x="643" y="652" name="sh01"/>
      <point x="582" y="668"/>
      <point x="514" y="668" type="curve" smooth="yes" name="ih02"/>
      <point x="356" y="668" type="line"/>
      <point x="408" y="928" type="line" name="dh02"/>
      <point x="565" y="928" type="line" smooth="yes"/>
      <point x="647" y="928"/>
      <point x="714" y="947"/>
      <point x="767" y="984" type="curve" name="sh02"/>
      <point x="820" y="1023"/>
      <point x="844" y="1069"/>
      <point x="844" y="1124" type="curve" smooth="yes"/>
      <point x="844" y="1171"/>
      <point x="825" y="1207"/>
      <point x="787" y="1232" type="curve" smooth="yes"/>
      <point x="752" y="1255"/>
      <point x="699" y="1270"/>
      <point x="622" y="1270" type="curve" smooth="yes"/>
      <point x="567" y="1270"/>
      <point x="507" y="1263"/>
      <point x="441" y="1249" type="curve" smooth="yes"/>
      <point x="373" y="1234"/>
      <point x="304" y="1215"/>
      <point x="231" y="1188" type="curve"/>
      <point x="285" y="1456" type="line"/>
      <point x="357" y="1479"/>
      <point x="422" y="1493"/>
      <point x="486" y="1504" type="curve" smooth="yes"/>
      <point x="550" y="1515"/>
      <point x="614" y="1520"/>
      <point x="667" y="1520" type="curve" smooth="yes"/>
      <point x="808" y="1520"/>
      <point x="921" y="1485"/>
      <point x="998" y="1424" type="curve" smooth="yes" name="hr02"/>
      <point x="1081" y="1359"/>
      <point x="1120" y="1267"/>
      <point x="1120" y="1164" type="curve" smooth="yes"/>
      <point x="1120" y="1076"/>
      <point x="1091" y="999"/>
      <point x="1026" y="931" type="curve" smooth="yes"/>
      <point x="961" y="863"/>
      <point x="872" y="824"/>
      <point x="764" y="805" type="curve"/>
      <point x="854" y="781"/>
      <point x="921" y="742"/>
      <point x="964" y="687" type="curve" smooth="yes"/>
      <point x="1008" y="631"/>
      <point x="1030" y="563"/>
      <point x="1030" y="470" type="curve" smooth="yes"/>
      <point x="1030" y="323"/>
      <point x="975" y="197"/>
      <point x="867" y="106" type="curve" smooth="yes"/>
      <point x="759" y="15"/>
      <point x="608" y="-29"/>
    </contour>
  </outline>
</glyph>
<glyph name="five" format="1">
  <advance width="1233"/>
  <unicode hex="0035"/>
  <outline>
    <contour>
      <point x="387" y="-29" type="curve" smooth="yes" name="dv01"/>
      <point x="324" y="-29"/>
      <point x="261" y="-24"/>
      <point x="197" y="-13" type="curve" smooth="yes"/>
      <point x="132" y="-2"/>
      <point x="69" y="14" name="dv02"/>
      <point x="6" y="35" type="curve"/>
      <point x="57" y="301" type="line" name="dh01"/>
      <point x="103" y="274"/>
      <point x="155" y="254" name="dv03"/>
      <point x="213" y="240" type="curve"/>
      <point x="270" y="225"/>
      <point x="331" y="219" name="at01"/>
      <point x="391" y="219" type="curve" smooth="yes"/>
      <point x="511" y="219" name="sv01"/>
      <point x="600" y="246"/>
      <point x="665" y="298" type="curve" smooth="yes" name="iv01"/>
      <point x="732" y="351"/>
      <point x="764" y="424" name="dv04"/>
      <point x="764" y="509" type="curve" smooth="yes"/>
      <point x="764" y="581" name="dh02"/>
      <point x="740" y="637"/>
      <point x="693" y="677" type="curve" smooth="yes"/>
      <point x="646" y="717"/>
      <point x="581" y="737" name="sh01"/>
      <point x="498" y="737" type="curve" smooth="yes"/>
      <point x="449" y="737"/>
      <point x="397" y="730"/>
      <point x="340" y="717" type="curve" smooth="yes"/>
      <point x="287" y="704"/>
      <point x="233" y="685"/>
      <point x="178" y="659" type="curve"/>
      <point x="340" y="1493" type="line"/>
      <point x="1151" y="1493" type="line"/>
      <point x="1100" y="1233" type="line"/>
      <point x="528" y="1233" type="line"/>
      <point x="475" y="956" type="line"/>
      <point x="496" y="965"/>
      <point x="519" y="971"/>
      <point x="544" y="975" type="curve" smooth="yes"/>
      <point x="568" y="979"/>
      <point x="594" y="981"/>
      <point x="622" y="981" type="curve" smooth="yes"/>
      <point x="754" y="981"/>
      <point x="863" y="938"/>
      <point x="936" y="865" type="curve" smooth="yes"/>
      <point x="1011" y="790"/>
      <point x="1051" y="684"/>
      <point x="1051" y="545" type="curve" smooth="yes"/>
      <point x="1051" y="376"/>
      <point x="992" y="231"/>
      <point x="873" y="127" type="curve" smooth="yes"/>
      <point x="756" y="23"/>
      <point x="591" y="-29"/>
    </contour>
  </outline>
</glyph>
<glyph name="six" format="1">
  <advance width="1233"/>
  <unicode hex="0036"/>
  <outline>
    <contour>
      <point x="544" y="-33" type="curve" smooth="yes" name="dv01"/>
      <point x="401" y="-33"/>
      <point x="287" y="9" name="sh01"/>
      <point x="210" y="93" type="curve" smooth="yes"/>
      <point x="134" y="177"/>
      <point x="96" y="296"/>
      <point x="96" y="480" type="curve" smooth="yes" name="at01"/>
      <point x="96" y="613"/>
      <point x="116" y="751"/>
      <point x="157" y="891" type="curve" smooth="yes"/>
      <point x="197" y="1028"/>
      <point x="254" y="1148" name="sv01"/>
      <point x="326" y="1247" type="curve" smooth="yes"/>
      <point x="391" y="1336" name="ih01"/>
      <point x="464" y="1404"/>
      <point x="563" y="1451" type="curve" smooth="yes" name="dv04"/>
      <point x="658" y="1496"/>
      <point x="765" y="1518" name="sh02"/>
      <point x="881" y="1518" type="curve" smooth="yes"/>
      <point x="937" y="1518"/>
      <point x="977" y="1514" name="dv02"/>
      <point x="1024" y="1503" type="curve" smooth="yes"/>
      <point x="1069" y="1493" name="ah02"/>
      <point x="1118" y="1478"/>
      <point x="1169" y="1458" type="curve" name="dv03"/>
      <point x="1118" y="1190" type="line"/>
      <point x="1067" y="1226" name="sh03"/>
      <point x="1031" y="1242"/>
      <point x="988" y="1257" type="curve"/>
      <point x="941" y="1272" name="ah01"/>
      <point x="895" y="1280" name="sh04"/>
      <point x="846" y="1280" type="curve" smooth="yes"/>
      <point x="741" y="1280"/>
      <point x="654" y="1244"/>
      <point x="583" y="1172" type="curve" smooth="yes"/>
      <point x="511" y="1100"/>
      <point x="461" y="991"/>
      <point x="430" y="854" type="curve"/>
      <point x="471" y="898"/>
      <point x="516" y="931"/>
      <point x="566" y="952" type="curve" smooth="yes"/>
      <point x="617" y="974"/>
      <point x="672" y="985"/>
      <point x="732" y="985" type="curve" smooth="yes"/>
      <point x="842" y="985"/>
      <point x="930" y="948"/>
      <point x="995" y="874" type="curve" smooth="yes"/>
      <point x="1059" y="802"/>
      <point x="1092" y="704"/>
      <point x="1092" y="565" type="curve" smooth="yes"/>
      <point x="1092" y="390"/>
      <point x="1038" y="252"/>
      <point x="938" y="139" type="curve" smooth="yes"/>
      <point x="837" y="26"/>
      <point x="713" y="-33"/>
    </contour>
    <contour>
      <point x="551" y="207" type="curve" smooth="yes"/>
      <point x="620" y="207"/>
      <point x="683" y="242"/>
      <point x="730" y="306" type="curve" smooth="yes"/>
      <point x="777" y="370"/>
      <point x="803" y="458"/>
      <point x="803" y="550" type="curve" smooth="yes"/>
      <point x="803" y="614"/>
      <point x="790" y="661"/>
      <point x="758" y="697" type="curve" smooth="yes"/>
      <point x="727" y="731"/>
      <point x="686" y="748"/>
      <point x="636" y="748" type="curve" smooth="yes"/>
      <point x="561" y="748"/>
      <point x="499" y="708"/>
      <point x="456" y="648" type="curve" smooth="yes"/>
      <point x="408" y="580"/>
      <point x="383" y="492"/>
      <point x="383" y="408" type="curve" smooth="yes"/>
      <point x="383" y="341"/>
      <point x="397" y="295"/>
      <point x="428" y="260" type="curve" smooth="yes"/>
      <point x="456" y="228"/>
      <point x="496" y="207"/>
    </contour>
  </outline>
</glyph>
<glyph name="eight" format="1">
  <advance width="1233"/>
  <unicode hex="0038"/>
  <outline>
    <contour>
      <point x="502" y="-29" type="curve" smooth="yes" name="dv01"/>
      <point x="361" y="-29"/>
      <point x="253" y="7" name="dh01"/>
      <point x="178" y="71" type="curve" smooth="yes"/>
      <point x="101" y="138" name="ih02"/>
      <point x="63" y="231"/>
      <point x="63" y="352" type="curve" smooth="yes" name="ih01"/>
      <point x="63" y="465"/>
      <point x="98" y="562" name="at01"/>
      <point x="162" y="639" type="curve" smooth="yes"/>
      <point x="226" y="716" name="sh02"/>
      <point x="317" y="772"/>
      <point x="434" y="799" type="curve" name="ih04"/>
      <point x="366" y="818"/>
      <point x="314" y="848" name="dh04"/>
      <point x="277" y="897" type="curve" smooth="yes"/>
      <point x="242" y="942"/>
      <point x="223" y="999" name="dv04"/>
      <point x="223" y="1075" type="curve" smooth="yes"/>
      <point x="223" y="1192" name="ih03"/>
      <point x="270" y="1303"/>
      <point x="370" y="1391" type="curve" smooth="yes" name="sv01"/>
      <point x="462" y="1471"/>
      <point x="585" y="1520" name="sh01"/>
      <point x="730" y="1520" type="curve" smooth="yes"/>
      <point x="850" y="1520"/>
      <point x="949" y="1487" name="dv02"/>
      <point x="1025" y="1422" type="curve" smooth="yes"/>
      <point x="1097" y="1359" name="dh03"/>
      <point x="1137" y="1273"/>
      <point x="1137" y="1161" type="curve" smooth="yes" name="dv03"/>
      <point x="1137" y="1064"/>
      <point x="1107" y="982" name="dh02"/>
      <point x="1048" y="913" type="curve" smooth="yes" name="hr01"/>
      <point x="989" y="846"/>
      <point x="910" y="803"/>
      <point x="809" y="786" type="curve" name="sh03"/>
      <point x="881" y="767"/>
      <point x="938" y="730"/>
      <point x="979" y="673" type="curve" smooth="yes"/>
      <point x="1019" y="617"/>
      <point x="1040" y="552"/>
      <point x="1040" y="461" type="curve" smooth="yes"/>
      <point x="1040" y="322"/>
      <point x="992" y="199"/>
      <point x="892" y="107" type="curve" smooth="yes"/>
      <point x="800" y="23"/>
      <point x="670" y="-29"/>
    </contour>
    <contour>
      <point x="653" y="903" type="curve" smooth="yes"/>
      <point x="712" y="903"/>
      <point x="770" y="923"/>
      <point x="813" y="963" type="curve" smooth="yes"/>
      <point x="856" y="1003"/>
      <point x="877" y="1054"/>
      <point x="877" y="1116" type="curve" smooth="yes"/>
      <point x="877" y="1169"/>
      <point x="862" y="1210"/>
      <point x="831" y="1240" type="curve" smooth="yes" name="hr02"/>
      <point x="800" y="1269"/>
      <point x="758" y="1284"/>
      <point x="705" y="1284" type="curve" smooth="yes"/>
      <point x="642" y="1284"/>
      <point x="590" y="1264"/>
      <point x="548" y="1223" type="curve" smooth="yes"/>
      <point x="509" y="1186"/>
      <point x="485" y="1133"/>
      <point x="485" y="1070" type="curve" smooth="yes"/>
      <point x="485" y="1023"/>
      <point x="499" y="981"/>
      <point x="530" y="950" type="curve" smooth="yes" name="hr03"/>
      <point x="562" y="917"/>
      <point x="604" y="903"/>
    </contour>
    <contour>
      <point x="528" y="209" type="curve" smooth="yes"/>
      <point x="600" y="209"/>
      <point x="662" y="234"/>
      <point x="709" y="285" type="curve" smooth="yes"/>
      <point x="754" y="334"/>
      <point x="778" y="402"/>
      <point x="778" y="474" type="curve" smooth="yes"/>
      <point x="778" y="539"/>
      <point x="758" y="585"/>
      <point x="725" y="617" type="curve" smooth="yes"/>
      <point x="693" y="648"/>
      <point x="646" y="668"/>
      <point x="579" y="668" type="curve" smooth="yes"/>
      <point x="504" y="668"/>
      <point x="444" y="643"/>
      <point x="397" y="593" type="curve" smooth="yes"/>
      <point x="350" y="544"/>
      <point x="326" y="476"/>
      <point x="326" y="405" type="curve" smooth="yes" name="hr04"/>
      <point x="326" y="346"/>
      <point x="343" y="296"/>
      <point x="382" y="260" type="curve" smooth="yes"/>
      <point x="419" y="225"/>
      <point x="469" y="209"/>
    </contour>
  </outline>
</glyph>
<glyph name="nine" format="1">
  <advance width="1233"/>
  <unicode hex="0039"/>
  <outline>
    <contour>
      <point x="345" y="-31" type="curve" smooth="yes" name="dv01"/>
      <point x="289" y="-31"/>
      <point x="248" y="-27"/>
      <point x="201" y="-16" type="curve" smooth="yes"/>
      <point x="160" y="-7"/>
      <point x="111" y="6" name="dv02"/>
      <point x="55" y="29" type="curve"/>
      <point x="106" y="297" type="line" name="ih01"/>
      <point x="146" y="269"/>
      <point x="189" y="245" name="dv03"/>
      <point x="237" y="230" type="curve" smooth="yes"/>
      <point x="284" y="215" name="sh01"/>
      <point x="330" y="207"/>
      <point x="379" y="207" type="curve" smooth="yes" name="at01"/>
      <point x="483" y="207"/>
      <point x="570" y="243" name="sh02"/>
      <point x="641" y="316" type="curve" smooth="yes"/>
      <point x="718" y="396"/>
      <point x="764" y="504"/>
      <point x="795" y="633" type="curve"/>
      <point x="753" y="589" name="dv04"/>
      <point x="707" y="556"/>
      <point x="658" y="535" type="curve" smooth="yes" name="ah02"/>
      <point x="607" y="512"/>
      <point x="554" y="502" name="sv01"/>
      <point x="494" y="502" type="curve" smooth="yes"/>
      <point x="371" y="502" name="sh03"/>
      <point x="288" y="548"/>
      <point x="232" y="612" type="curve" smooth="yes"/>
      <point x="163" y="692" name="ah01"/>
      <point x="135" y="799" name="sh04"/>
      <point x="135" y="919" type="curve" smooth="yes"/>
      <point x="135" y="1092"/>
      <point x="194" y="1246"/>
      <point x="286" y="1350" type="curve" smooth="yes"/>
      <point x="386" y="1463"/>
      <point x="525" y="1520"/>
      <point x="685" y="1520" type="curve" smooth="yes"/>
      <point x="830" y="1520"/>
      <point x="943" y="1474"/>
      <point x="1015" y="1394" type="curve" smooth="yes"/>
      <point x="1090" y="1312"/>
      <point x="1128" y="1183"/>
      <point x="1128" y="1008" type="curve" smooth="yes"/>
      <point x="1128" y="876"/>
      <point x="1108" y="733"/>
      <point x="1068" y="596" type="curve" smooth="yes"/>
      <point x="1028" y="459"/>
      <point x="971" y="338"/>
      <point x="899" y="238" type="curve" smooth="yes"/>
      <point x="830" y="142"/>
      <point x="758" y="81"/>
      <point x="663" y="36" type="curve" smooth="yes"/>
      <point x="566" y="-11"/>
      <point x="460" y="-31"/>
    </contour>
    <contour>
      <point x="589" y="739" type="curve" smooth="yes"/>
      <point x="660" y="739"/>
      <point x="719" y="772"/>
      <point x="768" y="839" type="curve" smooth="yes"/>
      <point x="816" y="906"/>
      <point x="842" y="989"/>
      <point x="842" y="1078" type="curve" smooth="yes"/>
      <point x="842" y="1142"/>
      <point x="829" y="1190"/>
      <point x="797" y="1227" type="curve" smooth="yes"/>
      <point x="766" y="1262"/>
      <point x="726" y="1280"/>
      <point x="675" y="1280" type="curve" smooth="yes"/>
      <point x="604" y="1280"/>
      <point x="544" y="1246"/>
      <point x="496" y="1179" type="curve" smooth="yes"/>
      <point x="448" y="1111"/>
      <point x="424" y="1024"/>
      <point x="424" y="935" type="curve" smooth="yes"/>
      <point x="424" y="863"/>
      <point x="438" y="825"/>
      <point x="469" y="790" type="curve" smooth="yes"/>
      <point x="496" y="759"/>
      <point x="532" y="739"/>
    </contour>
  </outline>
</glyph>
<glyph name="colon" format="1">
  <advance width="1233"/>
  <unicode hex="003A"/>
  <outline>
    <contour>
      <point x="734" y="747" type="curve" smooth="yes" name="dv01"/>
      <point x="681" y="747"/>
      <point x="644" y="766" name="ih01"/>
      <point x="620" y="793" type="curve" smooth="yes"/>
      <point x="597" y="820" name="dv02"/>
      <point x="581" y="857"/>
      <point x="581" y="904" type="curve" smooth="yes" name="sh01"/>
      <point x="581" y="988"/>
      <point x="631" y="1070"/>
      <point x="716" y="1102" type="curve" smooth="yes"/>
      <point x="739" y="1110" name="ab01"/>
      <point x="761" y="1115"/>
      <point x="788" y="1115" type="curve" smooth="yes" name="dh01"/>
      <point x="837" y="1115"/>
      <point x="876" y="1098" name="sv01"/>
      <point x="903" y="1069" type="curve" smooth="yes"/>
      <point x="931" y="1038" name="dh02"/>
      <point x="941" y="993"/>
      <point x="941" y="954" type="curve" smooth="yes" name="ab02"/>
      <point x="941" y="923"/>
      <point x="935" y="902"/>
      <point x="927" y="882" type="curve" smooth="yes" name="sh02"/>
      <point x="904" y="825"/>
      <point x="862" y="784"/>
      <point x="806" y="761" type="curve" smooth="yes"/>
      <point x="783" y="752"/>
      <point x="759" y="747"/>
    </contour>
    <contour>
      <point x="620" y="35" type="curve" smooth="yes"/>
      <point x="567" y="35"/>
      <point x="530" y="54"/>
      <point x="506" y="81" type="curve" smooth="yes"/>
      <point x="483" y="108"/>
      <point x="467" y="145"/>
      <point x="467" y="192" type="curve" smooth="yes"/>
      <point x="467" y="276"/>
      <point x="517" y="358"/>
      <point x="602" y="390" type="curve" smooth="yes" name="hr01"/>
      <point x="625" y="398"/>
      <point x="647" y="403"/>
      <point x="674" y="403" type="curve" smooth="yes"/>
      <point x="723" y="403"/>
      <point x="762" y="386"/>
      <point x="789" y="357" type="curve" smooth="yes"/>
      <point x="817" y="326"/>
      <point x="827" y="281"/>
      <point x="827" y="242" type="curve" smooth="yes"/>
      <point x="827" y="211"/>
      <point x="821" y="190"/>
      <point x="813" y="170" type="curve" smooth="yes"/>
      <point x="790" y="113"/>
      <point x="748" y="72"/>
      <point x="692" y="49" type="curve" smooth="yes"/>
      <point x="669" y="40"/>
      <point x="645" y="35"/>
    </contour>
  </outline>
</glyph>
<glyph name="equal" format="1">
  <advance width="1233"/>
  <unicode hex="003D"/>
  <outline>
    <contour>
      <point x="88" y="987" type="line" name="hr00"/>
      <point x="1145" y="987" type="line" name="dv04"/>
      <point x="1145" y="752" type="line" name="dv03"/>
      <point x="88" y="752" type="line"/>
    </contour>
    <contour>
      <point x="88" y="532" type="line"/>
      <point x="1145" y="532" type="line" name="dv02"/>
      <point x="1145" y="295" type="line" name="dv01"/>
      <point x="88" y="295" type="line"/>
    </contour>
  </outline>
</glyph>
<glyph name="at" format="1">
  <advance width="1233"/>
  <unicode hex="0040"/>
  <outline>
    <contour>
      <point x="599" y="-319" type="curve" smooth="yes" name="dv01"/>
      <point x="416" y="-319"/>
      <point x="262" y="-253" name="dh01"/>
      <point x="153" y="-128" type="curve" smooth="yes"/>
      <point x="41" y="0"/>
      <point x="-14" y="174"/>
      <point x="-14" y="387" type="curve" smooth="yes" name="dv04"/>
      <point x="-14" y="496"/>
      <point x="1" y="603" name="dh06"/>
      <point x="30" y="709" type="curve"/>
      <point x="61" y="817"/>
      <point x="105" y="919"/>
      <point x="158" y="1004" type="curve" smooth="yes"/>
      <point x="235" y="1127" name="ih01"/>
      <point x="329" y="1224"/>
      <point x="442" y="1293" type="curve" smooth="yes" name="dv05"/>
      <point x="550" y="1360"/>
      <point x="670" y="1395" name="dh03"/>
      <point x="799" y="1395" type="curve" smooth="yes"/>
      <point x="928" y="1395" name="dv08"/>
      <point x="1036" y="1360"/>
      <point x="1112" y="1293" type="curve" smooth="yes" name="ih02"/>
      <point x="1193" y="1221"/>
      <point x="1229" y="1126" name="dh05"/>
      <point x="1229" y="1023" type="curve" smooth="yes"/>
      <point x="1229" y="1006" name="dv03"/>
      <point x="1229" y="979"/>
      <point x="1226" y="960" type="curve"/>
      <point x="1225" y="947"/>
      <point x="1222" y="932" name="dh02"/>
      <point x="1214" y="892" type="curve" smooth="yes"/>
      <point x="1067" y="135" type="line" name="dv02"/>
      <point x="870" y="135" type="line"/>
      <point x="887" y="217" type="line"/>
      <point x="859" y="185"/>
      <point x="826" y="160"/>
      <point x="788" y="142" type="curve" smooth="yes"/>
      <point x="741" y="119" name="dv06"/>
      <point x="700" y="115"/>
      <point x="664" y="115" type="curve" smooth="yes"/>
      <point x="576" y="115"/>
      <point x="503" y="146" name="dv07"/>
      <point x="451" y="203" type="curve" smooth="yes"/>
      <point x="395" y="264" name="dh04"/>
      <point x="371" y="348"/>
      <point x="371" y="448" type="curve" smooth="yes"/>
      <point x="371" y="593"/>
      <point x="421" y="728" name="sh01"/>
      <point x="498" y="821" type="curve" smooth="yes"/>
      <point x="585" y="925"/>
      <point x="698" y="973"/>
      <point x="810" y="973" type="curve" smooth="yes"/>
      <point x="857" y="973"/>
      <point x="898" y="965"/>
      <point x="933" y="949" type="curve" smooth="yes"/>
      <point x="969" y="932"/>
      <point x="997" y="905"/>
      <point x="1014" y="877" type="curve"/>
      <point x="1021" y="900"/>
      <point x="1025" y="922"/>
      <point x="1028" y="945" type="curve" smooth="yes"/>
      <point x="1031" y="968"/>
      <point x="1032" y="989"/>
      <point x="1032" y="1004" type="curve" smooth="yes"/>
      <point x="1032" y="1071"/>
      <point x="1010" y="1120"/>
      <point x="971" y="1153" type="curve" smooth="yes"/>
      <point x="932" y="1186"/>
      <point x="874" y="1206"/>
      <point x="798" y="1206" type="curve" smooth="yes"/>
      <point x="721" y="1206"/>
      <point x="642" y="1186"/>
      <point x="566" y="1143" type="curve" smooth="yes"/>
      <point x="490" y="1100"/>
      <point x="424" y="1038"/>
      <point x="365" y="961" type="curve" smooth="yes"/>
      <point x="297" y="872"/>
      <point x="254" y="777"/>
      <point x="226" y="690" type="curve" smooth="yes"/>
      <point x="194" y="591"/>
      <point x="178" y="490"/>
      <point x="178" y="388" type="curve" smooth="yes"/>
      <point x="178" y="237"/>
      <point x="214" y="105"/>
      <point x="295" y="9" type="curve" smooth="yes"/>
      <point x="372" y="-83"/>
      <point x="481" y="-131"/>
      <point x="614" y="-131" type="curve" smooth="yes"/>
      <point x="667" y="-131"/>
      <point x="720" y="-123"/>
      <point x="774" y="-107" type="curve" smooth="yes"/>
      <point x="828" y="-91"/>
      <point x="882" y="-67"/>
      <point x="936" y="-35" type="curve"/>
      <point x="999" y="-209" type="line"/>
      <point x="929" y="-246"/>
      <point x="862" y="-274"/>
      <point x="797" y="-293" type="curve" smooth="yes"/>
      <point x="740" y="-309"/>
      <point x="671" y="-319"/>
    </contour>
    <contour>
      <point x="724" y="301" type="curve" smooth="yes"/>
      <point x="792" y="301"/>
      <point x="854" y="335"/>
      <point x="898" y="392" type="curve" smooth="yes"/>
      <point x="945" y="453"/>
      <point x="969" y="536"/>
      <point x="969" y="616" type="curve" smooth="yes"/>
      <point x="969" y="676"/>
      <point x="956" y="713"/>
      <point x="929" y="742" type="curve" smooth="yes"/>
      <point x="902" y="771"/>
      <point x="864" y="786"/>
      <point x="817" y="786" type="curve" smooth="yes"/>
      <point x="749" y="786"/>
      <point x="689" y="756"/>
      <point x="642" y="697" type="curve" smooth="yes"/>
      <point x="595" y="637"/>
      <point x="571" y="558"/>
      <point x="571" y="481" type="curve" smooth="yes"/>
      <point x="571" y="430"/>
      <point x="580" y="382"/>
      <point x="611" y="347" type="curve" smooth="yes"/>
      <point x="634" y="320"/>
      <point x="672" y="301"/>
    </contour>
  </outline>
</glyph>
<glyph name="B" format="1">
  <advance width="1233"/>
  <unicode hex="0042"/>
  <outline>
    <contour>
      <point x="-20" y="0" type="line"/>
      <point x="461" y="0" type="line" smooth="yes" name="ab01"/>
      <point x="590" y="0"/>
      <point x="694" y="10"/>
      <point x="771" y="30" type="curve" smooth="yes"/>
      <point x="848" y="50" name="dh02"/>
      <point x="912" y="82"/>
      <point x="961" y="127" type="curve" smooth="yes" name="ih02"/>
      <point x="1008" y="170"/>
      <point x="1044" y="224" name="sh01"/>
      <point x="1068" y="284" type="curve" smooth="yes"/>
      <point x="1093" y="347"/>
      <point x="1106" y="416" name="at01"/>
      <point x="1106" y="480" type="curve" smooth="yes"/>
      <point x="1106" y="568"/>
      <point x="1081" y="643" name="sv01"/>
      <point x="1029" y="696" type="curve" smooth="yes"/>
      <point x="978" y="748" name="ih01"/>
      <point x="901" y="779"/>
      <point x="813" y="786" type="curve" name="dv02"/>
      <point x="930" y="799"/>
      <point x="1020" y="838"/>
      <point x="1083" y="905" type="curve" smooth="yes" name="dv01"/>
      <point x="1146" y="972"/>
      <point x="1178" y="1058" name="dh01"/>
      <point x="1178" y="1164" type="curve" smooth="yes" name="hr01"/>
      <point x="1178" y="1274" name="sv02"/>
      <point x="1142" y="1357"/>
      <point x="1071" y="1412" type="curve" smooth="yes" name="sh02"/>
      <point x="998" y="1467"/>
      <point x="892" y="1495"/>
      <point x="752" y="1495" type="curve" smooth="yes"/>
      <point x="270" y="1495" type="line"/>
    </contour>
    <contour>
      <point x="442" y="913" type="line"/>
      <point x="510" y="1260" type="line"/>
      <point x="707" y="1260" type="line" smooth="yes"/>
      <point x="766" y="1260"/>
      <point x="811" y="1249"/>
      <point x="840" y="1228" type="curve" smooth="yes"/>
      <point x="869" y="1207"/>
      <point x="883" y="1176"/>
      <point x="883" y="1123" type="curve" smooth="yes"/>
      <point x="883" y="1054"/>
      <point x="861" y="1003"/>
      <point x="822" y="968" type="curve" smooth="yes"/>
      <point x="781" y="931"/>
      <point x="720" y="913"/>
      <point x="639" y="913" type="curve" smooth="yes"/>
    </contour>
    <contour>
      <point x="311" y="236" type="line"/>
      <point x="397" y="678" type="line"/>
      <point x="594" y="678" type="line" smooth="yes"/>
      <point x="668" y="678"/>
      <point x="723" y="664"/>
      <point x="758" y="637" type="curve" smooth="yes"/>
      <point x="793" y="610"/>
      <point x="811" y="573"/>
      <point x="811" y="501" type="curve" smooth="yes" name="hr02"/>
      <point x="811" y="418"/>
      <point x="787" y="348"/>
      <point x="738" y="303" type="curve" smooth="yes"/>
      <point x="689" y="258"/>
      <point x="613" y="236"/>
      <point x="508" y="236" type="curve" smooth="yes"/>
    </contour>
  </outline>
</glyph>
<glyph name="J" format="1">
  <advance width="1233"/>
  <unicode hex="004A"/>
  <outline>
    <contour>
      <point x="411" y="-29" type="curve" smooth="yes" name="dv01"/>
      <point x="338" y="-29"/>
      <point x="261" y="-20"/>
      <point x="192" y="-3" type="curve" smooth="yes"/>
      <point x="131" y="12"/>
      <point x="56" y="39" name="dv02"/>
      <point x="-20" y="78" type="curve"/>
      <point x="45" y="422" type="line"/>
      <point x="97" y="358" name="sv01"/>
      <point x="153" y="310"/>
      <point x="212" y="279" type="curve" smooth="yes" name="at01"/>
      <point x="271" y="247"/>
      <point x="335" y="231"/>
      <point x="406" y="231" type="curve" smooth="yes"/>
      <point x="481" y="231"/>
      <point x="537" y="249"/>
      <point x="575" y="285" type="curve" smooth="yes"/>
      <point x="614" y="321"/>
      <point x="640" y="382"/>
      <point x="659" y="479" type="curve" smooth="yes"/>
      <point x="807" y="1233" type="line"/>
      <point x="446" y="1233" type="line"/>
      <point x="498" y="1493" type="line"/>
      <point x="1153" y="1493" type="line"/>
      <point x="954" y="479" type="line" smooth="yes"/>
      <point x="931" y="362"/>
      <point x="907" y="280"/>
      <point x="880" y="223" type="curve" smooth="yes"/>
      <point x="853" y="167"/>
      <point x="819" y="121"/>
      <point x="772" y="82" type="curve" smooth="yes"/>
      <point x="725" y="43"/>
      <point x="673" y="18"/>
      <point x="614" y="-1" type="curve" smooth="yes"/>
      <point x="553" y="-20"/>
      <point x="484" y="-29"/>
    </contour>
  </outline>
</glyph>
<glyph name="L" format="1">
  <advance width="1233"/>
  <unicode hex="004C"/>
  <outline>
    <contour>
      <point x="371" y="1493" type="line" name="at01"/>
      <point x="666" y="1493" type="line"/>
      <point x="426" y="260" type="line" name="sv01"/>
      <point x="1057" y="260" type="line"/>
      <point x="1006" y="0" type="line" name="ab01"/>
      <point x="80" y="0" type="line"/>
    </contour>
  </outline>
</glyph>
<glyph name="P" format="1">
  <advance width="1233"/>
  <unicode hex="0050"/>
  <outline>
    <contour>
      <point x="305" y="1493" type="line" name="at01"/>
      <point x="725" y="1493" type="line" smooth="yes"/>
      <point x="882" y="1493"/>
      <point x="1002" y="1463" name="dh02"/>
      <point x="1085" y="1402" type="curve" smooth="yes"/>
      <point x="1169" y="1339"/>
      <point x="1208" y="1252"/>
      <point x="1208" y="1129" type="curve" smooth="yes" name="dv01"/>
      <point x="1208" y="1061"/>
      <point x="1196" y="985" name="ab01"/>
      <point x="1172" y="909" type="curve" smooth="yes"/>
      <point x="1147" y="830" name="dv02"/>
      <point x="1116" y="776"/>
      <point x="1077" y="731" type="curve" smooth="yes" name="dh01"/>
      <point x="1026" y="671"/>
      <point x="961" y="627" name="sv01"/>
      <point x="883" y="600" type="curve" smooth="yes"/>
      <point x="805" y="573"/>
      <point x="705" y="559"/>
      <point x="582" y="559" type="curve" smooth="yes" name="sh01"/>
      <point x="418" y="559" type="line"/>
      <point x="309" y="0" type="line"/>
      <point x="14" y="0" type="line"/>
    </contour>
    <contour>
      <point x="610" y="807" type="line" smooth="yes"/>
      <point x="710" y="807"/>
      <point x="782" y="832"/>
      <point x="829" y="875" type="curve" smooth="yes"/>
      <point x="877" y="920"/>
      <point x="901" y="990"/>
      <point x="901" y="1071" type="curve" smooth="yes"/>
      <point x="901" y="1136"/>
      <point x="884" y="1182"/>
      <point x="849" y="1207" type="curve" smooth="yes"/>
      <point x="814" y="1232"/>
      <point x="755" y="1245"/>
      <point x="672" y="1245" type="curve" smooth="yes"/>
      <point x="551" y="1245" type="line"/>
      <point x="467" y="807" type="line"/>
    </contour>
  </outline>
</glyph>
<glyph name="Q" format="1">
  <advance width="1233"/>
  <unicode hex="0051"/>
  <outline>
    <contour>
      <point x="535" y="-29" type="line" name="dv01"/>
      <point x="508" y="-29" type="line" smooth="yes"/>
      <point x="363" y="-29"/>
      <point x="252" y="14" name="sh01"/>
      <point x="176" y="95" type="curve" smooth="yes"/>
      <point x="96" y="182"/>
      <point x="61" y="305"/>
      <point x="61" y="474" type="curve" smooth="yes" name="at01"/>
      <point x="61" y="591"/>
      <point x="78" y="731" name="sh02"/>
      <point x="111" y="870" type="curve" smooth="yes"/>
      <point x="144" y="1009"/>
      <point x="191" y="1133"/>
      <point x="244" y="1226" type="curve" smooth="yes"/>
      <point x="295" y="1314" name="ih01"/>
      <point x="357" y="1390"/>
      <point x="448" y="1445" type="curve" smooth="yes" name="dv02"/>
      <point x="528" y="1493"/>
      <point x="623" y="1520"/>
      <point x="732" y="1520" type="curve" smooth="yes"/>
      <point x="873" y="1520"/>
      <point x="982" y="1476"/>
      <point x="1057" y="1397" type="curve" smooth="yes" name="ah02"/>
      <point x="1140" y="1309"/>
      <point x="1171" y="1192" name="sv01"/>
      <point x="1171" y="1024" type="curve" smooth="yes"/>
      <point x="1171" y="913"/>
      <point x="1157" y="778"/>
      <point x="1122" y="627" type="curve" smooth="yes"/>
      <point x="1091" y="494"/>
      <point x="1046" y="362" name="sh03"/>
      <point x="990" y="262" type="curve" smooth="yes"/>
      <point x="962" y="213"/>
      <point x="933" y="174" name="ah01"/>
      <point x="902" y="141" type="curve" smooth="yes" name="sh04"/>
      <point x="867" y="104"/>
      <point x="825" y="70"/>
      <point x="776" y="39" type="curve"/>
      <point x="1015" y="-281" type="line"/>
      <point x="671" y="-281" type="line"/>
    </contour>
    <contour>
      <point x="525" y="233" type="curve" smooth="yes"/>
      <point x="565" y="233"/>
      <point x="602" y="245"/>
      <point x="635" y="269" type="curve" smooth="yes"/>
      <point x="667" y="292"/>
      <point x="696" y="326"/>
      <point x="721" y="373" type="curve" smooth="yes"/>
      <point x="736" y="401"/>
      <point x="752" y="442"/>
      <point x="767" y="483" type="curve" smooth="yes"/>
      <point x="781" y="523"/>
      <point x="795" y="572"/>
      <point x="809" y="630" type="curve" smooth="yes"/>
      <point x="830" y="717"/>
      <point x="842" y="782"/>
      <point x="853" y="846" type="curve"/>
      <point x="863" y="912"/>
      <point x="868" y="970"/>
      <point x="868" y="1020" type="curve" smooth="yes"/>
      <point x="868" y="1101"/>
      <point x="855" y="1161"/>
      <point x="828" y="1200" type="curve" smooth="yes"/>
      <point x="801" y="1240"/>
      <point x="761" y="1260"/>
      <point x="708" y="1260" type="curve" smooth="yes"/>
      <point x="663" y="1260"/>
      <point x="626" y="1245"/>
      <point x="598" y="1225" type="curve" smooth="yes"/>
      <point x="566" y="1202"/>
      <point x="536" y="1165"/>
      <point x="512" y="1121" type="curve" smooth="yes"/>
      <point x="493" y="1088"/>
      <point x="482" y="1056"/>
      <point x="469" y="1017" type="curve" smooth="yes"/>
      <point x="450" y="960"/>
      <point x="443" y="932"/>
      <point x="424" y="860" type="curve"/>
      <point x="403" y="775"/>
      <point x="391" y="711"/>
      <point x="380" y="646" type="curve"/>
      <point x="370" y="579"/>
      <point x="365" y="520"/>
      <point x="365" y="471" type="curve" smooth="yes"/>
      <point x="365" y="390"/>
      <point x="378" y="331"/>
      <point x="405" y="292" type="curve" smooth="yes"/>
      <point x="433" y="251"/>
      <point x="474" y="233"/>
    </contour>
  </outline>
</glyph>
<glyph name="R" format="1">
  <advance width="1233"/>
  <unicode hex="0052"/>
  <outline>
    <contour>
      <point x="294" y="1493" type="line" name="at01"/>
      <point x="704" y="1493" type="line" smooth="yes"/>
      <point x="858" y="1493"/>
      <point x="973" y="1464" name="dh02"/>
      <point x="1048" y="1406" type="curve" smooth="yes"/>
      <point x="1120" y="1350" name="iv01"/>
      <point x="1160" y="1265"/>
      <point x="1160" y="1133" type="curve" smooth="yes"/>
      <point x="1160" y="1013" name="ih01"/>
      <point x="1127" y="914"/>
      <point x="1062" y="838" type="curve" smooth="yes"/>
      <point x="997" y="762"/>
      <point x="904" y="718" name="dv01"/>
      <point x="783" y="705" type="curve"/>
      <point x="823" y="699" name="ab01"/>
      <point x="855" y="684"/>
      <point x="878" y="660" type="curve" smooth="yes" name="dv02"/>
      <point x="901" y="636"/>
      <point x="921" y="595" name="dh01"/>
      <point x="939" y="537" type="curve" smooth="yes"/>
      <point x="1103" y="0" type="line" name="sv01"/>
      <point x="802" y="0" type="line"/>
      <point x="696" y="376" type="line"/>
      <point x="688" y="403" type="line" smooth="yes"/>
      <point x="647" y="538" name="sh01"/>
      <point x="599" y="590"/>
      <point x="530" y="590" type="curve" smooth="yes"/>
      <point x="413" y="590" type="line"/>
      <point x="298" y="0" type="line"/>
      <point x="3" y="0" type="line"/>
    </contour>
    <contour>
      <point x="585" y="838" type="line" smooth="yes"/>
      <point x="678" y="838"/>
      <point x="746" y="861"/>
      <point x="790" y="902" type="curve" smooth="yes"/>
      <point x="837" y="945"/>
      <point x="859" y="1009"/>
      <point x="859" y="1084" type="curve" smooth="yes"/>
      <point x="859" y="1141"/>
      <point x="844" y="1182"/>
      <point x="813" y="1207" type="curve" smooth="yes"/>
      <point x="782" y="1232"/>
      <point x="736" y="1245"/>
      <point x="675" y="1245" type="curve" smooth="yes"/>
      <point x="542" y="1245" type="line"/>
      <point x="462" y="838" type="line"/>
    </contour>
  </outline>
</glyph>
<glyph name="S" format="1">
  <advance width="1233"/>
  <unicode hex="0053"/>
  <outline>
    <contour>
      <point x="469" y="-29" type="curve" smooth="yes" name="sh03"/>
      <point x="392" y="-29"/>
      <point x="319" y="-20"/>
      <point x="243" y="-3" type="curve" smooth="yes"/>
      <point x="163" y="16"/>
      <point x="88" y="41" name="sh04"/>
      <point x="4" y="76" type="curve"/>
      <point x="63" y="381" type="line" name="ah02"/>
      <point x="128" y="326"/>
      <point x="190" y="289"/>
      <point x="266" y="258" type="curve" smooth="yes"/>
      <point x="337" y="230"/>
      <point x="403" y="215" name="sh01"/>
      <point x="479" y="215" type="curve" smooth="yes"/>
      <point x="567" y="215" name="sh05"/>
      <point x="637" y="235"/>
      <point x="688" y="274" type="curve" smooth="yes"/>
      <point x="739" y="313"/>
      <point x="764" y="364"/>
      <point x="764" y="429" type="curve" smooth="yes" name="sv01"/>
      <point x="764" y="476"/>
      <point x="752" y="511" name="sh02"/>
      <point x="729" y="540" type="curve" smooth="yes"/>
      <point x="706" y="570"/>
      <point x="671" y="595"/>
      <point x="625" y="614" type="curve" smooth="yes"/>
      <point x="506" y="664" type="line" smooth="yes" name="sh06"/>
      <point x="375" y="719"/>
      <point x="297" y="765"/>
      <point x="252" y="820" type="curve" smooth="yes" name="ah01"/>
      <point x="213" y="867" name="sh07"/>
      <point x="190" y="926"/>
      <point x="190" y="1021" type="curve" smooth="yes"/>
      <point x="190" y="1177"/>
      <point x="255" y="1298"/>
      <point x="351" y="1381" type="curve" smooth="yes"/>
      <point x="455" y="1470"/>
      <point x="599" y="1520"/>
      <point x="770" y="1520" type="curve" smooth="yes"/>
      <point x="834" y="1520"/>
      <point x="908" y="1513"/>
      <point x="971" y="1500" type="curve" smooth="yes"/>
      <point x="1034" y="1487"/>
      <point x="1099" y="1465"/>
      <point x="1159" y="1438" type="curve"/>
      <point x="1102" y="1153" type="line"/>
      <point x="1056" y="1195"/>
      <point x="1003" y="1226"/>
      <point x="943" y="1247" type="curve" smooth="yes"/>
      <point x="882" y="1268"/>
      <point x="812" y="1278"/>
      <point x="748" y="1278" type="curve" smooth="yes"/>
      <point x="656" y="1278"/>
      <point x="594" y="1257"/>
      <point x="549" y="1222" type="curve" smooth="yes"/>
      <point x="500" y="1183"/>
      <point x="475" y="1131"/>
      <point x="475" y="1087" type="curve" smooth="yes"/>
      <point x="475" y="1018"/>
      <point x="538" y="962"/>
      <point x="659" y="910" type="curve" smooth="yes"/>
      <point x="666" y="907" type="line"/>
      <point x="782" y="856" type="line" smooth="yes"/>
      <point x="882" y="812"/>
      <point x="952" y="760"/>
      <point x="996" y="700" type="curve" smooth="yes"/>
      <point x="1041" y="639"/>
      <point x="1063" y="566"/>
      <point x="1063" y="473" type="curve" smooth="yes"/>
      <point x="1063" y="330"/>
      <point x="1012" y="201"/>
      <point x="903" y="108" type="curve" smooth="yes"/>
      <point x="799" y="20"/>
      <point x="652" y="-29"/>
    </contour>
  </outline>
</glyph>
<glyph name="asciicircum" format="1">
  <advance width="1233"/>
  <unicode hex="005E"/>
  <outline>
    <contour>
      <point x="494" y="1493" type="line" name="at01"/>
      <point x="739" y="1493" type="line"/>
      <point x="1176" y="936" type="line" name="av01"/>
      <point x="934" y="936" type="line"/>
      <point x="616" y="1237" type="line"/>
      <point x="299" y="936" type="line" name="av02"/>
      <point x="57" y="936" type="line"/>
    </contour>
  </outline>
</glyph>
<glyph name="a" format="1">
  <advance width="1233"/>
  <unicode hex="0061"/>
  <outline>
    <contour>
      <point x="379" y="-29" type="curve" smooth="yes" name="dv01"/>
      <point x="279" y="-29"/>
      <point x="195" y="-2" name="dh01"/>
      <point x="135" y="58" type="curve" smooth="yes"/>
      <point x="72" y="119"/>
      <point x="47" y="204" name="dv04"/>
      <point x="47" y="300" type="curve" smooth="yes"/>
      <point x="47" y="436"/>
      <point x="99" y="548"/>
      <point x="203" y="624" type="curve" smooth="yes"/>
      <point x="306" y="699" name="sv01"/>
      <point x="456" y="737"/>
      <point x="651" y="737" type="curve" smooth="yes" name="ih01"/>
      <point x="844" y="737" type="line"/>
      <point x="852" y="786" type="line" smooth="yes"/>
      <point x="853" y="793" name="at01"/>
      <point x="854" y="797"/>
      <point x="854" y="798" type="curve"/>
      <point x="854" y="815" type="line" smooth="yes"/>
      <point x="854" y="853"/>
      <point x="837" y="882" name="ab01"/>
      <point x="803" y="902" type="curve" smooth="yes"/>
      <point x="769" y="922" name="iv01"/>
      <point x="720" y="932" name="ab02"/>
      <point x="657" y="932" type="curve" smooth="yes"/>
      <point x="600" y="932" name="dv02"/>
      <point x="538" y="923"/>
      <point x="470" y="904" type="curve" smooth="yes" name="dv03"/>
      <point x="403" y="885"/>
      <point x="335" y="859"/>
      <point x="248" y="819" type="curve" name="dh02"/>
      <point x="295" y="1069" type="line"/>
      <point x="372" y="1096"/>
      <point x="443" y="1115"/>
      <point x="509" y="1128" type="curve" smooth="yes"/>
      <point x="577" y="1141"/>
      <point x="637" y="1147"/>
      <point x="705" y="1147" type="curve" smooth="yes"/>
      <point x="844" y="1147"/>
      <point x="953" y="1122"/>
      <point x="1029" y="1071" type="curve" smooth="yes"/>
      <point x="1109" y="1018"/>
      <point x="1141" y="942"/>
      <point x="1141" y="845" type="curve" smooth="yes"/>
      <point x="1141" y="821"/>
      <point x="1139" y="793"/>
      <point x="1134" y="756" type="curve" smooth="yes"/>
      <point x="1129" y="717"/>
      <point x="1125" y="691"/>
      <point x="1114" y="639" type="curve"/>
      <point x="991" y="0" type="line"/>
      <point x="729" y="0" type="line"/>
      <point x="725" y="125" type="line"/>
      <point x="678" y="72"/>
      <point x="627" y="34"/>
      <point x="572" y="10" type="curve" smooth="yes"/>
      <point x="513" y="-17"/>
      <point x="447" y="-29"/>
    </contour>
    <contour>
      <point x="501" y="172" type="curve" smooth="yes"/>
      <point x="573" y="172"/>
      <point x="641" y="202"/>
      <point x="694" y="265" type="curve" smooth="yes"/>
      <point x="745" y="324"/>
      <point x="784" y="411"/>
      <point x="803" y="530" type="curve"/>
      <point x="690" y="530" type="line" smooth="yes"/>
      <point x="575" y="530"/>
      <point x="490" y="513"/>
      <point x="435" y="478" type="curve" smooth="yes"/>
      <point x="379" y="443"/>
      <point x="352" y="389"/>
      <point x="352" y="321" type="curve" smooth="yes"/>
      <point x="352" y="273"/>
      <point x="366" y="240"/>
      <point x="393" y="213" type="curve" smooth="yes"/>
      <point x="420" y="186"/>
      <point x="452" y="172"/>
    </contour>
  </outline>
</glyph>
<glyph name="b" format="1">
  <advance width="1233"/>
  <unicode hex="0062"/>
  <outline>
    <contour>
      <point x="651" y="-29" type="curve" smooth="yes" name="dv01"/>
      <point x="574" y="-29"/>
      <point x="515" y="-5" name="iv01"/>
      <point x="470" y="34" type="curve" smooth="yes" name="ab01"/>
      <point x="425" y="73"/>
      <point x="393" y="127" name="at01"/>
      <point x="381" y="207" type="curve"/>
      <point x="311" y="0" type="line" name="ih01"/>
      <point x="47" y="0" type="line"/>
      <point x="350" y="1556" type="line" name="at02"/>
      <point x="643" y="1556" type="line"/>
      <point x="524" y="952" type="line" name="sh01"/>
      <point x="566" y="1016"/>
      <point x="615" y="1065"/>
      <point x="670" y="1098" type="curve" smooth="yes"/>
      <point x="726" y="1131"/>
      <point x="785" y="1147" name="dv02"/>
      <point x="848" y="1147" type="curve" smooth="yes"/>
      <point x="943" y="1147" name="dh02"/>
      <point x="1024" y="1111"/>
      <point x="1081" y="1038" type="curve" smooth="yes" name="sv01"/>
      <point x="1141" y="962"/>
      <point x="1165" y="856" name="dh01"/>
      <point x="1165" y="732" type="curve" smooth="yes"/>
      <point x="1165" y="655"/>
      <point x="1155" y="566"/>
      <point x="1135" y="479" type="curve" smooth="yes"/>
      <point x="1118" y="407"/>
      <point x="1089" y="320"/>
      <point x="1049" y="244" type="curve" smooth="yes" name="hr01"/>
      <point x="1004" y="160"/>
      <point x="944" y="90"/>
      <point x="876" y="43" type="curve" smooth="yes"/>
      <point x="808" y="-4"/>
      <point x="730" y="-29"/>
    </contour>
    <contour>
      <point x="599" y="209" type="curve" smooth="yes"/>
      <point x="675" y="209"/>
      <point x="743" y="262"/>
      <point x="792" y="351" type="curve" smooth="yes"/>
      <point x="843" y="443"/>
      <point x="870" y="563"/>
      <point x="870" y="682" type="curve" smooth="yes"/>
      <point x="870" y="762"/>
      <point x="857" y="814"/>
      <point x="829" y="851" type="curve" smooth="yes"/>
      <point x="801" y="888"/>
      <point x="763" y="907"/>
      <point x="714" y="907" type="curve" smooth="yes"/>
      <point x="643" y="907"/>
      <point x="572" y="865"/>
      <point x="516" y="769" type="curve" smooth="yes"/>
      <point x="464" y="680"/>
      <point x="434" y="559"/>
      <point x="434" y="444" type="curve" smooth="yes"/>
      <point x="434" y="360"/>
      <point x="450" y="306"/>
      <point x="478" y="269" type="curve" smooth="yes"/>
      <point x="507" y="230"/>
      <point x="550" y="209"/>
    </contour>
  </outline>
</glyph>
<glyph name="d" format="1">
  <advance width="1233"/>
  <unicode hex="0064"/>
  <outline>
    <contour>
      <point x="382" y="-29" type="curve" smooth="yes" name="dv01"/>
      <point x="286" y="-29"/>
      <point x="209" y="8" name="dh01"/>
      <point x="152" y="81" type="curve" smooth="yes"/>
      <point x="95" y="154"/>
      <point x="66" y="251"/>
      <point x="66" y="386" type="curve" smooth="yes" name="dv04"/>
      <point x="66" y="466"/>
      <point x="76" y="552" name="iv01"/>
      <point x="97" y="639" type="curve" smooth="yes" name="at01"/>
      <point x="118" y="726"/>
      <point x="151" y="811" name="ab01"/>
      <point x="184" y="874" type="curve" smooth="yes"/>
      <point x="227" y="955" name="ih01"/>
      <point x="286" y="1025"/>
      <point x="358" y="1076" type="curve" smooth="yes"/>
      <point x="427" y="1125" name="dv02"/>
      <point x="502" y="1149"/>
      <point x="581" y="1149" type="curve" smooth="yes" name="sh01"/>
      <point x="655" y="1149"/>
      <point x="717" y="1128" name="dv03"/>
      <point x="766" y="1086" type="curve" smooth="yes"/>
      <point x="811" y="1047" name="dh02"/>
      <point x="843" y="988"/>
      <point x="854" y="911" type="curve"/>
      <point x="979" y="1556" type="line"/>
      <point x="1272" y="1556" type="line" name="hr01"/>
      <point x="969" y="0" type="line"/>
      <point x="707" y="0" type="line"/>
      <point x="709" y="166" type="line"/>
      <point x="665" y="102"/>
      <point x="616" y="54"/>
      <point x="561" y="21" type="curve" smooth="yes"/>
      <point x="506" y="-12"/>
      <point x="446" y="-29"/>
    </contour>
    <contour>
      <point x="517" y="211" type="curve" smooth="yes"/>
      <point x="593" y="211"/>
      <point x="660" y="257"/>
      <point x="716" y="350" type="curve" smooth="yes"/>
      <point x="772" y="443"/>
      <point x="799" y="557"/>
      <point x="799" y="674" type="curve" smooth="yes"/>
      <point x="799" y="762"/>
      <point x="783" y="811"/>
      <point x="754" y="850" type="curve" smooth="yes"/>
      <point x="724" y="889"/>
      <point x="684" y="909"/>
      <point x="634" y="909" type="curve" smooth="yes"/>
      <point x="559" y="909"/>
      <point x="495" y="862"/>
      <point x="442" y="768" type="curve" smooth="yes"/>
      <point x="389" y="672"/>
      <point x="362" y="553"/>
      <point x="362" y="436" type="curve" smooth="yes"/>
      <point x="362" y="351"/>
      <point x="376" y="304"/>
      <point x="404" y="267" type="curve" smooth="yes"/>
      <point x="432" y="230"/>
      <point x="470" y="211"/>
    </contour>
  </outline>
</glyph>
<glyph name="g" format="1">
  <advance width="1233"/>
  <unicode hex="0067"/>
  <outline>
    <contour>
      <point x="386" y="-424" type="curve" smooth="yes" name="ab01"/>
      <point x="320" y="-424"/>
      <point x="257" y="-419"/>
      <point x="196" y="-409" type="curve" smooth="yes" name="ih01"/>
      <point x="135" y="-398"/>
      <point x="77" y="-384" name="sv01"/>
      <point x="18" y="-365" type="curve"/>
      <point x="72" y="-100" type="line"/>
      <point x="123" y="-131" name="ih02"/>
      <point x="175" y="-153"/>
      <point x="230" y="-168" type="curve" smooth="yes" name="dv03"/>
      <point x="286" y="-183"/>
      <point x="341" y="-190" name="dh01"/>
      <point x="396" y="-190" type="curve" smooth="yes"/>
      <point x="484" y="-190"/>
      <point x="548" y="-171"/>
      <point x="595" y="-132" type="curve" smooth="yes" name="dv02"/>
      <point x="647" y="-89"/>
      <point x="672" y="-29" name="iv01"/>
      <point x="688" y="51" type="curve" smooth="yes" name="at01"/>
      <point x="715" y="184" type="line"/>
      <point x="679" y="129"/>
      <point x="635" y="87"/>
      <point x="584" y="59" type="curve" smooth="yes"/>
      <point x="533" y="30" name="dv04"/>
      <point x="474" y="16"/>
      <point x="409" y="16" type="curve" smooth="yes" name="sh01"/>
      <point x="308" y="16"/>
      <point x="226" y="48" name="dv01"/>
      <point x="161" y="121" type="curve" smooth="yes"/>
      <point x="97" y="193" name="dh02"/>
      <point x="68" y="282"/>
      <point x="68" y="407" type="curve" smooth="yes" name="hr01"/>
      <point x="68" y="494"/>
      <point x="82" y="588"/>
      <point x="110" y="683" type="curve" smooth="yes"/>
      <point x="141" y="784"/>
      <point x="180" y="865"/>
      <point x="225" y="932" type="curve" smooth="yes"/>
      <point x="272" y="1001"/>
      <point x="329" y="1054"/>
      <point x="396" y="1093" type="curve" smooth="yes"/>
      <point x="463" y="1132"/>
      <point x="531" y="1151"/>
      <point x="602" y="1151" type="curve" smooth="yes" name="hr02"/>
      <point x="672" y="1151"/>
      <point x="729" y="1133"/>
      <point x="774" y="1096" type="curve" smooth="yes"/>
      <point x="819" y="1059"/>
      <point x="848" y="1007"/>
      <point x="862" y="938" type="curve"/>
      <point x="926" y="1120" type="line"/>
      <point x="1190" y="1120" type="line"/>
      <point x="987" y="84" type="line" smooth="yes"/>
      <point x="952" y="-96"/>
      <point x="893" y="-228"/>
      <point x="796" y="-309" type="curve" smooth="yes"/>
      <point x="705" y="-386"/>
      <point x="568" y="-424"/>
    </contour>
    <contour>
      <point x="521" y="246" type="curve" smooth="yes"/>
      <point x="594" y="246"/>
      <point x="664" y="291"/>
      <point x="720" y="379" type="curve" smooth="yes"/>
      <point x="776" y="468"/>
      <point x="803" y="581"/>
      <point x="803" y="689" type="curve" smooth="yes"/>
      <point x="803" y="757"/>
      <point x="793" y="815"/>
      <point x="762" y="855" type="curve" smooth="yes"/>
      <point x="733" y="894"/>
      <point x="693" y="909"/>
      <point x="649" y="909" type="curve" smooth="yes"/>
      <point x="573" y="909"/>
      <point x="502" y="861"/>
      <point x="450" y="777" type="curve" smooth="yes"/>
      <point x="394" y="689"/>
      <point x="367" y="573"/>
      <point x="367" y="465" type="curve" smooth="yes"/>
      <point x="367" y="397"/>
      <point x="378" y="340"/>
      <point x="407" y="301" type="curve" smooth="yes"/>
      <point x="434" y="264"/>
      <point x="472" y="246"/>
    </contour>
  </outline>
</glyph>
<glyph name="i" format="1">
  <advance width="1233"/>
  <unicode hex="0069"/>
  <outline>
    <contour>
      <point x="615" y="1323" type="line" smooth="yes" name="dv01"/>
      <point x="596" y="1323"/>
      <point x="587" y="1331"/>
      <point x="587" y="1348" type="curve" smooth="yes"/>
      <point x="587" y="1351" name="dv02"/>
      <point x="587" y="1354"/>
      <point x="588" y="1356" type="curve" smooth="yes"/>
      <point x="644" y="1638" type="line" smooth="yes"/>
      <point x="647" y="1656"/>
      <point x="657" y="1665"/>
      <point x="676" y="1665" type="curve" smooth="yes" name="ab01"/>
      <point x="909" y="1665" type="line" smooth="yes"/>
      <point x="928" y="1665"/>
      <point x="937" y="1657"/>
      <point x="937" y="1640" type="curve" smooth="yes"/>
      <point x="937" y="1637" name="sv01"/>
      <point x="937" y="1634"/>
      <point x="936" y="1632" type="curve" smooth="yes" name="at01"/>
      <point x="880" y="1350" type="line" smooth="yes"/>
      <point x="877" y="1332"/>
      <point x="866" y="1323"/>
      <point x="848" y="1323" type="curve" smooth="yes"/>
    </contour>
    <contour>
      <point x="732" y="-8" type="line" smooth="yes"/>
      <point x="589" y="-8" name="sv02"/>
      <point x="499" y="10"/>
      <point x="442" y="49" type="curve"/>
      <point x="379" y="90"/>
      <point x="357" y="152"/>
      <point x="357" y="229" type="curve" smooth="yes"/>
      <point x="357" y="252"/>
      <point x="359" y="269"/>
      <point x="362" y="292" type="curve" smooth="yes"/>
      <point x="366" y="323"/>
      <point x="369" y="340"/>
      <point x="376" y="371" type="curve" smooth="yes"/>
      <point x="496" y="895" type="line"/>
      <point x="260" y="895" type="line"/>
      <point x="303" y="1120" type="line"/>
      <point x="831" y="1120" type="line"/>
      <point x="665" y="357" type="line"/>
      <point x="657" y="325"/>
      <point x="662" y="333"/>
      <point x="659" y="321" type="curve" smooth="yes"/>
      <point x="656" y="310"/>
      <point x="656" y="303"/>
      <point x="656" y="295" type="curve" smooth="yes"/>
      <point x="656" y="272"/>
      <point x="664" y="251"/>
      <point x="687" y="236" type="curve" smooth="yes"/>
      <point x="708" y="223"/>
      <point x="744" y="217"/>
      <point x="796" y="217" type="curve" smooth="yes"/>
      <point x="1074" y="217" type="line"/>
      <point x="1029" y="-8" type="line"/>
    </contour>
  </outline>
</glyph>
<glyph name="j" format="1">
  <advance width="1233"/>
  <unicode hex="006A"/>
  <outline>
    <contour>
      <point x="763" y="1323" type="line" smooth="yes" name="dv01"/>
      <point x="743" y="1323"/>
      <point x="732" y="1336"/>
      <point x="736" y="1356" type="curve" smooth="yes" name="dv02"/>
      <point x="791" y="1638" type="line" smooth="yes"/>
      <point x="794" y="1656"/>
      <point x="804" y="1665"/>
      <point x="823" y="1665" type="curve" smooth="yes"/>
      <point x="1056" y="1665" type="line" smooth="yes" name="sv01"/>
      <point x="1076" y="1665"/>
      <point x="1087" y="1652"/>
      <point x="1083" y="1632" type="curve" smooth="yes"/>
      <point x="1028" y="1350" type="line" smooth="yes" name="sv02"/>
      <point x="1025" y="1332"/>
      <point x="1014" y="1323" name="at01"/>
      <point x="996" y="1323" type="curve" smooth="yes"/>
    </contour>
    <contour>
      <point x="22" y="-199" type="line"/>
      <point x="253" y="-199" type="line" smooth="yes"/>
      <point x="320" y="-199"/>
      <point x="370" y="-181"/>
      <point x="404" y="-146" type="curve" smooth="yes" name="ab01"/>
      <point x="443" y="-106"/>
      <point x="464" y="-38"/>
      <point x="480" y="43" type="curve" smooth="yes"/>
      <point x="646" y="895" type="line"/>
      <point x="349" y="895" type="line"/>
      <point x="392" y="1120" type="line"/>
      <point x="982" y="1120" type="line"/>
      <point x="773" y="43" type="line"/>
      <point x="746" y="-90"/>
      <point x="727" y="-154"/>
      <point x="709" y="-196" type="curve" smooth="yes"/>
      <point x="689" y="-243"/>
      <point x="663" y="-283"/>
      <point x="632" y="-314" type="curve" smooth="yes"/>
      <point x="592" y="-354"/>
      <point x="543" y="-381"/>
      <point x="491" y="-398" type="curve" smooth="yes"/>
      <point x="438" y="-415"/>
      <point x="372" y="-424"/>
      <point x="284" y="-424" type="curve" smooth="yes"/>
      <point x="-23" y="-424" type="line"/>
    </contour>
  </outline>
</glyph>
<glyph name="l" format="1">
  <advance width="1233"/>
  <unicode hex="006C"/>
  <outline>
    <contour>
      <point x="690" y="-10" type="line" smooth="yes" name="ab01"/>
      <point x="547" y="-10"/>
      <point x="457" y="8"/>
      <point x="400" y="47" type="curve" smooth="yes"/>
      <point x="345" y="83"/>
      <point x="315" y="139" name="sv01"/>
      <point x="315" y="226" type="curve" smooth="yes"/>
      <point x="315" y="249" name="at01"/>
      <point x="317" y="270"/>
      <point x="320" y="290" type="curve"/>
      <point x="323" y="303"/>
      <point x="327" y="340"/>
      <point x="334" y="369" type="curve"/>
      <point x="537" y="1331" type="line" name="sv02"/>
      <point x="231" y="1331" type="line" name="sv03"/>
      <point x="274" y="1556" type="line" name="ab02"/>
      <point x="872" y="1556" type="line"/>
      <point x="623" y="355" type="line"/>
      <point x="615" y="323"/>
      <point x="620" y="329"/>
      <point x="617" y="319" type="curve" smooth="yes"/>
      <point x="614" y="308"/>
      <point x="614" y="301"/>
      <point x="614" y="293" type="curve" smooth="yes"/>
      <point x="614" y="270"/>
      <point x="622" y="249"/>
      <point x="645" y="234" type="curve" smooth="yes"/>
      <point x="666" y="221"/>
      <point x="702" y="215"/>
      <point x="754" y="215" type="curve" smooth="yes"/>
      <point x="1032" y="215" type="line"/>
      <point x="987" y="-10" type="line"/>
    </contour>
  </outline>
</glyph>
<glyph name="n" format="1">
  <advance width="1233"/>
  <unicode hex="006E"/>
  <outline>
    <contour>
      <point x="276" y="1120" type="line" name="at01"/>
      <point x="540" y="1120" type="line"/>
      <point x="537" y="952" type="line" name="iv01"/>
      <point x="570" y="1016"/>
      <point x="617" y="1064" name="at02"/>
      <point x="669" y="1096" type="curve" smooth="yes"/>
      <point x="724" y="1130" name="dh02"/>
      <point x="786" y="1147" name="sh01"/>
      <point x="857" y="1147" type="curve" smooth="yes"/>
      <point x="938" y="1147" name="ab01"/>
      <point x="1004" y="1125"/>
      <point x="1051" y="1078" type="curve" smooth="yes"/>
      <point x="1095" y="1034" name="sh02"/>
      <point x="1120" y="969" name="dh01"/>
      <point x="1120" y="880" type="curve" smooth="yes"/>
      <point x="1120" y="861" name="sv01"/>
      <point x="1119" y="838"/>
      <point x="1116" y="813" type="curve"/>
      <point x="1113" y="797" name="ab02"/>
      <point x="1109" y="759"/>
      <point x="1102" y="728" type="curve"/>
      <point x="961" y="0" type="line" name="sh03"/>
      <point x="668" y="0" type="line"/>
      <point x="801" y="682" type="line" smooth="yes"/>
      <point x="806" y="709"/>
      <point x="808" y="728"/>
      <point x="809" y="735" type="curve" smooth="yes"/>
      <point x="810" y="752"/>
      <point x="811" y="770"/>
      <point x="811" y="783" type="curve" smooth="yes"/>
      <point x="811" y="822"/>
      <point x="803" y="854"/>
      <point x="782" y="877" type="curve" smooth="yes"/>
      <point x="763" y="897"/>
      <point x="735" y="907"/>
      <point x="699" y="907" type="curve" smooth="yes"/>
      <point x="644" y="907"/>
      <point x="597" y="883"/>
      <point x="558" y="835" type="curve" smooth="yes"/>
      <point x="518" y="786"/>
      <point x="490" y="718"/>
      <point x="473" y="629" type="curve" smooth="yes"/>
      <point x="352" y="0" type="line" name="hr01"/>
      <point x="59" y="0" type="line"/>
    </contour>
  </outline>
</glyph>
<glyph name="q" format="1">
  <advance width="1233"/>
  <unicode hex="0071"/>
  <outline>
    <contour>
      <point x="594" y="-426" type="line"/>
      <point x="885" y="-426" type="line" name="ab01"/>
      <point x="1186" y="1120" type="line"/>
      <point x="922" y="1120" type="line" name="at01"/>
      <point x="854" y="911" type="line" name="iv01"/>
      <point x="842" y="990"/>
      <point x="808" y="1048" name="dv02"/>
      <point x="764" y="1087" type="curve" smooth="yes"/>
      <point x="720" y="1126"/>
      <point x="656" y="1149"/>
      <point x="580" y="1149" type="curve" smooth="yes" name="dh01"/>
      <point x="502" y="1149"/>
      <point x="428" y="1125" name="dv03"/>
      <point x="359" y="1077" type="curve" smooth="yes"/>
      <point x="287" y="1026" name="ih01"/>
      <point x="234" y="959"/>
      <point x="187" y="874" type="curve" smooth="yes"/>
      <point x="149" y="803" name="dh02"/>
      <point x="120" y="725"/>
      <point x="99" y="639" type="curve" smooth="yes" name="dv01"/>
      <point x="78" y="552"/>
      <point x="68" y="464" name="sh01"/>
      <point x="68" y="387" type="curve" smooth="yes"/>
      <point x="68" y="258" name="dv04"/>
      <point x="96" y="154"/>
      <point x="153" y="81" type="curve" smooth="yes"/>
      <point x="210" y="8"/>
      <point x="292" y="-29"/>
      <point x="385" y="-29" type="curve" smooth="yes"/>
      <point x="448" y="-29"/>
      <point x="508" y="-12"/>
      <point x="563" y="21" type="curve" smooth="yes"/>
      <point x="618" y="54"/>
      <point x="666" y="102"/>
      <point x="709" y="166" type="curve"/>
    </contour>
    <contour>
      <point x="519" y="211" type="curve" smooth="yes"/>
      <point x="468" y="211"/>
      <point x="432" y="231"/>
      <point x="404" y="268" type="curve" smooth="yes"/>
      <point x="376" y="305"/>
      <point x="362" y="351"/>
      <point x="362" y="436" type="curve" smooth="yes"/>
      <point x="362" y="553"/>
      <point x="389" y="672"/>
      <point x="442" y="768" type="curve" smooth="yes"/>
      <point x="495" y="862"/>
      <point x="559" y="909"/>
      <point x="634" y="909" type="curve" smooth="yes"/>
      <point x="684" y="909"/>
      <point x="724" y="889"/>
      <point x="754" y="850" type="curve" smooth="yes"/>
      <point x="787" y="807"/>
      <point x="799" y="753"/>
      <point x="799" y="674" type="curve" smooth="yes" name="hr02"/>
      <point x="799" y="554"/>
      <point x="772" y="442"/>
      <point x="717" y="350" type="curve" smooth="yes"/>
      <point x="662" y="257"/>
      <point x="596" y="211"/>
    </contour>
  </outline>
</glyph>
<glyph name="u" format="1">
  <advance width="1233"/>
  <unicode hex="0075"/>
  <outline>
    <contour>
      <point x="372" y="-29" type="curve" smooth="yes" name="dv01"/>
      <point x="287" y="-29"/>
      <point x="221" y="-5" name="dh01"/>
      <point x="175" y="42" type="curve" smooth="yes" name="sh01"/>
      <point x="129" y="89"/>
      <point x="106" y="156" name="at01"/>
      <point x="106" y="244" type="curve" smooth="yes"/>
      <point x="106" y="263"/>
      <point x="107" y="284"/>
      <point x="110" y="308" type="curve" smooth="yes" name="dh02"/>
      <point x="111" y="312"/>
      <point x="115" y="352" name="dv02"/>
      <point x="123" y="391" type="curve" smooth="yes"/>
      <point x="266" y="1120" type="line"/>
      <point x="557" y="1120" type="line" name="at02"/>
      <point x="426" y="436" type="line" smooth="yes"/>
      <point x="423" y="419" name="ab01"/>
      <point x="422" y="406"/>
      <point x="419" y="383" type="curve" smooth="yes" name="iv01"/>
      <point x="416" y="362"/>
      <point x="416" y="351"/>
      <point x="416" y="336" type="curve" smooth="yes" name="hr02"/>
      <point x="416" y="289"/>
      <point x="426" y="264"/>
      <point x="445" y="243" type="curve" smooth="yes"/>
      <point x="462" y="224"/>
      <point x="486" y="211"/>
      <point x="529" y="211" type="curve" smooth="yes"/>
      <point x="588" y="211"/>
      <point x="632" y="235"/>
      <point x="668" y="282" type="curve" smooth="yes"/>
      <point x="707" y="331"/>
      <point x="735" y="400"/>
      <point x="752" y="489" type="curve" smooth="yes"/>
      <point x="874" y="1120" type="line"/>
      <point x="1165" y="1120" type="line"/>
      <point x="948" y="0" type="line"/>
      <point x="684" y="0" type="line"/>
      <point x="688" y="166" type="line"/>
      <point x="656" y="99"/>
      <point x="612" y="57"/>
      <point x="559" y="24" type="curve" smooth="yes"/>
      <point x="498" y="-15"/>
      <point x="439" y="-29"/>
    </contour>
  </outline>
</glyph>
<glyph name="exclamdown" format="1">
  <advance width="1233"/>
  <unicode hex="00A1"/>
  <outline>
    <contour>
      <point x="696" y="1198" type="curve" smooth="yes" name="sv01"/>
      <point x="645" y="1198"/>
      <point x="610" y="1217" name="dh01"/>
      <point x="587" y="1241" type="curve" name="at01"/>
      <point x="558" y="1274" name="at02"/>
      <point x="549" y="1318"/>
      <point x="549" y="1353" type="curve" smooth="yes" name="dh02"/>
      <point x="549" y="1437"/>
      <point x="603" y="1514"/>
      <point x="681" y="1544" type="curve" smooth="yes"/>
      <point x="703" y="1552"/>
      <point x="727" y="1556"/>
      <point x="754" y="1556" type="curve" smooth="yes"/>
      <point x="811" y="1556"/>
      <point x="843" y="1533" name="ab01"/>
      <point x="864" y="1510" type="curve" smooth="yes"/>
      <point x="891" y="1479"/>
      <point x="901" y="1443"/>
      <point x="901" y="1403" type="curve" smooth="yes"/>
      <point x="901" y="1375"/>
      <point x="895" y="1348"/>
      <point x="887" y="1329" type="curve" smooth="yes"/>
      <point x="866" y="1277"/>
      <point x="826" y="1234"/>
      <point x="770" y="1211" type="curve" smooth="yes"/>
      <point x="748" y="1202"/>
      <point x="723" y="1198"/>
    </contour>
    <contour>
      <point x="455" y="655" type="line"/>
      <point x="567" y="1012" type="line"/>
      <point x="766" y="1012" type="line"/>
      <point x="741" y="655" type="line"/>
      <point x="614" y="0" type="line"/>
      <point x="328" y="0" type="line"/>
    </contour>
  </outline>
</glyph>
<glyph name="cent" format="1">
  <advance width="1233"/>
  <unicode hex="00A2"/>
  <outline>
    <contour>
      <point x="506" y="-25" type="line" name="hr00"/>
      <point x="376" y="-10"/>
      <point x="277" y="37" name="dh01"/>
      <point x="208" y="116" type="curve" smooth="yes"/>
      <point x="139" y="196"/>
      <point x="104" y="298"/>
      <point x="104" y="438" type="curve" smooth="yes"/>
      <point x="104" y="541" name="av01"/>
      <point x="123" y="635"/>
      <point x="159" y="727" type="curve"/>
      <point x="198" y="823"/>
      <point x="252" y="907"/>
      <point x="315" y="971" type="curve" smooth="yes" name="iv01"/>
      <point x="364" y="1022"/>
      <point x="424" y="1067"/>
      <point x="503" y="1099" type="curve" smooth="yes" name="iv02"/>
      <point x="571" y="1127"/>
      <point x="649" y="1144" name="iv03"/>
      <point x="733" y="1145" type="curve"/>
      <point x="788" y="1432" type="line"/>
      <point x="930" y="1432" type="line"/>
      <point x="875" y="1145" type="line" name="av02"/>
      <point x="911" y="1142"/>
      <point x="950" y="1136" name="iv04"/>
      <point x="985" y="1125" type="curve" smooth="yes"/>
      <point x="1023" y="1114" name="dh02"/>
      <point x="1062" y="1098"/>
      <point x="1102" y="1077" type="curve"/>
      <point x="1049" y="813" type="line"/>
      <point x="1018" y="840"/>
      <point x="984" y="862"/>
      <point x="949" y="877" type="curve" smooth="yes"/>
      <point x="914" y="892"/>
      <point x="875" y="902"/>
      <point x="830" y="907" type="curve"/>
      <point x="695" y="215" type="line"/>
      <point x="738" y="218"/>
      <point x="781" y="228"/>
      <point x="824" y="243" type="curve" smooth="yes"/>
      <point x="869" y="259"/>
      <point x="909" y="280"/>
      <point x="952" y="307" type="curve"/>
      <point x="901" y="43" type="line"/>
      <point x="860" y="22"/>
      <point x="819" y="6"/>
      <point x="776" y="-5" type="curve" smooth="yes"/>
      <point x="733" y="-16"/>
      <point x="690" y="-23"/>
      <point x="647" y="-25" type="curve"/>
      <point x="592" y="-313" type="line"/>
      <point x="451" y="-313" type="line"/>
    </contour>
    <contour>
      <point x="688" y="907" type="line"/>
      <point x="597" y="897"/>
      <point x="521" y="849"/>
      <point x="459" y="762" type="curve" smooth="yes"/>
      <point x="398" y="677"/>
      <point x="365" y="576"/>
      <point x="365" y="463" type="curve" smooth="yes"/>
      <point x="365" y="383"/>
      <point x="382" y="329"/>
      <point x="417" y="285" type="curve" smooth="yes"/>
      <point x="450" y="242"/>
      <point x="492" y="218"/>
      <point x="552" y="215" type="curve"/>
    </contour>
  </outline>
</glyph>
<glyph name="sterling" format="1">
  <advance width="1233"/>
  <unicode hex="00A3"/>
  <outline>
    <contour>
      <point x="29" y="260" type="line" name="sv01"/>
      <point x="264" y="260" type="line"/>
      <point x="328" y="594" type="line" name="dv01"/>
      <point x="129" y="594" type="line"/>
      <point x="174" y="819" type="line"/>
      <point x="373" y="819" type="line" name="dv02"/>
      <point x="410" y="1016" type="line" smooth="yes"/>
      <point x="445" y="1199"/>
      <point x="505" y="1325" name="at01"/>
      <point x="589" y="1402" type="curve"/>
      <point x="674" y="1482"/>
      <point x="799" y="1520" name="iv01"/>
      <point x="952" y="1520" type="curve" smooth="yes"/>
      <point x="1005" y="1520" name="sv02"/>
      <point x="1055" y="1515"/>
      <point x="1102" y="1504" type="curve" smooth="yes"/>
      <point x="1151" y="1493" name="sv03"/>
      <point x="1198" y="1477"/>
      <point x="1245" y="1456" type="curve" name="sv04"/>
      <point x="1192" y="1190" type="line"/>
      <point x="1153" y="1217" name="sv05"/>
      <point x="1108" y="1240" name="sv06"/>
      <point x="1073" y="1252" type="curve" smooth="yes" name="ab01"/>
      <point x="1038" y="1264"/>
      <point x="993" y="1272"/>
      <point x="952" y="1272" type="curve" smooth="yes"/>
      <point x="882" y="1272"/>
      <point x="826" y="1250"/>
      <point x="784" y="1205" type="curve" smooth="yes"/>
      <point x="743" y="1161"/>
      <point x="711" y="1094"/>
      <point x="692" y="995" type="curve" smooth="yes"/>
      <point x="659" y="819" type="line"/>
      <point x="995" y="819" type="line"/>
      <point x="952" y="594" type="line"/>
      <point x="614" y="594" type="line"/>
      <point x="551" y="260" type="line"/>
      <point x="1032" y="260" type="line"/>
      <point x="981" y="0" type="line"/>
      <point x="-23" y="0" type="line"/>
    </contour>
  </outline>
</glyph>
<glyph name="yen" format="1">
  <advance width="1233"/>
  <unicode hex="00A5"/>
  <outline>
    <contour>
      <point x="383" y="438" type="line" name="dv01"/>
      <point x="-29" y="438" type="line"/>
      <point x="8" y="627" type="line"/>
      <point x="416" y="627" type="line" name="dv02"/>
      <point x="358" y="778" type="line" name="dv03"/>
      <point x="37" y="778" type="line"/>
      <point x="74" y="965" type="line"/>
      <point x="297" y="965" type="line" name="dv04"/>
      <point x="127" y="1493" type="line" name="at01"/>
      <point x="444" y="1493" type="line"/>
      <point x="618" y="893" type="line" name="iv01"/>
      <point x="1026" y="1493" type="line" name="at02"/>
      <point x="1343" y="1493" type="line"/>
      <point x="969" y="965" type="line" name="sv01"/>
      <point x="1192" y="965" type="line"/>
      <point x="1155" y="778" type="line" name="sv02"/>
      <point x="834" y="778" type="line"/>
      <point x="719" y="627" type="line" name="sv03"/>
      <point x="1126" y="627" type="line"/>
      <point x="1090" y="438" type="line" name="sv04"/>
      <point x="678" y="438" type="line"/>
      <point x="592" y="0" type="line" name="ab01"/>
      <point x="299" y="0" type="line"/>
    </contour>
  </outline>
</glyph>
<glyph name="section" format="1">
  <advance width="1233"/>
  <unicode hex="00A7"/>
  <outline>
    <contour>
      <point x="458" y="-195" type="curve" smooth="yes" name="dv01"/>
      <point x="405" y="-195"/>
      <point x="350" y="-190"/>
      <point x="291" y="-180" type="curve" smooth="yes"/>
      <point x="230" y="-170" name="sh02"/>
      <point x="168" y="-155" name="dv02"/>
      <point x="104" y="-135" type="curve"/>
      <point x="150" y="94" type="line" name="ah02"/>
      <point x="197" y="73"/>
      <point x="246" y="56"/>
      <point x="303" y="44" type="curve" smooth="yes"/>
      <point x="358" y="33"/>
      <point x="408" y="27"/>
      <point x="453" y="27" type="curve" smooth="yes"/>
      <point x="514" y="27" name="ih01"/>
      <point x="559" y="38"/>
      <point x="590" y="61" type="curve" smooth="yes" name="sh01"/>
      <point x="621" y="84"/>
      <point x="637" y="119" name="at01"/>
      <point x="637" y="151" type="curve" smooth="yes" name="sh05"/>
      <point x="637" y="203"/>
      <point x="596" y="253"/>
      <point x="485" y="328" type="curve" smooth="yes" name="sh06"/>
      <point x="467" y="340" type="line" name="sv01"/>
      <point x="367" y="408" type="line" smooth="yes"/>
      <point x="298" y="455" name="sh03"/>
      <point x="250" y="491"/>
      <point x="218" y="538" type="curve" smooth="yes"/>
      <point x="194" y="573"/>
      <point x="178" y="613"/>
      <point x="178" y="669" type="curve" smooth="yes"/>
      <point x="178" y="732"/>
      <point x="198" y="789" name="ih02"/>
      <point x="239" y="840" type="curve" smooth="yes"/>
      <point x="279" y="891" name="sh04"/>
      <point x="338" y="934"/>
      <point x="414" y="967" type="curve"/>
      <point x="380" y="994"/>
      <point x="355" y="1024"/>
      <point x="339" y="1057" type="curve" smooth="yes"/>
      <point x="323" y="1090"/>
      <point x="315" y="1125"/>
      <point x="315" y="1172" type="curve" smooth="yes" name="sh07"/>
      <point x="315" y="1275"/>
      <point x="354" y="1358"/>
      <point x="433" y="1423" type="curve" smooth="yes"/>
      <point x="508" y="1484"/>
      <point x="606" y="1520"/>
      <point x="739" y="1520" type="curve" smooth="yes"/>
      <point x="788" y="1520" name="sh08"/>
      <point x="839" y="1515"/>
      <point x="892" y="1505" type="curve" smooth="yes"/>
      <point x="946" y="1495" name="ah01"/>
      <point x="1002" y="1480"/>
      <point x="1059" y="1460" type="curve"/>
      <point x="1014" y="1231" type="line"/>
      <point x="969" y="1254"/>
      <point x="921" y="1271"/>
      <point x="881" y="1282" type="curve" smooth="yes"/>
      <point x="837" y="1293"/>
      <point x="793" y="1298"/>
      <point x="753" y="1298" type="curve" smooth="yes"/>
      <point x="695" y="1298"/>
      <point x="651" y="1287"/>
      <point x="620" y="1264" type="curve" smooth="yes"/>
      <point x="589" y="1241"/>
      <point x="573" y="1209"/>
      <point x="573" y="1169" type="curve" smooth="yes"/>
      <point x="573" y="1140"/>
      <point x="583" y="1113"/>
      <point x="604" y="1090" type="curve" smooth="yes"/>
      <point x="631" y="1059"/>
      <point x="674" y="1029"/>
      <point x="743" y="985" type="curve" smooth="yes"/>
      <point x="848" y="918" type="line" smooth="yes"/>
      <point x="911" y="878"/>
      <point x="959" y="836"/>
      <point x="990" y="791" type="curve" smooth="yes"/>
      <point x="1021" y="748"/>
      <point x="1032" y="704"/>
      <point x="1032" y="656" type="curve" smooth="yes"/>
      <point x="1032" y="599"/>
      <point x="1014" y="545"/>
      <point x="977" y="496" type="curve" smooth="yes"/>
      <point x="938" y="445"/>
      <point x="883" y="399"/>
      <point x="807" y="354" type="curve"/>
      <point x="839" y="323"/>
      <point x="861" y="291"/>
      <point x="874" y="260" type="curve" smooth="yes"/>
      <point x="888" y="227"/>
      <point x="895" y="190"/>
      <point x="895" y="149" type="curve" smooth="yes"/>
      <point x="895" y="46"/>
      <point x="853" y="-40"/>
      <point x="776" y="-101" type="curve" smooth="yes"/>
      <point x="700" y="-161"/>
      <point x="591" y="-195"/>
    </contour>
    <contour>
      <point x="682" y="451" type="curve"/>
      <point x="719" y="476"/>
      <point x="748" y="504"/>
      <point x="770" y="534" type="curve" smooth="yes"/>
      <point x="793" y="566"/>
      <point x="801" y="592"/>
      <point x="801" y="619" type="curve" smooth="yes"/>
      <point x="801" y="642"/>
      <point x="795" y="664"/>
      <point x="782" y="685" type="curve" smooth="yes"/>
      <point x="770" y="705"/>
      <point x="752" y="725"/>
      <point x="729" y="741" type="curve" smooth="yes"/>
      <point x="649" y="795" type="line"/>
      <point x="646" y="795"/>
      <point x="633" y="806"/>
      <point x="608" y="823" type="curve" smooth="yes"/>
      <point x="530" y="877" type="line"/>
      <point x="491" y="849"/>
      <point x="461" y="817"/>
      <point x="441" y="789" type="curve" smooth="yes"/>
      <point x="418" y="757"/>
      <point x="410" y="731"/>
      <point x="410" y="704" type="curve" smooth="yes"/>
      <point x="410" y="681"/>
      <point x="416" y="659"/>
      <point x="428" y="639" type="curve" smooth="yes"/>
      <point x="440" y="619"/>
      <point x="458" y="601"/>
      <point x="483" y="584" type="curve" smooth="yes"/>
      <point x="561" y="530" type="line"/>
      <point x="612" y="496" type="line" smooth="yes"/>
      <point x="651" y="470"/>
      <point x="654" y="468"/>
    </contour>
  </outline>
</glyph>
<glyph name="copyright" format="1">
  <advance width="1233"/>
  <unicode hex="00A9"/>
  <outline>
    <contour>
      <point x="616" y="125" type="curve" smooth="yes" name="dv01"/>
      <point x="528" y="125"/>
      <point x="454" y="140"/>
      <point x="382" y="171" type="curve" smooth="yes"/>
      <point x="309" y="202" name="dh01"/>
      <point x="240" y="248"/>
      <point x="181" y="307" type="curve" smooth="yes"/>
      <point x="125" y="363"/>
      <point x="76" y="433" name="dv04"/>
      <point x="45" y="508" type="curve" smooth="yes"/>
      <point x="15" y="579"/>
      <point x="0" y="656"/>
      <point x="0" y="741" type="curve" smooth="yes" name="dh06"/>
      <point x="0" y="825"/>
      <point x="15" y="904"/>
      <point x="46" y="977" type="curve" smooth="yes"/>
      <point x="77" y="1049"/>
      <point x="121" y="1115" name="dv02"/>
      <point x="182" y="1178" type="curve" smooth="yes"/>
      <point x="245" y="1242"/>
      <point x="312" y="1285"/>
      <point x="381" y="1313" type="curve" smooth="yes" name="dh05"/>
      <point x="454" y="1343"/>
      <point x="532" y="1358"/>
      <point x="616" y="1358" type="curve" smooth="yes"/>
      <point x="700" y="1358" name="dv03"/>
      <point x="779" y="1343"/>
      <point x="852" y="1313" type="curve" smooth="yes"/>
      <point x="928" y="1282"/>
      <point x="995" y="1235" name="dh02"/>
      <point x="1051" y="1178" type="curve" smooth="yes"/>
      <point x="1116" y="1111"/>
      <point x="1160" y="1041"/>
      <point x="1187" y="977" type="curve" smooth="yes"/>
      <point x="1218" y="905" name="dv05"/>
      <point x="1233" y="827"/>
      <point x="1233" y="742" type="curve" smooth="yes" name="dh03"/>
      <point x="1233" y="657"/>
      <point x="1218" y="579" name="dv08"/>
      <point x="1188" y="508" type="curve" smooth="yes"/>
      <point x="1159" y="439"/>
      <point x="1112" y="367" name="ih01"/>
      <point x="1052" y="307" type="curve" smooth="yes"/>
      <point x="996" y="251" name="dv07"/>
      <point x="927" y="203"/>
      <point x="851" y="171" type="curve" smooth="yes" name="dh04"/>
      <point x="779" y="140"/>
      <point x="701" y="125" name="dv06"/>
    </contour>
    <contour>
      <point x="616" y="256" type="curve" smooth="yes" name="ih02"/>
      <point x="684" y="256"/>
      <point x="741" y="266"/>
      <point x="802" y="293" type="curve" smooth="yes"/>
      <point x="853" y="316"/>
      <point x="907" y="349" name="sh01"/>
      <point x="958" y="400" type="curve" smooth="yes"/>
      <point x="1003" y="445"/>
      <point x="1042" y="501"/>
      <point x="1066" y="558" type="curve" smooth="yes"/>
      <point x="1090" y="615"/>
      <point x="1102" y="676"/>
      <point x="1102" y="743" type="curve" smooth="yes"/>
      <point x="1102" y="815"/>
      <point x="1089" y="871"/>
      <point x="1066" y="927" type="curve" smooth="yes"/>
      <point x="1041" y="987"/>
      <point x="1003" y="1041"/>
      <point x="959" y="1086" type="curve" smooth="yes"/>
      <point x="915" y="1131"/>
      <point x="858" y="1170"/>
      <point x="802" y="1193" type="curve" smooth="yes"/>
      <point x="738" y="1220"/>
      <point x="680" y="1229"/>
      <point x="619" y="1229" type="curve" smooth="yes"/>
      <point x="544" y="1229"/>
      <point x="486" y="1216"/>
      <point x="431" y="1193" type="curve" smooth="yes"/>
      <point x="375" y="1169"/>
      <point x="321" y="1133"/>
      <point x="274" y="1086" type="curve" smooth="yes"/>
      <point x="227" y="1039"/>
      <point x="190" y="980"/>
      <point x="167" y="927" type="curve" smooth="yes"/>
      <point x="143" y="871"/>
      <point x="131" y="809"/>
      <point x="131" y="742" type="curve" smooth="yes"/>
      <point x="131" y="676"/>
      <point x="143" y="615"/>
      <point x="167" y="558" type="curve" smooth="yes"/>
      <point x="192" y="498"/>
      <point x="227" y="448"/>
      <point x="274" y="401" type="curve" smooth="yes"/>
      <point x="325" y="350"/>
      <point x="375" y="316"/>
      <point x="431" y="293" type="curve"/>
      <point x="492" y="266"/>
      <point x="549" y="256"/>
    </contour>
    <contour>
      <point x="637" y="399" type="curve" smooth="yes"/>
      <point x="529" y="399"/>
      <point x="435" y="428"/>
      <point x="367" y="492" type="curve" smooth="yes"/>
      <point x="299" y="556"/>
      <point x="266" y="642"/>
      <point x="266" y="741" type="curve" smooth="yes"/>
      <point x="266" y="850"/>
      <point x="306" y="935"/>
      <point x="367" y="991" type="curve" smooth="yes"/>
      <point x="430" y="1048"/>
      <point x="521" y="1083"/>
      <point x="636" y="1083" type="curve" smooth="yes"/>
      <point x="671" y="1083"/>
      <point x="713" y="1080"/>
      <point x="745" y="1075" type="curve" smooth="yes"/>
      <point x="776" y="1070"/>
      <point x="817" y="1060"/>
      <point x="848" y="1049" type="curve"/>
      <point x="848" y="881" type="line"/>
      <point x="813" y="902"/>
      <point x="780" y="917"/>
      <point x="751" y="926" type="curve" smooth="yes"/>
      <point x="720" y="935"/>
      <point x="690" y="940"/>
      <point x="655" y="940" type="curve" smooth="yes"/>
      <point x="590" y="940"/>
      <point x="542" y="923"/>
      <point x="507" y="888" type="curve" smooth="yes"/>
      <point x="471" y="853"/>
      <point x="453" y="804"/>
      <point x="453" y="741" type="curve" smooth="yes"/>
      <point x="453" y="678"/>
      <point x="471" y="629"/>
      <point x="506" y="595" type="curve" smooth="yes"/>
      <point x="541" y="560"/>
      <point x="591" y="543"/>
      <point x="658" y="543" type="curve" smooth="yes"/>
      <point x="697" y="543"/>
      <point x="727" y="549"/>
      <point x="758" y="558" type="curve" smooth="yes"/>
      <point x="789" y="567"/>
      <point x="813" y="578"/>
      <point x="848" y="602" type="curve"/>
      <point x="848" y="434" type="line"/>
      <point x="811" y="423"/>
      <point x="775" y="415"/>
      <point x="740" y="408" type="curve" smooth="yes"/>
      <point x="705" y="402"/>
      <point x="670" y="399"/>
    </contour>
  </outline>
</glyph>
<glyph name="twosuperior" format="1">
  <advance width="1233"/>
  <unicode hex="00B2"/>
  <outline>
    <contour>
      <point x="289" y="1261" type="line" name="hr00"/>
      <point x="380" y="1328"/>
      <point x="367" y="1317" name="dh01"/>
      <point x="431" y="1363" type="curve" smooth="yes"/>
      <point x="722" y="1571" name="dv03"/>
      <point x="831" y="1681"/>
      <point x="831" y="1746" type="curve" smooth="yes"/>
      <point x="831" y="1767"/>
      <point x="819" y="1793"/>
      <point x="795" y="1810" type="curve" smooth="yes" name="dv04"/>
      <point x="772" y="1826"/>
      <point x="737" y="1834" name="dh02"/>
      <point x="691" y="1834" type="curve" smooth="yes"/>
      <point x="651" y="1834"/>
      <point x="604" y="1828" name="dv02"/>
      <point x="555" y="1816" type="curve" smooth="yes" name="dv01"/>
      <point x="504" y="1804"/>
      <point x="451" y="1786"/>
      <point x="403" y="1763" type="curve" name="sh01"/>
      <point x="434" y="1925" type="line"/>
      <point x="485" y="1940"/>
      <point x="534" y="1952"/>
      <point x="583" y="1960" type="curve" smooth="yes"/>
      <point x="632" y="1968"/>
      <point x="680" y="1972"/>
      <point x="728" y="1972" type="curve" smooth="yes"/>
      <point x="820" y="1972"/>
      <point x="894" y="1957"/>
      <point x="950" y="1918" type="curve" smooth="yes"/>
      <point x="1005" y="1879"/>
      <point x="1028" y="1825"/>
      <point x="1028" y="1777" type="curve" smooth="yes"/>
      <point x="1028" y="1668"/>
      <point x="906" y="1541"/>
      <point x="618" y="1338" type="curve" smooth="yes"/>
      <point x="583" y="1313"/>
      <point x="607" y="1331"/>
      <point x="514" y="1265" type="curve"/>
      <point x="952" y="1265" type="line"/>
      <point x="924" y="1120" type="line"/>
      <point x="260" y="1120" type="line"/>
    </contour>
  </outline>
</glyph>
<glyph name="mu" format="1">
  <advance width="1233"/>
  <unicode hex="00B5"/>
  <outline>
    <contour>
      <point x="246" y="1120" type="line" name="at01"/>
      <point x="535" y="1120" type="line"/>
      <point x="403" y="440" type="line"/>
      <point x="400" y="429"/>
      <point x="397" y="413"/>
      <point x="394" y="388" type="curve" smooth="yes"/>
      <point x="392" y="372" name="sv01"/>
      <point x="391" y="358"/>
      <point x="391" y="346" type="curve" smooth="yes"/>
      <point x="391" y="303" name="at02"/>
      <point x="402" y="271"/>
      <point x="425" y="248" type="curve" smooth="yes"/>
      <point x="448" y="225"/>
      <point x="478" y="213"/>
      <point x="521" y="213" type="curve" smooth="yes"/>
      <point x="575" y="213" name="dv02"/>
      <point x="619" y="232"/>
      <point x="653" y="269" type="curve" smooth="yes" name="iv01"/>
      <point x="688" y="306"/>
      <point x="712" y="363"/>
      <point x="727" y="440" type="curve" smooth="yes" name="dv01"/>
      <point x="858" y="1120" type="line"/>
      <point x="1147" y="1120" type="line" name="iv02"/>
      <point x="997" y="344" type="line"/>
      <point x="992" y="298" name="sv02"/>
      <point x="990" y="295"/>
      <point x="990" y="293" type="curve" smooth="yes" name="iv03"/>
      <point x="987" y="280" name="ab01"/>
      <point x="987" y="273"/>
      <point x="987" y="264" type="curve" smooth="yes"/>
      <point x="987" y="249"/>
      <point x="991" y="236"/>
      <point x="998" y="227" type="curve" smooth="yes"/>
      <point x="1005" y="218"/>
      <point x="1015" y="213"/>
      <point x="1028" y="213" type="curve" smooth="yes"/>
      <point x="1036" y="213"/>
      <point x="1045" y="215"/>
      <point x="1055" y="219" type="curve" smooth="yes"/>
      <point x="1062" y="222"/>
      <point x="1075" y="229"/>
      <point x="1090" y="238" type="curve"/>
      <point x="1047" y="16" type="line"/>
      <point x="1010" y="-3"/>
      <point x="988" y="-11"/>
      <point x="961" y="-18" type="curve" smooth="yes"/>
      <point x="934" y="-25"/>
      <point x="910" y="-29"/>
      <point x="883" y="-29" type="curve" smooth="yes"/>
      <point x="832" y="-29"/>
      <point x="799" y="-15"/>
      <point x="775" y="9" type="curve" smooth="yes"/>
      <point x="750" y="34"/>
      <point x="733" y="74"/>
      <point x="725" y="129" type="curve"/>
      <point x="690" y="76"/>
      <point x="652" y="37"/>
      <point x="611" y="11" type="curve" smooth="yes"/>
      <point x="572" y="-14"/>
      <point x="531" y="-29"/>
      <point x="479" y="-29" type="curve" smooth="yes"/>
      <point x="440" y="-29"/>
      <point x="408" y="-21"/>
      <point x="383" y="-5" type="curve" smooth="yes"/>
      <point x="358" y="11"/>
      <point x="340" y="35"/>
      <point x="330" y="66" type="curve"/>
      <point x="233" y="-428" type="line"/>
      <point x="-55" y="-428" type="line"/>
    </contour>
  </outline>
</glyph>
<glyph name="paragraph" format="1">
  <advance width="1233"/>
  <unicode hex="00B6"/>
  <outline>
    <contour>
      <point x="457" y="649" type="line" name="hr00"/>
      <point x="343" y="661"/>
      <point x="255" y="696"/>
      <point x="194" y="753" type="curve" smooth="yes"/>
      <point x="133" y="810" name="at01"/>
      <point x="102" y="882"/>
      <point x="102" y="986" type="curve" smooth="yes" name="av01"/>
      <point x="102" y="1123"/>
      <point x="156" y="1246" name="sv01"/>
      <point x="265" y="1346" type="curve" smooth="yes"/>
      <point x="373" y="1444" name="av02"/>
      <point x="509" y="1493"/>
      <point x="672" y="1493" type="curve" smooth="yes"/>
      <point x="1190" y="1493" type="line"/>
      <point x="862" y="-197" type="line"/>
      <point x="672" y="-197" type="line"/>
      <point x="973" y="1346" type="line"/>
      <point x="782" y="1346" type="line"/>
      <point x="483" y="-197" type="line"/>
      <point x="293" y="-197" type="line"/>
    </contour>
  </outline>
</glyph>
<glyph name="onesuperior" format="1">
  <advance width="1233"/>
  <unicode hex="00B9"/>
  <outline>
    <contour>
      <point x="315" y="1265" type="line" name="sv01"/>
      <point x="551" y="1265" type="line"/>
      <point x="657" y="1808" type="line"/>
      <point x="428" y="1765" type="line"/>
      <point x="457" y="1914" type="line"/>
      <point x="686" y="1955" type="line" name="av01"/>
      <point x="883" y="1955" type="line"/>
      <point x="748" y="1265" type="line"/>
      <point x="975" y="1265" type="line" name="dv02"/>
      <point x="946" y="1120" type="line" name="dv01"/>
      <point x="289" y="1120" type="line"/>
    </contour>
  </outline>
</glyph>
<glyph name="onequarter" format="1">
  <advance width="1233"/>
  <unicode hex="00BC"/>
  <outline>
    <contour>
      <point x="57" y="969" type="line" name="sv01"/>
      <point x="293" y="969" type="line"/>
      <point x="399" y="1512" type="line"/>
      <point x="170" y="1469" type="line"/>
      <point x="199" y="1618" type="line"/>
      <point x="428" y="1659" type="line" name="av01"/>
      <point x="625" y="1659" type="line"/>
      <point x="490" y="969" type="line"/>
      <point x="717" y="969" type="line" name="dv04"/>
      <point x="688" y="824" type="line" name="dv03"/>
      <point x="31" y="824" type="line"/>
    </contour>
    <contour>
      <point x="47" y="618" type="line"/>
      <point x="1106" y="879" type="line" name="hr02"/>
      <point x="1143" y="762" type="line"/>
      <point x="84" y="500" type="line"/>
    </contour>
    <contour>
      <point x="796" y="-90" type="line" name="sv03"/>
      <point x="407" y="-90" type="line"/>
      <point x="438" y="72" type="line"/>
      <point x="905" y="565" type="line"/>
      <point x="1110" y="565" type="line"/>
      <point x="1009" y="53" type="line" name="dv02"/>
      <point x="1118" y="53" type="line"/>
      <point x="1091" y="-90" type="line" name="sv04"/>
      <point x="983" y="-90" type="line"/>
      <point x="948" y="-270" type="line" name="dv01"/>
      <point x="760" y="-270" type="line"/>
    </contour>
    <contour>
      <point x="823" y="53" type="line" name="sv02"/>
      <point x="887" y="383" type="line"/>
      <point x="573" y="53" type="line"/>
    </contour>
  </outline>
</glyph>
<glyph name="onehalf" format="1">
  <advance width="1233"/>
  <unicode hex="00BD"/>
  <outline>
    <contour>
      <point x="57" y="969" type="line" name="sv01"/>
      <point x="293" y="969" type="line"/>
      <point x="399" y="1512" type="line"/>
      <point x="170" y="1469" type="line"/>
      <point x="199" y="1618" type="line"/>
      <point x="428" y="1659" type="line" name="av01"/>
      <point x="625" y="1659" type="line"/>
      <point x="490" y="969" type="line"/>
      <point x="717" y="969" type="line" name="dv06"/>
      <point x="688" y="824" type="line" name="dv05"/>
      <point x="31" y="824" type="line"/>
    </contour>
    <contour>
      <point x="47" y="618" type="line"/>
      <point x="1106" y="879" type="line"/>
      <point x="1143" y="762" type="line"/>
      <point x="84" y="500" type="line"/>
    </contour>
    <contour>
      <point x="443" y="-129" type="line"/>
      <point x="534" y="-62"/>
      <point x="521" y="-73" name="dh01"/>
      <point x="585" y="-27" type="curve" smooth="yes"/>
      <point x="870" y="178" name="dv03"/>
      <point x="985" y="289"/>
      <point x="985" y="356" type="curve" smooth="yes"/>
      <point x="985" y="377"/>
      <point x="973" y="403"/>
      <point x="949" y="420" type="curve" smooth="yes" name="dv04"/>
      <point x="926" y="436"/>
      <point x="891" y="444" name="dh02"/>
      <point x="845" y="444" type="curve" smooth="yes"/>
      <point x="805" y="444"/>
      <point x="758" y="438" name="dv02"/>
      <point x="709" y="426" type="curve" smooth="yes" name="dv01"/>
      <point x="654" y="413"/>
      <point x="606" y="396"/>
      <point x="557" y="373" type="curve" name="sh01"/>
      <point x="588" y="535" type="line"/>
      <point x="639" y="550"/>
      <point x="688" y="562"/>
      <point x="737" y="570" type="curve" smooth="yes"/>
      <point x="786" y="578"/>
      <point x="834" y="582"/>
      <point x="881" y="582" type="curve" smooth="yes"/>
      <point x="976" y="582"/>
      <point x="1053" y="565"/>
      <point x="1105" y="528" type="curve" smooth="yes"/>
      <point x="1158" y="489"/>
      <point x="1182" y="434"/>
      <point x="1182" y="387" type="curve" smooth="yes"/>
      <point x="1182" y="280"/>
      <point x="1053" y="143"/>
      <point x="772" y="-52" type="curve"/>
      <point x="740" y="-73"/>
      <point x="726" y="-83"/>
      <point x="668" y="-125" type="curve"/>
      <point x="1106" y="-125" type="line"/>
      <point x="1078" y="-270" type="line"/>
      <point x="414" y="-270" type="line"/>
    </contour>
  </outline>
</glyph>
<glyph name="threequarters" format="1">
  <advance width="1233"/>
  <unicode hex="00BE"/>
  <outline>
    <contour>
      <point x="342" y="809" type="curve" smooth="yes"/>
      <point x="475" y="809"/>
      <point x="580" y="834" name="dh02"/>
      <point x="653" y="883" type="curve" smooth="yes"/>
      <point x="726" y="932" name="ih02"/>
      <point x="762" y="1002"/>
      <point x="762" y="1086" type="curve" smooth="yes" name="sh01"/>
      <point x="762" y="1142"/>
      <point x="746" y="1181" name="dv04"/>
      <point x="713" y="1214" type="curve" smooth="yes" name="sv02"/>
      <point x="680" y="1247"/>
      <point x="636" y="1266"/>
      <point x="580" y="1272" type="curve"/>
      <point x="656" y="1280" name="dv03"/>
      <point x="714" y="1304"/>
      <point x="753" y="1340" type="curve" smooth="yes" name="ih01"/>
      <point x="793" y="1377"/>
      <point x="813" y="1426" name="dv06"/>
      <point x="813" y="1482" type="curve" smooth="yes" name="hr01"/>
      <point x="813" y="1543"/>
      <point x="787" y="1591" name="dv05"/>
      <point x="734" y="1625" type="curve" smooth="yes"/>
      <point x="681" y="1660" name="dh01"/>
      <point x="609" y="1676"/>
      <point x="512" y="1676" type="curve" smooth="yes" name="dv08"/>
      <point x="469" y="1676"/>
      <point x="425" y="1673"/>
      <point x="378" y="1667" type="curve" smooth="yes"/>
      <point x="331" y="1660" name="sv01"/>
      <point x="283" y="1652" name="dv07"/>
      <point x="234" y="1641" type="curve"/>
      <point x="205" y="1489" type="line"/>
      <point x="261" y="1505"/>
      <point x="311" y="1516"/>
      <point x="354" y="1524" type="curve" smooth="yes" name="sh02"/>
      <point x="400" y="1532" name="dv01"/>
      <point x="439" y="1536"/>
      <point x="472" y="1536" type="curve" smooth="yes" name="sv04"/>
      <point x="517" y="1536"/>
      <point x="554" y="1528" name="dv02"/>
      <point x="581" y="1513" type="curve" smooth="yes"/>
      <point x="608" y="1498"/>
      <point x="621" y="1477"/>
      <point x="621" y="1449" type="curve" smooth="yes"/>
      <point x="621" y="1416" name="sv03"/>
      <point x="605" y="1391"/>
      <point x="574" y="1372" type="curve" smooth="yes" name="hr02"/>
      <point x="543" y="1353" name="sh03"/>
      <point x="498" y="1344"/>
      <point x="439" y="1344" type="curve" smooth="yes"/>
      <point x="330" y="1344" type="line"/>
      <point x="301" y="1198" type="line"/>
      <point x="412" y="1198" type="line" smooth="yes"/>
      <point x="462" y="1198"/>
      <point x="502" y="1189"/>
      <point x="531" y="1172" type="curve" smooth="yes"/>
      <point x="560" y="1155"/>
      <point x="574" y="1130"/>
      <point x="574" y="1095" type="curve" smooth="yes"/>
      <point x="574" y="1056"/>
      <point x="558" y="1019"/>
      <point x="519" y="990" type="curve" smooth="yes"/>
      <point x="482" y="963"/>
      <point x="434" y="949"/>
      <point x="361" y="949" type="curve" smooth="yes"/>
      <point x="317" y="949"/>
      <point x="264" y="954"/>
      <point x="215" y="963" type="curve" smooth="yes"/>
      <point x="167" y="972"/>
      <point x="127" y="984"/>
      <point x="80" y="1004" type="curve"/>
      <point x="49" y="850" type="line"/>
      <point x="100" y="835"/>
      <point x="144" y="827"/>
      <point x="192" y="820" type="curve" smooth="yes"/>
      <point x="241" y="813"/>
      <point x="289" y="809"/>
    </contour>
    <contour>
      <point x="84" y="500" type="line"/>
      <point x="1143" y="762" type="line"/>
      <point x="1106" y="879" type="line"/>
      <point x="47" y="618" type="line"/>
    </contour>
    <contour>
      <point x="760" y="-270" type="line"/>
      <point x="948" y="-270" type="line"/>
      <point x="983" y="-90" type="line" name="hr03"/>
      <point x="1091" y="-90" type="line"/>
      <point x="1118" y="53" type="line"/>
      <point x="1009" y="53" type="line"/>
      <point x="1110" y="565" type="line"/>
      <point x="905" y="565" type="line"/>
      <point x="438" y="72" type="line"/>
      <point x="407" y="-90" type="line" name="hr04"/>
      <point x="796" y="-90" type="line"/>
    </contour>
    <contour>
      <point x="573" y="53" type="line"/>
      <point x="887" y="383" type="line"/>
      <point x="823" y="53" type="line"/>
    </contour>
  </outline>
</glyph>
<glyph name="questiondown" format="1">
  <advance width="1233"/>
  <unicode hex="00BF"/>
  <outline>
    <contour>
      <point x="732" y="1222" type="curve" smooth="yes" name="hr00"/>
      <point x="783" y="1222"/>
      <point x="828" y="1242"/>
      <point x="863" y="1274" type="curve" smooth="yes"/>
      <point x="898" y="1305" name="at01"/>
      <point x="923" y="1349"/>
      <point x="923" y="1413" type="curve" smooth="yes"/>
      <point x="923" y="1433"/>
      <point x="920" y="1452"/>
      <point x="914" y="1469" type="curve" smooth="yes"/>
      <point x="893" y="1529" name="sv01"/>
      <point x="846" y="1556"/>
      <point x="783" y="1556" type="curve" smooth="yes"/>
      <point x="738" y="1556"/>
      <point x="701" y="1541" name="iv01"/>
      <point x="670" y="1517" type="curve" smooth="yes"/>
      <point x="639" y="1493" name="sv02"/>
      <point x="622" y="1462"/>
      <point x="611" y="1441" type="curve" smooth="yes" name="dh02"/>
      <point x="603" y="1425"/>
      <point x="596" y="1403"/>
      <point x="596" y="1390" type="curve" smooth="yes"/>
      <point x="596" y="1360" type="line" smooth="yes"/>
      <point x="596" y="1323"/>
      <point x="611" y="1288"/>
      <point x="632" y="1264" type="curve" smooth="yes"/>
      <point x="655" y="1239"/>
      <point x="685" y="1222"/>
    </contour>
    <contour>
      <point x="454" y="-27" type="curve" smooth="yes"/>
      <point x="522" y="-27"/>
      <point x="592" y="-17" name="dh01"/>
      <point x="664" y="2" type="curve" smooth="yes"/>
      <point x="736" y="21" name="ab01"/>
      <point x="805" y="49"/>
      <point x="872" y="86" type="curve"/>
      <point x="924" y="354" type="line"/>
      <point x="844" y="303"/>
      <point x="771" y="269"/>
      <point x="706" y="246" type="curve" smooth="yes"/>
      <point x="641" y="223"/>
      <point x="578" y="209"/>
      <point x="517" y="209" type="curve" smooth="yes"/>
      <point x="466" y="209"/>
      <point x="433" y="219"/>
      <point x="408" y="240" type="curve" smooth="yes"/>
      <point x="383" y="261"/>
      <point x="371" y="294"/>
      <point x="371" y="321" type="curve" smooth="yes"/>
      <point x="371" y="377"/>
      <point x="420" y="436"/>
      <point x="511" y="515" type="curve" smooth="yes"/>
      <point x="526" y="528" type="line"/>
      <point x="631" y="621" type="line" smooth="yes"/>
      <point x="690" y="672"/>
      <point x="735" y="716"/>
      <point x="770" y="772" type="curve" smooth="yes"/>
      <point x="799" y="819"/>
      <point x="818" y="869"/>
      <point x="831" y="938" type="curve" smooth="yes"/>
      <point x="860" y="1092" type="line"/>
      <point x="594" y="1092" type="line"/>
      <point x="571" y="969" type="line"/>
      <point x="552" y="874"/>
      <point x="506" y="801"/>
      <point x="418" y="724" type="curve" smooth="yes"/>
      <point x="410" y="717" type="line"/>
      <point x="305" y="631" type="line" smooth="yes"/>
      <point x="230" y="570"/>
      <point x="172" y="506"/>
      <point x="139" y="450" type="curve" smooth="yes"/>
      <point x="106" y="395"/>
      <point x="90" y="336"/>
      <point x="90" y="272" type="curve" smooth="yes"/>
      <point x="90" y="183"/>
      <point x="123" y="111"/>
      <point x="189" y="56" type="curve" smooth="yes"/>
      <point x="256" y="0"/>
      <point x="341" y="-27"/>
    </contour>
  </outline>
</glyph>
<glyph name="Adieresis" format="1">
  <advance width="1233"/>
  <unicode hex="00C4"/>
  <outline>
    <contour>
      <point x="487" y="1613" type="line" smooth="yes" name="dv01"/>
      <point x="469" y="1613"/>
      <point x="460" y="1621"/>
      <point x="460" y="1637" type="curve" smooth="yes"/>
      <point x="460" y="1641" name="dv02"/>
      <point x="460" y="1644"/>
      <point x="461" y="1646" type="curve" smooth="yes"/>
      <point x="499" y="1832" type="line" smooth="yes"/>
      <point x="503" y="1850"/>
      <point x="514" y="1859"/>
      <point x="531" y="1859" type="curve" smooth="yes" name="sv01"/>
      <point x="706" y="1859" type="line" smooth="yes"/>
      <point x="724" y="1859"/>
      <point x="733" y="1851"/>
      <point x="733" y="1835" type="curve" smooth="yes" name="sv02"/>
      <point x="733" y="1831"/>
      <point x="733" y="1828"/>
      <point x="732" y="1826" type="curve" smooth="yes"/>
      <point x="695" y="1640" type="line" smooth="yes"/>
      <point x="692" y="1622" name="at01"/>
      <point x="681" y="1613"/>
      <point x="663" y="1613" type="curve" smooth="yes" name="ab01"/>
    </contour>
    <contour>
      <point x="883" y="1613" type="line" smooth="yes"/>
      <point x="865" y="1613" name="dv03"/>
      <point x="856" y="1621"/>
      <point x="856" y="1637" type="curve" smooth="yes" name="ab02"/>
      <point x="856" y="1641"/>
      <point x="856" y="1644" name="dv04"/>
      <point x="857" y="1646" type="curve" smooth="yes"/>
      <point x="894" y="1832" type="line" smooth="yes"/>
      <point x="897" y="1850"/>
      <point x="907" y="1859"/>
      <point x="926" y="1859" type="curve" smooth="yes"/>
      <point x="1101" y="1859" type="line" smooth="yes"/>
      <point x="1121" y="1859"/>
      <point x="1132" y="1846"/>
      <point x="1128" y="1826" type="curve" smooth="yes"/>
      <point x="1092" y="1640" type="line" smooth="yes"/>
      <point x="1089" y="1622"/>
      <point x="1078" y="1613"/>
      <point x="1060" y="1613" type="curve" smooth="yes"/>
    </contour>
    <contour>
      <point x="582" y="1493" type="line"/>
      <point x="942" y="1493" type="line"/>
      <point x="1055" y="0" type="line"/>
      <point x="762" y="0" type="line"/>
      <point x="748" y="369" type="line"/>
      <point x="348" y="369" type="line"/>
      <point x="186" y="0" type="line"/>
      <point x="-113" y="0" type="line"/>
    </contour>
    <contour>
      <point x="737" y="612" type="line"/>
      <point x="717" y="1219" type="line"/>
      <point x="453" y="612" type="line"/>
    </contour>
  </outline>
</glyph>
<glyph name="Aring" format="1">
  <advance width="1233"/>
  <unicode hex="00C5"/>
  <outline>
    <contour>
      <point x="547" y="1421" type="line"/>
      <point x="523" y="1445"/>
      <point x="504" y="1475" name="sh01"/>
      <point x="490" y="1510" type="curve" smooth="yes"/>
      <point x="476" y="1545" name="dv02"/>
      <point x="469" y="1581"/>
      <point x="469" y="1618" type="curve" smooth="yes" name="sh02"/>
      <point x="469" y="1695"/>
      <point x="497" y="1761"/>
      <point x="553" y="1817" type="curve" smooth="yes" name="ab01"/>
      <point x="606" y="1870"/>
      <point x="669" y="1901" name="dv03"/>
      <point x="753" y="1901" type="curve" smooth="yes"/>
      <point x="831" y="1901" name="ab02"/>
      <point x="898" y="1873"/>
      <point x="954" y="1817" type="curve" smooth="yes"/>
      <point x="1010" y="1761"/>
      <point x="1038" y="1695" name="ah02"/>
      <point x="1038" y="1618" type="curve" smooth="yes"/>
      <point x="1038" y="1575" name="dv01"/>
      <point x="1030" y="1535"/>
      <point x="1015" y="1503" type="curve" smooth="yes" name="sh03"/>
      <point x="999" y="1466"/>
      <point x="975" y="1433"/>
      <point x="948" y="1409" type="curve" name="dv04"/>
      <point x="1055" y="0" type="line" name="ih01"/>
      <point x="760" y="0" type="line"/>
      <point x="739" y="369" type="line" name="ah01"/>
      <point x="344" y="369" type="line" name="sh04"/>
      <point x="182" y="0" type="line"/>
      <point x="-113" y="0" type="line"/>
    </contour>
    <contour>
      <point x="754" y="1485" type="curve" smooth="yes"/>
      <point x="790" y="1485"/>
      <point x="821" y="1498"/>
      <point x="847" y="1524" type="curve" smooth="yes"/>
      <point x="872" y="1549"/>
      <point x="885" y="1580"/>
      <point x="885" y="1616" type="curve" smooth="yes"/>
      <point x="885" y="1652"/>
      <point x="872" y="1683"/>
      <point x="846" y="1709" type="curve"/>
      <point x="819" y="1734"/>
      <point x="789" y="1747"/>
      <point x="754" y="1747" type="curve" smooth="yes"/>
      <point x="718" y="1747"/>
      <point x="687" y="1734"/>
      <point x="662" y="1709" type="curve" smooth="yes"/>
      <point x="636" y="1683"/>
      <point x="623" y="1652"/>
      <point x="623" y="1616" type="curve" smooth="yes"/>
      <point x="623" y="1577"/>
      <point x="638" y="1547"/>
      <point x="661" y="1524" type="curve" smooth="yes"/>
      <point x="687" y="1498"/>
      <point x="718" y="1485"/>
    </contour>
    <contour>
      <point x="729" y="612" type="line"/>
      <point x="709" y="1223" type="line"/>
      <point x="451" y="612" type="line"/>
    </contour>
  </outline>
</glyph>
<glyph name="Egrave" format="1">
  <advance width="1233"/>
  <unicode hex="00C8"/>
  <outline>
    <contour>
      <point x="527" y="1853" type="line" name="hr00"/>
      <point x="791" y="1853" type="line" name="dv02"/>
      <point x="934" y="1589" type="line"/>
      <point x="756" y="1589" type="line" name="dv01"/>
    </contour>
    <contour>
      <point x="317" y="1493" type="line" name="at01"/>
      <point x="1249" y="1493" type="line"/>
      <point x="1198" y="1233" type="line" name="sv01"/>
      <point x="563" y="1233" type="line"/>
      <point x="500" y="911" type="line"/>
      <point x="1075" y="911" type="line" name="dv04"/>
      <point x="1026" y="651" type="line" name="dv03"/>
      <point x="451" y="651" type="line"/>
      <point x="375" y="260" type="line" name="sv02"/>
      <point x="1010" y="260" type="line"/>
      <point x="958" y="0" type="line" name="ab01"/>
      <point x="29" y="0" type="line"/>
    </contour>
  </outline>
</glyph>
<glyph name="Eacute" format="1">
  <advance width="1233"/>
  <unicode hex="00C9"/>
  <outline>
    <contour>
      <point x="899" y="1852" type="line" name="av01"/>
      <point x="1180" y="1852" type="line"/>
      <point x="860" y="1588" type="line"/>
      <point x="653" y="1588" type="line" name="iv01"/>
    </contour>
    <contour>
      <point x="317" y="1493" type="line" name="at01"/>
      <point x="1249" y="1493" type="line"/>
      <point x="1198" y="1233" type="line" name="sv01"/>
      <point x="563" y="1233" type="line"/>
      <point x="500" y="911" type="line"/>
      <point x="1075" y="911" type="line" name="dv02"/>
      <point x="1026" y="651" type="line" name="dv01"/>
      <point x="451" y="651" type="line"/>
      <point x="375" y="260" type="line" name="sv02"/>
      <point x="1010" y="260" type="line"/>
      <point x="958" y="0" type="line" name="ab01"/>
      <point x="29" y="0" type="line"/>
    </contour>
  </outline>
</glyph>
<glyph name="Iacute" format="1">
  <advance width="1233"/>
  <unicode hex="00CD"/>
  <outline>
    <contour>
      <point x="858" y="1853" type="line" name="av01"/>
      <point x="1139" y="1853" type="line"/>
      <point x="819" y="1589" type="line"/>
      <point x="612" y="1589" type="line" name="iv01"/>
    </contour>
    <contour>
      <point x="78" y="260" type="line" name="sv01"/>
      <point x="375" y="260" type="line"/>
      <point x="563" y="1233" type="line" name="sv02"/>
      <point x="266" y="1233" type="line"/>
      <point x="317" y="1493" type="line" name="at01"/>
      <point x="1206" y="1493" type="line"/>
      <point x="1155" y="1233" type="line" name="sv03"/>
      <point x="858" y="1233" type="line" name="sv04"/>
      <point x="670" y="260" type="line" name="sv05"/>
      <point x="967" y="260" type="line" name="sv06"/>
      <point x="915" y="0" type="line" name="ab01"/>
      <point x="27" y="0" type="line"/>
    </contour>
  </outline>
</glyph>
<glyph name="Idieresis" format="1">
  <advance width="1233"/>
  <unicode hex="00CF"/>
  <outline>
    <contour>
      <point x="493" y="1606" type="line" smooth="yes" name="dv01"/>
      <point x="475" y="1606"/>
      <point x="466" y="1614"/>
      <point x="466" y="1630" type="curve" smooth="yes"/>
      <point x="466" y="1634" name="dv02"/>
      <point x="466" y="1637"/>
      <point x="467" y="1639" type="curve" smooth="yes"/>
      <point x="505" y="1825" type="line" smooth="yes"/>
      <point x="509" y="1843"/>
      <point x="520" y="1852"/>
      <point x="537" y="1852" type="curve" smooth="yes" name="sv01"/>
      <point x="712" y="1852" type="line" smooth="yes"/>
      <point x="730" y="1852"/>
      <point x="739" y="1844"/>
      <point x="739" y="1828" type="curve" smooth="yes" name="sv02"/>
      <point x="739" y="1824"/>
      <point x="739" y="1821"/>
      <point x="738" y="1819" type="curve" smooth="yes"/>
      <point x="701" y="1633" type="line" smooth="yes"/>
      <point x="698" y="1615" name="sv03"/>
      <point x="687" y="1606"/>
      <point x="669" y="1606" type="curve" smooth="yes" name="sv04"/>
    </contour>
    <contour>
      <point x="889" y="1606" type="line" smooth="yes"/>
      <point x="871" y="1606" name="at01"/>
      <point x="862" y="1614"/>
      <point x="862" y="1630" type="curve" smooth="yes" name="sv05"/>
      <point x="862" y="1634" name="sv06"/>
      <point x="862" y="1637" name="sv07"/>
      <point x="863" y="1639" type="curve" smooth="yes" name="sv08"/>
      <point x="900" y="1825" type="line" smooth="yes" name="ab01"/>
      <point x="903" y="1843"/>
      <point x="913" y="1852"/>
      <point x="932" y="1852" type="curve" smooth="yes"/>
      <point x="1107" y="1852" type="line" smooth="yes"/>
      <point x="1127" y="1852"/>
      <point x="1138" y="1839"/>
      <point x="1134" y="1819" type="curve" smooth="yes"/>
      <point x="1098" y="1633" type="line" smooth="yes"/>
      <point x="1095" y="1615"/>
      <point x="1084" y="1606"/>
      <point x="1066" y="1606" type="curve" smooth="yes"/>
    </contour>
    <contour>
      <point x="78" y="260" type="line"/>
      <point x="375" y="260" type="line"/>
      <point x="563" y="1233" type="line"/>
      <point x="266" y="1233" type="line"/>
      <point x="317" y="1493" type="line"/>
      <point x="1206" y="1493" type="line"/>
      <point x="1155" y="1233" type="line"/>
      <point x="858" y="1233" type="line"/>
      <point x="670" y="260" type="line"/>
      <point x="967" y="260" type="line"/>
      <point x="915" y="0" type="line"/>
      <point x="27" y="0" type="line"/>
    </contour>
  </outline>
</glyph>
<glyph name="Ntilde" format="1">
  <advance width="1233"/>
  <unicode hex="00D1"/>
  <outline>
    <contour>
      <point x="452" y="1588" type="line" name="hr00"/>
      <point x="469" y="1674"/>
      <point x="500" y="1740" name="dv02"/>
      <point x="543" y="1785" type="curve" smooth="yes"/>
      <point x="586" y="1830"/>
      <point x="638" y="1854"/>
      <point x="703" y="1854" type="curve" smooth="yes"/>
      <point x="728" y="1854"/>
      <point x="752" y="1850"/>
      <point x="774" y="1842" type="curve" smooth="yes" name="sv01"/>
      <point x="793" y="1835"/>
      <point x="814" y="1823"/>
      <point x="841" y="1803" type="curve" smooth="yes" name="sv02"/>
      <point x="894" y="1762" type="line" smooth="yes"/>
      <point x="903" y="1754"/>
      <point x="914" y="1747"/>
      <point x="928" y="1742" type="curve" smooth="yes"/>
      <point x="939" y="1737"/>
      <point x="951" y="1735"/>
      <point x="962" y="1735" type="curve" smooth="yes" name="dv01"/>
      <point x="989" y="1735" name="at01"/>
      <point x="1010" y="1745"/>
      <point x="1027" y="1766" type="curve" smooth="yes" name="iv01"/>
      <point x="1045" y="1787" name="at02"/>
      <point x="1057" y="1817"/>
      <point x="1064" y="1854" type="curve" name="ab01"/>
      <point x="1201" y="1854" type="line"/>
      <point x="1184" y="1769" name="iv02"/>
      <point x="1154" y="1704" name="ab02"/>
      <point x="1110" y="1657" type="curve" smooth="yes"/>
      <point x="1067" y="1611"/>
      <point x="1014" y="1588"/>
      <point x="951" y="1588" type="curve" smooth="yes"/>
      <point x="924" y="1588"/>
      <point x="903" y="1592"/>
      <point x="882" y="1599" type="curve" smooth="yes"/>
      <point x="861" y="1606"/>
      <point x="844" y="1615"/>
      <point x="812" y="1639" type="curve" smooth="yes"/>
      <point x="763" y="1676" type="line" smooth="yes"/>
      <point x="742" y="1692"/>
      <point x="738" y="1695"/>
      <point x="721" y="1702" type="curve" smooth="yes"/>
      <point x="708" y="1707"/>
      <point x="698" y="1708"/>
      <point x="690" y="1708" type="curve" smooth="yes"/>
      <point x="662" y="1708"/>
      <point x="641" y="1694"/>
      <point x="626" y="1677" type="curve" smooth="yes"/>
      <point x="605" y="1652"/>
      <point x="593" y="1611"/>
      <point x="589" y="1588" type="curve"/>
    </contour>
    <contour>
      <point x="266" y="1493" type="line"/>
      <point x="569" y="1493" type="line"/>
      <point x="784" y="408" type="line"/>
      <point x="995" y="1493" type="line"/>
      <point x="1255" y="1493" type="line"/>
      <point x="967" y="0" type="line"/>
      <point x="674" y="0" type="line"/>
      <point x="449" y="1085" type="line"/>
      <point x="238" y="0" type="line"/>
      <point x="-25" y="0" type="line"/>
    </contour>
  </outline>
</glyph>
<glyph name="Oacute" format="1">
  <advance width="1233"/>
  <unicode hex="00D3"/>
  <outline>
    <contour>
      <point x="872" y="1852" type="line" name="sh01"/>
      <point x="1153" y="1852" type="line" name="ih01"/>
      <point x="833" y="1588" type="line"/>
      <point x="626" y="1588" type="line" name="iv01"/>
    </contour>
    <contour>
      <point x="500" y="-29" type="curve" smooth="yes" name="dv01"/>
      <point x="364" y="-29"/>
      <point x="250" y="11" name="sh03"/>
      <point x="173" y="98" type="curve" smooth="yes"/>
      <point x="94" y="186"/>
      <point x="61" y="312"/>
      <point x="61" y="476" type="curve" smooth="yes" name="at01"/>
      <point x="61" y="593"/>
      <point x="78" y="733" name="sh02"/>
      <point x="111" y="870" type="curve" smooth="yes"/>
      <point x="146" y="1015"/>
      <point x="194" y="1136"/>
      <point x="246" y="1228" type="curve" smooth="yes"/>
      <point x="293" y="1312" name="dv02"/>
      <point x="355" y="1389"/>
      <point x="447" y="1445" type="curve" smooth="yes"/>
      <point x="534" y="1497"/>
      <point x="632" y="1520"/>
      <point x="732" y="1520" type="curve" smooth="yes"/>
      <point x="869" y="1520" name="ah02"/>
      <point x="982" y="1479"/>
      <point x="1058" y="1395" type="curve" smooth="yes" name="sv01"/>
      <point x="1143" y="1302"/>
      <point x="1171" y="1168"/>
      <point x="1171" y="1015" type="curve" smooth="yes"/>
      <point x="1171" y="902"/>
      <point x="1157" y="767"/>
      <point x="1122" y="622" type="curve" smooth="yes" name="sh04"/>
      <point x="1091" y="490"/>
      <point x="1048" y="368"/>
      <point x="988" y="264" type="curve" smooth="yes" name="ah01"/>
      <point x="932" y="165" name="sh05"/>
      <point x="870" y="97"/>
      <point x="786" y="46" type="curve" smooth="yes"/>
      <point x="701" y="-5"/>
      <point x="604" y="-29"/>
    </contour>
    <contour>
      <point x="525" y="233" type="curve" smooth="yes"/>
      <point x="565" y="233"/>
      <point x="602" y="245"/>
      <point x="635" y="269" type="curve" smooth="yes"/>
      <point x="667" y="292"/>
      <point x="696" y="326"/>
      <point x="721" y="373" type="curve" smooth="yes"/>
      <point x="738" y="405"/>
      <point x="752" y="440"/>
      <point x="767" y="483" type="curve" smooth="yes"/>
      <point x="786" y="535"/>
      <point x="794" y="573"/>
      <point x="809" y="630" type="curve" smooth="yes"/>
      <point x="828" y="706"/>
      <point x="842" y="781"/>
      <point x="853" y="846" type="curve"/>
      <point x="863" y="912"/>
      <point x="868" y="970"/>
      <point x="868" y="1020" type="curve" smooth="yes"/>
      <point x="868" y="1101"/>
      <point x="855" y="1161"/>
      <point x="828" y="1200" type="curve" smooth="yes"/>
      <point x="801" y="1240"/>
      <point x="761" y="1260"/>
      <point x="708" y="1260" type="curve" smooth="yes"/>
      <point x="663" y="1260"/>
      <point x="626" y="1245"/>
      <point x="598" y="1225" type="curve" smooth="yes"/>
      <point x="566" y="1202"/>
      <point x="536" y="1165"/>
      <point x="512" y="1121" type="curve" smooth="yes"/>
      <point x="493" y="1088"/>
      <point x="482" y="1056"/>
      <point x="469" y="1017" type="curve" smooth="yes"/>
      <point x="450" y="960"/>
      <point x="443" y="932"/>
      <point x="424" y="860" type="curve"/>
      <point x="405" y="783"/>
      <point x="391" y="718"/>
      <point x="380" y="646" type="curve" smooth="yes"/>
      <point x="370" y="579"/>
      <point x="365" y="520"/>
      <point x="365" y="471" type="curve" smooth="yes"/>
      <point x="365" y="390"/>
      <point x="378" y="331"/>
      <point x="405" y="292" type="curve" smooth="yes"/>
      <point x="433" y="251"/>
      <point x="474" y="233"/>
    </contour>
  </outline>
</glyph>
<glyph name="Oslash" format="1">
  <advance width="1233"/>
  <unicode hex="00D8"/>
  <outline>
    <contour>
      <point x="-141" y="51" type="line" name="hr00"/>
      <point x="78" y="295" type="line"/>
      <point x="71" y="323"/>
      <point x="69" y="342"/>
      <point x="66" y="366" type="curve" smooth="yes"/>
      <point x="63" y="391"/>
      <point x="61" y="410"/>
      <point x="61" y="454" type="curve" smooth="yes" name="at02"/>
      <point x="61" y="579"/>
      <point x="77" y="725"/>
      <point x="110" y="865" type="curve" smooth="yes" name="at01"/>
      <point x="141" y="998"/>
      <point x="187" y="1126"/>
      <point x="244" y="1227" type="curve" smooth="yes"/>
      <point x="296" y="1319"/>
      <point x="362" y="1394"/>
      <point x="447" y="1445" type="curve" smooth="yes"/>
      <point x="532" y="1496"/>
      <point x="632" y="1520"/>
      <point x="732" y="1520" type="curve" smooth="yes"/>
      <point x="801" y="1520" name="dv01"/>
      <point x="864" y="1509"/>
      <point x="919" y="1487" type="curve" smooth="yes"/>
      <point x="974" y="1465" name="av01"/>
      <point x="1022" y="1432"/>
      <point x="1063" y="1389" type="curve"/>
      <point x="1217" y="1559" type="line" name="sv01"/>
      <point x="1356" y="1444" type="line"/>
      <point x="1151" y="1217" type="line" name="iv01"/>
      <point x="1159" y="1174" name="dv02"/>
      <point x="1163" y="1144"/>
      <point x="1166" y="1113" type="curve" smooth="yes" name="iv02"/>
      <point x="1169" y="1080"/>
      <point x="1171" y="1057"/>
      <point x="1171" y="1022" type="curve" smooth="yes"/>
      <point x="1171" y="987"/>
      <point x="1169" y="934"/>
      <point x="1164" y="887" type="curve"/>
      <point x="1159" y="851"/>
      <point x="1151" y="783"/>
      <point x="1143" y="737" type="curve" smooth="yes"/>
      <point x="1130" y="657"/>
      <point x="1104" y="551"/>
      <point x="1080" y="480" type="curve" smooth="yes"/>
      <point x="1057" y="411"/>
      <point x="1028" y="336"/>
      <point x="989" y="265" type="curve" smooth="yes"/>
      <point x="933" y="166"/>
      <point x="863" y="93"/>
      <point x="786" y="46" type="curve" smooth="yes"/>
      <point x="702" y="-5"/>
      <point x="604" y="-29"/>
      <point x="500" y="-29" type="curve" smooth="yes"/>
      <point x="427" y="-29"/>
      <point x="361" y="-17"/>
      <point x="304" y="8" type="curve" smooth="yes"/>
      <point x="245" y="33"/>
      <point x="197" y="70"/>
      <point x="160" y="117" type="curve"/>
      <point x="0" y="-63" type="line"/>
    </contour>
    <contour>
      <point x="852" y="1153" type="line"/>
      <point x="840" y="1189"/>
      <point x="820" y="1217"/>
      <point x="797" y="1233" type="curve" smooth="yes"/>
      <point x="770" y="1253"/>
      <point x="737" y="1260"/>
      <point x="706" y="1260" type="curve" smooth="yes"/>
      <point x="619" y="1260"/>
      <point x="558" y="1205"/>
      <point x="510" y="1113" type="curve" smooth="yes"/>
      <point x="459" y="1017"/>
      <point x="416" y="866"/>
      <point x="379" y="629" type="curve"/>
    </contour>
    <contour>
      <point x="525" y="233" type="curve" smooth="yes"/>
      <point x="610" y="233"/>
      <point x="678" y="284"/>
      <point x="729" y="386" type="curve" smooth="yes"/>
      <point x="780" y="487"/>
      <point x="823" y="660"/>
      <point x="858" y="889" type="curve"/>
      <point x="375" y="354" type="line"/>
      <point x="387" y="314"/>
      <point x="406" y="284"/>
      <point x="432" y="264" type="curve" smooth="yes"/>
      <point x="456" y="245"/>
      <point x="484" y="233"/>
    </contour>
  </outline>
</glyph>
<glyph name="Uacute" format="1">
  <advance width="1233"/>
  <unicode hex="00DA"/>
  <outline>
    <contour>
      <point x="868" y="1854" type="line" name="av01"/>
      <point x="1149" y="1854" type="line"/>
      <point x="829" y="1590" type="line"/>
      <point x="622" y="1590" type="line" name="iv01"/>
    </contour>
    <contour>
      <point x="497" y="-29" type="curve" smooth="yes" name="dv01"/>
      <point x="356" y="-29"/>
      <point x="243" y="3" name="dh01"/>
      <point x="163" y="70" type="curve" smooth="yes" name="sh01"/>
      <point x="80" y="138"/>
      <point x="45" y="233" name="at01"/>
      <point x="45" y="354" type="curve" smooth="yes"/>
      <point x="45" y="382" name="sh02"/>
      <point x="47" y="408" name="sh03"/>
      <point x="51" y="444" type="curve" smooth="yes" name="dh02"/>
      <point x="56" y="495"/>
      <point x="58" y="504" name="dv02"/>
      <point x="68" y="551" type="curve"/>
      <point x="252" y="1493" type="line"/>
      <point x="547" y="1493" type="line" name="at02"/>
      <point x="348" y="477" type="line" smooth="yes"/>
      <point x="348" y="475"/>
      <point x="348" y="473"/>
      <point x="347" y="471" type="curve"/>
      <point x="342" y="440"/>
      <point x="340" y="419"/>
      <point x="340" y="400" type="curve" smooth="yes"/>
      <point x="340" y="347"/>
      <point x="355" y="306"/>
      <point x="386" y="276" type="curve" smooth="yes"/>
      <point x="417" y="246"/>
      <point x="461" y="231"/>
      <point x="518" y="231" type="curve" smooth="yes"/>
      <point x="587" y="231"/>
      <point x="646" y="251"/>
      <point x="689" y="292" type="curve" smooth="yes"/>
      <point x="732" y="333"/>
      <point x="761" y="394"/>
      <point x="778" y="477" type="curve"/>
      <point x="977" y="1493" type="line"/>
      <point x="1272" y="1493" type="line"/>
      <point x="1087" y="551" type="line"/>
      <point x="1064" y="438"/>
      <point x="1044" y="354"/>
      <point x="1012" y="279" type="curve" smooth="yes"/>
      <point x="984" y="214"/>
      <point x="951" y="166"/>
      <point x="908" y="123" type="curve" smooth="yes"/>
      <point x="857" y="74"/>
      <point x="798" y="36"/>
      <point x="729" y="10" type="curve" smooth="yes"/>
      <point x="660" y="-17"/>
      <point x="585" y="-29"/>
    </contour>
  </outline>
</glyph>
<glyph name="germandbls" format="1">
  <advance width="1233"/>
  <unicode hex="00DF"/>
  <outline>
    <contour>
      <point x="666" y="-29" type="curve" smooth="yes" name="dv01"/>
      <point x="613" y="-29"/>
      <point x="576" y="-24"/>
      <point x="535" y="-16" type="curve" smooth="yes" name="iv01"/>
      <point x="483" y="-5"/>
      <point x="450" y="4" name="dv02"/>
      <point x="406" y="20" type="curve"/>
      <point x="455" y="270" type="line" name="ah02"/>
      <point x="494" y="249"/>
      <point x="531" y="234"/>
      <point x="567" y="223" type="curve" smooth="yes"/>
      <point x="601" y="212"/>
      <point x="635" y="207" name="sh01"/>
      <point x="669" y="207" type="curve" smooth="yes"/>
      <point x="725" y="207"/>
      <point x="773" y="220"/>
      <point x="808" y="247" type="curve" smooth="yes"/>
      <point x="843" y="274" name="sv01"/>
      <point x="860" y="310"/>
      <point x="860" y="347" type="curve" smooth="yes"/>
      <point x="860" y="402" name="ab01"/>
      <point x="824" y="456"/>
      <point x="749" y="531" type="curve" smooth="yes"/>
      <point x="743" y="537" type="line"/>
      <point x="674" y="608" type="line" smooth="yes" name="at01"/>
      <point x="644" y="639"/>
      <point x="622" y="671" name="sh03"/>
      <point x="609" y="705" type="curve" smooth="yes" name="sh04"/>
      <point x="595" y="739"/>
      <point x="588" y="776"/>
      <point x="588" y="817" type="curve" smooth="yes" name="sh05"/>
      <point x="588" y="905"/>
      <point x="619" y="981"/>
      <point x="680" y="1044" type="curve" smooth="yes"/>
      <point x="741" y="1106" name="sh02"/>
      <point x="827" y="1149"/>
      <point x="940" y="1174" type="curve"/>
      <point x="940" y="1190" type="line" smooth="yes" name="ah01"/>
      <point x="940" y="1229" name="sh06"/>
      <point x="927" y="1265"/>
      <point x="895" y="1290" type="curve" smooth="yes"/>
      <point x="864" y="1313"/>
      <point x="823" y="1325"/>
      <point x="770" y="1325" type="curve" smooth="yes"/>
      <point x="707" y="1325"/>
      <point x="656" y="1308"/>
      <point x="618" y="1274" type="curve" smooth="yes"/>
      <point x="580" y="1240"/>
      <point x="554" y="1189"/>
      <point x="541" y="1122" type="curve" smooth="yes"/>
      <point x="322" y="0" type="line"/>
      <point x="29" y="0" type="line"/>
      <point x="248" y="1126" type="line" smooth="yes"/>
      <point x="276" y="1271"/>
      <point x="333" y="1376"/>
      <point x="421" y="1449" type="curve" smooth="yes"/>
      <point x="508" y="1522"/>
      <point x="624" y="1559"/>
      <point x="767" y="1559" type="curve" smooth="yes"/>
      <point x="896" y="1559"/>
      <point x="995" y="1531"/>
      <point x="1060" y="1472" type="curve" smooth="yes"/>
      <point x="1125" y="1413"/>
      <point x="1157" y="1324"/>
      <point x="1157" y="1215" type="curve" smooth="yes"/>
      <point x="1157" y="1176"/>
      <point x="1153" y="1133"/>
      <point x="1146" y="1065" type="curve" smooth="yes"/>
      <point x="1145" y="1059" type="line"/>
      <point x="1048" y="1054"/>
      <point x="974" y="1032"/>
      <point x="926" y="1001" type="curve" smooth="yes"/>
      <point x="878" y="970"/>
      <point x="848" y="924"/>
      <point x="848" y="875" type="curve" smooth="yes"/>
      <point x="848" y="831"/>
      <point x="873" y="786"/>
      <point x="944" y="715" type="curve" smooth="yes" name="hr02"/>
      <point x="1026" y="633" type="line" smooth="yes"/>
      <point x="1065" y="593"/>
      <point x="1095" y="553"/>
      <point x="1114" y="512" type="curve" smooth="yes"/>
      <point x="1133" y="473"/>
      <point x="1143" y="431"/>
      <point x="1143" y="374" type="curve" smooth="yes"/>
      <point x="1143" y="259"/>
      <point x="1100" y="157"/>
      <point x="1015" y="82" type="curve" smooth="yes"/>
      <point x="930" y="8"/>
      <point x="813" y="-29"/>
    </contour>
  </outline>
</glyph>
<glyph name="atilde" format="1">
  <advance width="1233"/>
  <unicode hex="00E3"/>
  <outline>
    <contour>
      <point x="911" y="1297" type="curve" smooth="yes" name="sv02"/>
      <point x="884" y="1297"/>
      <point x="866" y="1301"/>
      <point x="843" y="1310" type="curve" smooth="yes"/>
      <point x="820" y="1319"/>
      <point x="797" y="1333"/>
      <point x="770" y="1354" type="curve" smooth="yes"/>
      <point x="721" y="1391" type="line" name="sv01"/>
      <point x="717" y="1395"/>
      <point x="719" y="1392"/>
      <point x="716" y="1395" type="curve" smooth="yes" name="av01"/>
      <point x="693" y="1412" name="av02"/>
      <point x="670" y="1428"/>
      <point x="643" y="1428" type="curve" smooth="yes"/>
      <point x="620" y="1428"/>
      <point x="600" y="1417"/>
      <point x="583" y="1394" type="curve" smooth="yes"/>
      <point x="566" y="1371" name="av03"/>
      <point x="554" y="1340"/>
      <point x="547" y="1299" type="curve"/>
      <point x="408" y="1299" type="line"/>
      <point x="421" y="1386" name="dv01"/>
      <point x="450" y="1455"/>
      <point x="495" y="1506" type="curve" smooth="yes" name="dh01"/>
      <point x="540" y="1557"/>
      <point x="596" y="1583"/>
      <point x="656" y="1583" type="curve" smooth="yes" name="dv04"/>
      <point x="679" y="1583"/>
      <point x="704" y="1579"/>
      <point x="723" y="1571" type="curve" smooth="yes" name="hr01"/>
      <point x="742" y="1563"/>
      <point x="768" y="1545" name="sv03"/>
      <point x="799" y="1522" type="curve" smooth="yes"/>
      <point x="850" y="1483" type="line" smooth="yes" name="ih01"/>
      <point x="863" y="1472"/>
      <point x="875" y="1465"/>
      <point x="887" y="1460" type="curve" smooth="yes" name="at01"/>
      <point x="899" y="1455"/>
      <point x="909" y="1452"/>
      <point x="921" y="1452" type="curve" smooth="yes"/>
      <point x="948" y="1452"/>
      <point x="968" y="1465" name="ab01"/>
      <point x="984" y="1486" type="curve" smooth="yes"/>
      <point x="1001" y="1508" name="iv01"/>
      <point x="1013" y="1540" name="ab02"/>
      <point x="1020" y="1581" type="curve"/>
      <point x="1159" y="1581" type="line" name="dv02"/>
      <point x="1144" y="1488"/>
      <point x="1116" y="1417" name="dv03"/>
      <point x="1074" y="1369" type="curve" smooth="yes"/>
      <point x="1032" y="1321"/>
      <point x="978" y="1297" name="dh02"/>
    </contour>
    <contour>
      <point x="379" y="-29" type="curve" smooth="yes"/>
      <point x="279" y="-29"/>
      <point x="195" y="-2"/>
      <point x="135" y="58" type="curve" smooth="yes"/>
      <point x="72" y="119"/>
      <point x="47" y="204"/>
      <point x="47" y="300" type="curve" smooth="yes"/>
      <point x="47" y="436"/>
      <point x="99" y="548"/>
      <point x="203" y="624" type="curve" smooth="yes"/>
      <point x="306" y="699"/>
      <point x="456" y="737"/>
      <point x="651" y="737" type="curve" smooth="yes"/>
      <point x="844" y="737" type="line"/>
      <point x="852" y="786" type="line" smooth="yes"/>
      <point x="853" y="793"/>
      <point x="854" y="797"/>
      <point x="854" y="798" type="curve"/>
      <point x="854" y="815" type="line" smooth="yes"/>
      <point x="854" y="853"/>
      <point x="837" y="882"/>
      <point x="803" y="902" type="curve" smooth="yes"/>
      <point x="769" y="922"/>
      <point x="720" y="932"/>
      <point x="657" y="932" type="curve" smooth="yes"/>
      <point x="600" y="932"/>
      <point x="538" y="923"/>
      <point x="470" y="904" type="curve" smooth="yes" name="hr02"/>
      <point x="403" y="885"/>
      <point x="335" y="859"/>
      <point x="248" y="819" type="curve"/>
      <point x="295" y="1069" type="line"/>
      <point x="372" y="1096"/>
      <point x="443" y="1115"/>
      <point x="509" y="1128" type="curve" smooth="yes"/>
      <point x="577" y="1141"/>
      <point x="637" y="1147"/>
      <point x="705" y="1147" type="curve" smooth="yes"/>
      <point x="850" y="1147"/>
      <point x="956" y="1120"/>
      <point x="1029" y="1071" type="curve" smooth="yes"/>
      <point x="1109" y="1018"/>
      <point x="1141" y="944"/>
      <point x="1141" y="848" type="curve" smooth="yes"/>
      <point x="1141" y="824"/>
      <point x="1139" y="793"/>
      <point x="1134" y="756" type="curve" smooth="yes"/>
      <point x="1129" y="718"/>
      <point x="1125" y="690"/>
      <point x="1114" y="639" type="curve"/>
      <point x="991" y="0" type="line"/>
      <point x="729" y="0" type="line"/>
      <point x="725" y="125" type="line" name="hr03"/>
      <point x="678" y="72"/>
      <point x="627" y="34"/>
      <point x="572" y="10" type="curve" smooth="yes"/>
      <point x="513" y="-17"/>
      <point x="447" y="-29"/>
    </contour>
    <contour>
      <point x="501" y="172" type="curve" smooth="yes"/>
      <point x="573" y="172"/>
      <point x="641" y="202"/>
      <point x="694" y="265" type="curve" smooth="yes"/>
      <point x="745" y="324"/>
      <point x="784" y="411"/>
      <point x="803" y="530" type="curve"/>
      <point x="690" y="530" type="line" smooth="yes"/>
      <point x="575" y="530"/>
      <point x="490" y="513"/>
      <point x="435" y="478" type="curve" smooth="yes"/>
      <point x="379" y="443"/>
      <point x="352" y="389"/>
      <point x="352" y="321" type="curve" smooth="yes"/>
      <point x="352" y="273"/>
      <point x="366" y="240"/>
      <point x="393" y="213" type="curve" smooth="yes"/>
      <point x="420" y="186"/>
      <point x="452" y="172"/>
    </contour>
  </outline>
</glyph>
<glyph name="adieresis" format="1">
  <advance width="1233"/>
  <unicode hex="00E4"/>
  <outline>
    <contour>
      <point x="480" y="1347" type="line" smooth="yes" name="dv03"/>
      <point x="460" y="1347"/>
      <point x="449" y="1360"/>
      <point x="453" y="1380" type="curve" smooth="yes" name="dv04"/>
      <point x="489" y="1566" type="line" smooth="yes"/>
      <point x="492" y="1584"/>
      <point x="502" y="1593"/>
      <point x="521" y="1593" type="curve" smooth="yes"/>
      <point x="698" y="1593" type="line" smooth="yes"/>
      <point x="716" y="1593" name="sv01"/>
      <point x="725" y="1585"/>
      <point x="725" y="1569" type="curve" smooth="yes"/>
      <point x="725" y="1565" name="sv02"/>
      <point x="725" y="1562"/>
      <point x="724" y="1560" type="curve" smooth="yes"/>
      <point x="687" y="1374" type="line" smooth="yes"/>
      <point x="684" y="1356"/>
      <point x="673" y="1347"/>
      <point x="655" y="1347" type="curve" smooth="yes" name="dv01"/>
    </contour>
    <contour>
      <point x="875" y="1347" type="line" smooth="yes"/>
      <point x="855" y="1347" name="dh01"/>
      <point x="844" y="1360"/>
      <point x="848" y="1380" type="curve" smooth="yes"/>
      <point x="884" y="1566" type="line" smooth="yes" name="dv06"/>
      <point x="887" y="1584"/>
      <point x="897" y="1593"/>
      <point x="916" y="1593" type="curve" smooth="yes"/>
      <point x="1094" y="1593" type="line" smooth="yes"/>
      <point x="1112" y="1593" name="sv03"/>
      <point x="1121" y="1585"/>
      <point x="1121" y="1569" type="curve" smooth="yes" name="ih01"/>
      <point x="1121" y="1565"/>
      <point x="1121" y="1562"/>
      <point x="1120" y="1560" type="curve" smooth="yes" name="at01"/>
      <point x="1083" y="1374" type="line" smooth="yes"/>
      <point x="1080" y="1356"/>
      <point x="1069" y="1347"/>
      <point x="1051" y="1347" type="curve" smooth="yes"/>
    </contour>
    <contour>
      <point x="379" y="-29" type="curve" smooth="yes" name="ab01"/>
      <point x="279" y="-29"/>
      <point x="195" y="-2" name="iv01"/>
      <point x="135" y="58" type="curve" smooth="yes" name="ab02"/>
      <point x="72" y="119"/>
      <point x="47" y="204" name="dv02"/>
      <point x="47" y="300" type="curve" smooth="yes"/>
      <point x="47" y="436" name="dv05"/>
      <point x="99" y="548"/>
      <point x="203" y="624" type="curve" smooth="yes"/>
      <point x="306" y="699" name="dh02"/>
      <point x="456" y="737"/>
      <point x="651" y="737" type="curve" smooth="yes"/>
      <point x="844" y="737" type="line"/>
      <point x="852" y="786" type="line" smooth="yes"/>
      <point x="853" y="793"/>
      <point x="854" y="797"/>
      <point x="854" y="798" type="curve"/>
      <point x="854" y="815" type="line" smooth="yes"/>
      <point x="854" y="853"/>
      <point x="837" y="882"/>
      <point x="803" y="902" type="curve" smooth="yes"/>
      <point x="769" y="922"/>
      <point x="720" y="932"/>
      <point x="657" y="932" type="curve" smooth="yes"/>
      <point x="600" y="932"/>
      <point x="538" y="923"/>
      <point x="470" y="904" type="curve" smooth="yes"/>
      <point x="403" y="885"/>
      <point x="335" y="859"/>
      <point x="248" y="819" type="curve"/>
      <point x="295" y="1069" type="line"/>
      <point x="372" y="1096"/>
      <point x="443" y="1115"/>
      <point x="509" y="1128" type="curve" smooth="yes" name="hr02"/>
      <point x="577" y="1141"/>
      <point x="637" y="1147"/>
      <point x="705" y="1147" type="curve" smooth="yes"/>
      <point x="844" y="1147"/>
      <point x="953" y="1122"/>
      <point x="1029" y="1071" type="curve" smooth="yes"/>
      <point x="1109" y="1018"/>
      <point x="1141" y="942"/>
      <point x="1141" y="845" type="curve" smooth="yes"/>
      <point x="1141" y="821"/>
      <point x="1139" y="793"/>
      <point x="1134" y="756" type="curve" smooth="yes"/>
      <point x="1129" y="717"/>
      <point x="1125" y="691"/>
      <point x="1114" y="639" type="curve"/>
      <point x="991" y="0" type="line"/>
      <point x="729" y="0" type="line"/>
      <point x="725" y="125" type="line"/>
      <point x="678" y="72"/>
      <point x="627" y="34"/>
      <point x="572" y="10" type="curve" smooth="yes"/>
      <point x="513" y="-17"/>
      <point x="447" y="-29"/>
    </contour>
    <contour>
      <point x="501" y="172" type="curve" smooth="yes"/>
      <point x="573" y="172"/>
      <point x="641" y="202"/>
      <point x="694" y="265" type="curve" smooth="yes"/>
      <point x="745" y="324"/>
      <point x="784" y="411"/>
      <point x="803" y="530" type="curve"/>
      <point x="690" y="530" type="line" smooth="yes"/>
      <point x="575" y="530"/>
      <point x="490" y="513"/>
      <point x="435" y="478" type="curve" smooth="yes"/>
      <point x="379" y="443"/>
      <point x="352" y="389"/>
      <point x="352" y="321" type="curve" smooth="yes"/>
      <point x="352" y="273"/>
      <point x="366" y="240"/>
      <point x="393" y="213" type="curve" smooth="yes"/>
      <point x="420" y="186"/>
      <point x="452" y="172"/>
    </contour>
  </outline>
</glyph>
<glyph name="aring" format="1">
  <advance width="1233"/>
  <unicode hex="00E5"/>
  <outline>
    <contour>
      <point x="778" y="1249" type="curve" smooth="yes" name="dv07"/>
      <point x="702" y="1249"/>
      <point x="632" y="1277" name="dh03"/>
      <point x="576" y="1333" type="curve" smooth="yes"/>
      <point x="521" y="1389" name="dv04"/>
      <point x="494" y="1458"/>
      <point x="494" y="1534" type="curve" smooth="yes"/>
      <point x="494" y="1618"/>
      <point x="529" y="1689"/>
      <point x="577" y="1737" type="curve" smooth="yes" name="dv08"/>
      <point x="626" y="1786"/>
      <point x="696" y="1819"/>
      <point x="779" y="1819" type="curve" smooth="yes"/>
      <point x="855" y="1819" name="dv03"/>
      <point x="925" y="1792"/>
      <point x="980" y="1737" type="curve" smooth="yes" name="dh04"/>
      <point x="1027" y="1690"/>
      <point x="1063" y="1620"/>
      <point x="1063" y="1535" type="curve" smooth="yes" name="dv01"/>
      <point x="1063" y="1451"/>
      <point x="1028" y="1379" name="dh01"/>
      <point x="981" y="1332" type="curve" smooth="yes"/>
      <point x="926" y="1277"/>
      <point x="854" y="1249" name="dv06"/>
    </contour>
    <contour>
      <point x="779" y="1403" type="curve" smooth="yes"/>
      <point x="812" y="1403"/>
      <point x="846" y="1415"/>
      <point x="873" y="1442" type="curve" smooth="yes" name="sv01"/>
      <point x="898" y="1468"/>
      <point x="910" y="1499" name="ih01"/>
      <point x="910" y="1535" type="curve" smooth="yes" name="hr01"/>
      <point x="910" y="1570"/>
      <point x="897" y="1601" name="at01"/>
      <point x="871" y="1627" type="curve" smooth="yes"/>
      <point x="848" y="1650"/>
      <point x="818" y="1665"/>
      <point x="779" y="1665" type="curve" smooth="yes"/>
      <point x="742" y="1665" name="ab01"/>
      <point x="711" y="1652"/>
      <point x="686" y="1627" type="curve" smooth="yes" name="iv01"/>
      <point x="660" y="1601" name="ab02"/>
      <point x="647" y="1570"/>
      <point x="647" y="1534" type="curve" smooth="yes" name="dv02"/>
      <point x="647" y="1497"/>
      <point x="660" y="1466" name="dv05"/>
      <point x="685" y="1441" type="curve" smooth="yes"/>
      <point x="708" y="1418"/>
      <point x="742" y="1403" name="dh02"/>
    </contour>
    <contour>
      <point x="379" y="-29" type="curve" smooth="yes"/>
      <point x="279" y="-29"/>
      <point x="195" y="-2"/>
      <point x="135" y="58" type="curve" smooth="yes"/>
      <point x="72" y="119"/>
      <point x="47" y="204"/>
      <point x="47" y="300" type="curve" smooth="yes"/>
      <point x="47" y="436"/>
      <point x="99" y="548"/>
      <point x="203" y="624" type="curve" smooth="yes"/>
      <point x="306" y="699"/>
      <point x="456" y="737"/>
      <point x="651" y="737" type="curve" smooth="yes"/>
      <point x="844" y="737" type="line"/>
      <point x="852" y="786" type="line" smooth="yes"/>
      <point x="853" y="793"/>
      <point x="854" y="797"/>
      <point x="854" y="798" type="curve"/>
      <point x="854" y="815" type="line" smooth="yes"/>
      <point x="854" y="853"/>
      <point x="837" y="882"/>
      <point x="803" y="902" type="curve" smooth="yes"/>
      <point x="769" y="922"/>
      <point x="720" y="932"/>
      <point x="657" y="932" type="curve" smooth="yes"/>
      <point x="600" y="932"/>
      <point x="538" y="923"/>
      <point x="470" y="904" type="curve" smooth="yes"/>
      <point x="403" y="885"/>
      <point x="335" y="859"/>
      <point x="248" y="819" type="curve"/>
      <point x="295" y="1069" type="line"/>
      <point x="372" y="1096"/>
      <point x="443" y="1115"/>
      <point x="509" y="1128" type="curve" smooth="yes" name="hr02"/>
      <point x="577" y="1141"/>
      <point x="637" y="1147"/>
      <point x="705" y="1147" type="curve" smooth="yes"/>
      <point x="844" y="1147"/>
      <point x="953" y="1122"/>
      <point x="1029" y="1071" type="curve" smooth="yes"/>
      <point x="1109" y="1018"/>
      <point x="1141" y="942"/>
      <point x="1141" y="845" type="curve" smooth="yes"/>
      <point x="1141" y="821"/>
      <point x="1139" y="793"/>
      <point x="1134" y="756" type="curve" smooth="yes"/>
      <point x="1129" y="717"/>
      <point x="1125" y="691"/>
      <point x="1114" y="639" type="curve"/>
      <point x="991" y="0" type="line"/>
      <point x="729" y="0" type="line"/>
      <point x="725" y="125" type="line"/>
      <point x="678" y="72"/>
      <point x="627" y="34"/>
      <point x="572" y="10" type="curve" smooth="yes"/>
      <point x="513" y="-17"/>
      <point x="447" y="-29"/>
    </contour>
    <contour>
      <point x="501" y="172" type="curve" smooth="yes"/>
      <point x="573" y="172"/>
      <point x="641" y="202"/>
      <point x="694" y="265" type="curve" smooth="yes"/>
      <point x="745" y="324"/>
      <point x="784" y="411"/>
      <point x="803" y="530" type="curve"/>
      <point x="690" y="530" type="line" smooth="yes"/>
      <point x="575" y="530"/>
      <point x="490" y="513"/>
      <point x="435" y="478" type="curve" smooth="yes"/>
      <point x="379" y="443"/>
      <point x="352" y="389"/>
      <point x="352" y="321" type="curve" smooth="yes"/>
      <point x="352" y="273"/>
      <point x="366" y="240"/>
      <point x="393" y="213" type="curve" smooth="yes"/>
      <point x="420" y="186"/>
      <point x="452" y="172"/>
    </contour>
  </outline>
</glyph>
<glyph name="ntilde" format="1">
  <advance width="1233"/>
  <unicode hex="00F1"/>
  <outline>
    <contour>
      <point x="880" y="1297" type="curve" smooth="yes" name="sv02"/>
      <point x="853" y="1297"/>
      <point x="835" y="1301"/>
      <point x="812" y="1310" type="curve" smooth="yes"/>
      <point x="789" y="1319"/>
      <point x="766" y="1333"/>
      <point x="739" y="1354" type="curve" smooth="yes"/>
      <point x="690" y="1391" type="line" name="sv01"/>
      <point x="686" y="1395"/>
      <point x="688" y="1392"/>
      <point x="685" y="1395" type="curve" smooth="yes" name="av01"/>
      <point x="662" y="1412" name="av02"/>
      <point x="639" y="1428"/>
      <point x="612" y="1428" type="curve" smooth="yes"/>
      <point x="589" y="1428"/>
      <point x="569" y="1417"/>
      <point x="552" y="1394" type="curve" smooth="yes"/>
      <point x="535" y="1371" name="av03"/>
      <point x="523" y="1340" name="sh01"/>
      <point x="516" y="1299" type="curve"/>
      <point x="377" y="1299" type="line"/>
      <point x="390" y="1386" name="at01"/>
      <point x="419" y="1455"/>
      <point x="464" y="1506" type="curve" smooth="yes" name="iv01"/>
      <point x="509" y="1557"/>
      <point x="565" y="1583" name="at02"/>
      <point x="625" y="1583" type="curve" smooth="yes"/>
      <point x="648" y="1583" name="dh02"/>
      <point x="673" y="1579" name="sh02"/>
      <point x="692" y="1571" type="curve" smooth="yes"/>
      <point x="711" y="1563" name="ab01"/>
      <point x="737" y="1545"/>
      <point x="768" y="1522" type="curve" smooth="yes" name="sh03"/>
      <point x="819" y="1483" type="line" smooth="yes" name="sh04"/>
      <point x="832" y="1472" name="dh01"/>
      <point x="844" y="1465"/>
      <point x="856" y="1460" type="curve" smooth="yes" name="sv03"/>
      <point x="868" y="1455"/>
      <point x="878" y="1452"/>
      <point x="890" y="1452" type="curve" smooth="yes" name="ab02"/>
      <point x="917" y="1452"/>
      <point x="937" y="1465"/>
      <point x="953" y="1486" type="curve" smooth="yes" name="sh05"/>
      <point x="970" y="1508"/>
      <point x="982" y="1540"/>
      <point x="989" y="1581" type="curve"/>
      <point x="1128" y="1581" type="line" name="hr01"/>
      <point x="1113" y="1488"/>
      <point x="1085" y="1417"/>
      <point x="1043" y="1369" type="curve" smooth="yes"/>
      <point x="1001" y="1321"/>
      <point x="947" y="1297"/>
    </contour>
    <contour>
      <point x="276" y="1120" type="line"/>
      <point x="540" y="1120" type="line"/>
      <point x="537" y="952" type="line"/>
      <point x="570" y="1016"/>
      <point x="617" y="1064"/>
      <point x="669" y="1096" type="curve" smooth="yes"/>
      <point x="724" y="1130"/>
      <point x="786" y="1147"/>
      <point x="857" y="1147" type="curve" smooth="yes"/>
      <point x="938" y="1147"/>
      <point x="1004" y="1125"/>
      <point x="1051" y="1078" type="curve" smooth="yes"/>
      <point x="1095" y="1034"/>
      <point x="1120" y="969"/>
      <point x="1120" y="880" type="curve" smooth="yes"/>
      <point x="1120" y="861"/>
      <point x="1119" y="838"/>
      <point x="1116" y="813" type="curve"/>
      <point x="1113" y="797"/>
      <point x="1109" y="759"/>
      <point x="1102" y="728" type="curve"/>
      <point x="961" y="0" type="line" name="hr02"/>
      <point x="668" y="0" type="line"/>
      <point x="801" y="682" type="line" name="hr03"/>
      <point x="804" y="692"/>
      <point x="809" y="732"/>
      <point x="809" y="735" type="curve" smooth="yes"/>
      <point x="810" y="752"/>
      <point x="811" y="771"/>
      <point x="811" y="784" type="curve" smooth="yes"/>
      <point x="811" y="823"/>
      <point x="803" y="854"/>
      <point x="782" y="877" type="curve" smooth="yes"/>
      <point x="763" y="897"/>
      <point x="735" y="907"/>
      <point x="699" y="907" type="curve" smooth="yes"/>
      <point x="644" y="907"/>
      <point x="597" y="883"/>
      <point x="558" y="835" type="curve" smooth="yes"/>
      <point x="518" y="786"/>
      <point x="490" y="718"/>
      <point x="473" y="629" type="curve" smooth="yes"/>
      <point x="352" y="0" type="line"/>
      <point x="59" y="0" type="line"/>
    </contour>
  </outline>
</glyph>
<glyph name="oacute" format="1">
  <advance width="1233"/>
  <unicode hex="00F3"/>
  <outline>
    <contour>
      <point x="887" y="1673" type="line" name="av01"/>
      <point x="1208" y="1673" type="line"/>
      <point x="766" y="1297" type="line"/>
      <point x="569" y="1297" type="line" name="ih01"/>
    </contour>
    <contour>
      <point x="543" y="-29" type="curve" smooth="yes" name="dv01"/>
      <point x="391" y="-29"/>
      <point x="280" y="20" name="sh01"/>
      <point x="208" y="91" type="curve" smooth="yes"/>
      <point x="123" y="175" name="dv04"/>
      <point x="88" y="293"/>
      <point x="88" y="442" type="curve" smooth="yes" name="sh02"/>
      <point x="88" y="631"/>
      <point x="143" y="814"/>
      <point x="254" y="949" type="curve" smooth="yes" name="dv02"/>
      <point x="361" y="1078"/>
      <point x="509" y="1149" name="ah02"/>
      <point x="689" y="1149" type="curve" smooth="yes"/>
      <point x="822" y="1149" name="dv03"/>
      <point x="942" y="1110"/>
      <point x="1025" y="1030" type="curve" name="sh03"/>
      <point x="1109" y="947"/>
      <point x="1145" y="828"/>
      <point x="1145" y="676" type="curve" smooth="yes" name="ah01"/>
      <point x="1145" y="483" name="sh04"/>
      <point x="1088" y="302"/>
      <point x="980" y="171" type="curve" smooth="yes"/>
      <point x="867" y="34"/>
      <point x="715" y="-29"/>
    </contour>
    <contour>
      <point x="563" y="207" type="curve" smooth="yes"/>
      <point x="640" y="207"/>
      <point x="711" y="251"/>
      <point x="767" y="343" type="curve" smooth="yes"/>
      <point x="818" y="427"/>
      <point x="850" y="544"/>
      <point x="850" y="672" type="curve" smooth="yes"/>
      <point x="850" y="764"/>
      <point x="833" y="817"/>
      <point x="804" y="853" type="curve" smooth="yes"/>
      <point x="769" y="896"/>
      <point x="720" y="911"/>
      <point x="672" y="911" type="curve" smooth="yes"/>
      <point x="589" y="911"/>
      <point x="521" y="866"/>
      <point x="466" y="776" type="curve"/>
      <point x="410" y="679"/>
      <point x="383" y="556"/>
      <point x="383" y="448" type="curve" smooth="yes"/>
      <point x="383" y="377"/>
      <point x="394" y="312"/>
      <point x="431" y="267" type="curve" smooth="yes"/>
      <point x="459" y="232"/>
      <point x="503" y="207"/>
    </contour>
  </outline>
</glyph>
<glyph name="otilde" format="1">
  <advance width="1233"/>
  <unicode hex="00F5"/>
  <outline>
    <contour>
      <point x="880" y="1299" type="curve" smooth="yes" name="sv02"/>
      <point x="853" y="1299"/>
      <point x="835" y="1303"/>
      <point x="812" y="1312" type="curve" smooth="yes"/>
      <point x="789" y="1321"/>
      <point x="766" y="1335"/>
      <point x="739" y="1356" type="curve" smooth="yes"/>
      <point x="690" y="1393" type="line" name="sv01"/>
      <point x="686" y="1397" name="sh03"/>
      <point x="688" y="1394"/>
      <point x="685" y="1397" type="curve" smooth="yes" name="av01"/>
      <point x="662" y="1414" name="av02"/>
      <point x="639" y="1430"/>
      <point x="612" y="1430" type="curve" smooth="yes"/>
      <point x="589" y="1430" name="sh04"/>
      <point x="569" y="1419"/>
      <point x="552" y="1396" type="curve" smooth="yes"/>
      <point x="535" y="1373" name="av03"/>
      <point x="523" y="1342"/>
      <point x="516" y="1301" type="curve"/>
      <point x="377" y="1301" type="line"/>
      <point x="390" y="1388" name="dv01"/>
      <point x="419" y="1457"/>
      <point x="464" y="1508" type="curve" smooth="yes" name="sh01"/>
      <point x="509" y="1559"/>
      <point x="565" y="1585" name="dv04"/>
      <point x="625" y="1585" type="curve" smooth="yes"/>
      <point x="648" y="1585" name="sh05"/>
      <point x="673" y="1581"/>
      <point x="692" y="1573" type="curve" smooth="yes"/>
      <point x="711" y="1565" name="dv02"/>
      <point x="737" y="1547"/>
      <point x="768" y="1524" type="curve" smooth="yes" name="ah02"/>
      <point x="819" y="1485" type="line" smooth="yes"/>
      <point x="832" y="1474" name="dv03"/>
      <point x="844" y="1467"/>
      <point x="856" y="1462" type="curve" smooth="yes" name="sh02"/>
      <point x="868" y="1457"/>
      <point x="878" y="1454"/>
      <point x="890" y="1454" type="curve" smooth="yes" name="ah01"/>
      <point x="917" y="1454" name="sh06"/>
      <point x="937" y="1467"/>
      <point x="953" y="1488" type="curve" smooth="yes"/>
      <point x="970" y="1510"/>
      <point x="982" y="1542"/>
      <point x="989" y="1583" type="curve"/>
      <point x="1128" y="1583" type="line"/>
      <point x="1113" y="1490"/>
      <point x="1085" y="1419"/>
      <point x="1043" y="1371" type="curve" smooth="yes"/>
      <point x="1001" y="1323"/>
      <point x="947" y="1299"/>
    </contour>
    <contour>
      <point x="543" y="-29" type="curve" smooth="yes"/>
      <point x="391" y="-29"/>
      <point x="280" y="20"/>
      <point x="208" y="91" type="curve" smooth="yes"/>
      <point x="123" y="175"/>
      <point x="88" y="293"/>
      <point x="88" y="442" type="curve" smooth="yes"/>
      <point x="88" y="631"/>
      <point x="143" y="814"/>
      <point x="254" y="949" type="curve" smooth="yes"/>
      <point x="361" y="1078"/>
      <point x="509" y="1149"/>
      <point x="689" y="1149" type="curve" smooth="yes"/>
      <point x="822" y="1149"/>
      <point x="942" y="1110"/>
      <point x="1025" y="1030" type="curve"/>
      <point x="1109" y="947"/>
      <point x="1145" y="828"/>
      <point x="1145" y="676" type="curve" smooth="yes"/>
      <point x="1145" y="483"/>
      <point x="1088" y="302"/>
      <point x="980" y="171" type="curve" smooth="yes" name="hr01"/>
      <point x="867" y="34"/>
      <point x="715" y="-29"/>
    </contour>
    <contour>
      <point x="563" y="207" type="curve" smooth="yes" name="hr02"/>
      <point x="640" y="207"/>
      <point x="711" y="251"/>
      <point x="767" y="343" type="curve" smooth="yes"/>
      <point x="818" y="427"/>
      <point x="850" y="544"/>
      <point x="850" y="672" type="curve" smooth="yes"/>
      <point x="850" y="764"/>
      <point x="833" y="817"/>
      <point x="804" y="853" type="curve" smooth="yes"/>
      <point x="769" y="896"/>
      <point x="720" y="911"/>
      <point x="672" y="911" type="curve" smooth="yes"/>
      <point x="589" y="911"/>
      <point x="521" y="866"/>
      <point x="466" y="776" type="curve"/>
      <point x="410" y="679"/>
      <point x="383" y="556"/>
      <point x="383" y="448" type="curve" smooth="yes"/>
      <point x="383" y="377"/>
      <point x="394" y="312"/>
      <point x="431" y="267" type="curve" smooth="yes"/>
      <point x="459" y="232"/>
      <point x="503" y="207"/>
    </contour>
  </outline>
</glyph>
<glyph name="divide" format="1">
  <advance width="1233"/>
  <unicode hex="00F7"/>
  <outline>
    <contour>
      <point x="461" y="1198" type="line" name="dh01"/>
      <point x="770" y="1198" type="line" name="dh02"/>
      <point x="770" y="889" type="line" name="dv02"/>
      <point x="461" y="889" type="line"/>
    </contour>
    <contour>
      <point x="66" y="762" type="line"/>
      <point x="1165" y="762" type="line" name="dv04"/>
      <point x="1165" y="524" type="line" name="dv03"/>
      <point x="66" y="524" type="line"/>
    </contour>
    <contour>
      <point x="461" y="395" type="line" name="sh01"/>
      <point x="770" y="395" type="line" name="sh02"/>
      <point x="770" y="86" type="line" name="dv01"/>
      <point x="461" y="86" type="line"/>
    </contour>
  </outline>
</glyph>
<glyph name="oslash" format="1">
  <advance width="1233"/>
  <unicode hex="00F8"/>
  <outline>
    <contour>
      <point x="-82" y="2" type="line" name="hr00"/>
      <point x="129" y="209" type="line"/>
      <point x="114" y="245"/>
      <point x="107" y="271"/>
      <point x="99" y="308" type="curve" smooth="yes"/>
      <point x="92" y="343" name="dv04"/>
      <point x="88" y="375"/>
      <point x="88" y="430" type="curve" smooth="yes"/>
      <point x="88" y="634" name="av02"/>
      <point x="145" y="818"/>
      <point x="253" y="950" type="curve"/>
      <point x="364" y="1083"/>
      <point x="516" y="1149" name="dh02"/>
      <point x="688" y="1149" type="curve" smooth="yes"/>
      <point x="748" y="1149" name="dv01"/>
      <point x="806" y="1141"/>
      <point x="858" y="1124" type="curve" smooth="yes"/>
      <point x="909" y="1107" name="av01"/>
      <point x="956" y="1082"/>
      <point x="1001" y="1049" type="curve"/>
      <point x="1194" y="1235" type="line" name="dv03"/>
      <point x="1311" y="1114" type="line"/>
      <point x="1104" y="913" type="line" name="iv01"/>
      <point x="1117" y="880" name="dv02"/>
      <point x="1128" y="846"/>
      <point x="1135" y="810" type="curve" smooth="yes" name="dh01"/>
      <point x="1142" y="773"/>
      <point x="1145" y="743"/>
      <point x="1145" y="696" type="curve" smooth="yes"/>
      <point x="1145" y="489"/>
      <point x="1089" y="303" name="sh01"/>
      <point x="980" y="170" type="curve" smooth="yes"/>
      <point x="875" y="42"/>
      <point x="726" y="-29"/>
      <point x="541" y="-29" type="curve" smooth="yes"/>
      <point x="478" y="-29"/>
      <point x="421" y="-21"/>
      <point x="370" y="-4" type="curve" smooth="yes"/>
      <point x="319" y="13"/>
      <point x="274" y="38"/>
      <point x="233" y="72" type="curve"/>
      <point x="35" y="-117" type="line"/>
    </contour>
    <contour>
      <point x="801" y="856" type="line"/>
      <point x="784" y="875"/>
      <point x="765" y="889"/>
      <point x="745" y="898" type="curve" smooth="yes"/>
      <point x="725" y="907"/>
      <point x="701" y="911"/>
      <point x="674" y="911" type="curve" smooth="yes"/>
      <point x="590" y="911"/>
      <point x="529" y="872"/>
      <point x="478" y="793" type="curve" smooth="yes"/>
      <point x="426" y="712"/>
      <point x="396" y="601"/>
      <point x="383" y="453" type="curve"/>
    </contour>
    <contour>
      <point x="562" y="207" type="curve" smooth="yes"/>
      <point x="642" y="207"/>
      <point x="707" y="247"/>
      <point x="758" y="328" type="curve" smooth="yes"/>
      <point x="810" y="412"/>
      <point x="839" y="523"/>
      <point x="850" y="670" type="curve"/>
      <point x="434" y="266" type="line"/>
      <point x="453" y="243"/>
      <point x="467" y="233"/>
      <point x="490" y="222" type="curve" smooth="yes"/>
      <point x="511" y="212"/>
      <point x="535" y="207"/>
    </contour>
  </outline>
</glyph>
<glyph name="uacute" format="1">
  <advance width="1233"/>
  <unicode hex="00FA"/>
  <outline>
    <contour>
      <point x="897" y="1648" type="line" name="av01"/>
      <point x="1218" y="1648" type="line"/>
      <point x="776" y="1272" type="line"/>
      <point x="579" y="1272" type="line" name="iv01"/>
    </contour>
    <contour>
      <point x="370" y="-29" type="curve" smooth="yes" name="dv01"/>
      <point x="289" y="-29"/>
      <point x="222" y="-5" name="dh01"/>
      <point x="175" y="42" type="curve" smooth="yes" name="sh01"/>
      <point x="129" y="89"/>
      <point x="106" y="156" name="at01"/>
      <point x="106" y="244" type="curve" smooth="yes"/>
      <point x="106" y="263"/>
      <point x="107" y="284"/>
      <point x="110" y="308" type="curve" name="dh02"/>
      <point x="113" y="324"/>
      <point x="116" y="360" name="dv02"/>
      <point x="123" y="391" type="curve"/>
      <point x="266" y="1120" type="line" name="hr02"/>
      <point x="557" y="1120" type="line" name="at02"/>
      <point x="426" y="436" type="line" smooth="yes"/>
      <point x="423" y="421" name="ab01"/>
      <point x="422" y="404"/>
      <point x="419" y="383" type="curve" smooth="yes" name="iv02"/>
      <point x="416" y="362"/>
      <point x="416" y="351"/>
      <point x="416" y="336" type="curve" smooth="yes"/>
      <point x="416" y="289"/>
      <point x="426" y="264"/>
      <point x="445" y="243" type="curve" smooth="yes"/>
      <point x="462" y="224"/>
      <point x="486" y="211"/>
      <point x="529" y="211" type="curve" smooth="yes"/>
      <point x="588" y="211"/>
      <point x="632" y="235"/>
      <point x="668" y="282" type="curve" smooth="yes"/>
      <point x="707" y="331"/>
      <point x="735" y="400"/>
      <point x="752" y="489" type="curve" smooth="yes"/>
      <point x="874" y="1120" type="line"/>
      <point x="1165" y="1120" type="line"/>
      <point x="948" y="0" type="line"/>
      <point x="684" y="0" type="line"/>
      <point x="688" y="166" type="line"/>
      <point x="656" y="98"/>
      <point x="603" y="51"/>
      <point x="560" y="24" type="curve" smooth="yes"/>
      <point x="497" y="-15"/>
      <point x="433" y="-29"/>
    </contour>
  </outline>
</glyph>
<glyph name="ucircumflex" format="1">
  <advance width="1233"/>
  <unicode hex="00FB"/>
  <outline>
    <contour>
      <point x="678" y="1648" type="line" name="av01"/>
      <point x="921" y="1648" type="line"/>
      <point x="1104" y="1272" type="line" name="iv01"/>
      <point x="928" y="1272" type="line" name="hr01"/>
      <point x="776" y="1497" type="line"/>
      <point x="536" y="1272" type="line"/>
      <point x="346" y="1272" type="line" name="ih01"/>
    </contour>
    <contour>
      <point x="370" y="-29" type="curve" smooth="yes" name="dv01"/>
      <point x="289" y="-29"/>
      <point x="222" y="-5" name="dh01"/>
      <point x="175" y="42" type="curve" smooth="yes" name="sh01"/>
      <point x="129" y="89"/>
      <point x="106" y="156" name="at01"/>
      <point x="106" y="244" type="curve" smooth="yes" name="hr02"/>
      <point x="106" y="263"/>
      <point x="107" y="284"/>
      <point x="110" y="308" type="curve" name="dh02"/>
      <point x="113" y="324"/>
      <point x="116" y="360" name="dv02"/>
      <point x="123" y="391" type="curve"/>
      <point x="266" y="1120" type="line"/>
      <point x="557" y="1120" type="line" name="at02"/>
      <point x="426" y="436" type="line" smooth="yes"/>
      <point x="423" y="421" name="ab01"/>
      <point x="422" y="404"/>
      <point x="419" y="383" type="curve" smooth="yes" name="iv02"/>
      <point x="416" y="362"/>
      <point x="416" y="351"/>
      <point x="416" y="336" type="curve" smooth="yes"/>
      <point x="416" y="289"/>
      <point x="426" y="264"/>
      <point x="445" y="243" type="curve" smooth="yes"/>
      <point x="462" y="224"/>
      <point x="486" y="211"/>
      <point x="529" y="211" type="curve" smooth="yes"/>
      <point x="588" y="211"/>
      <point x="632" y="235"/>
      <point x="668" y="282" type="curve" smooth="yes"/>
      <point x="707" y="331"/>
      <point x="735" y="400"/>
      <point x="752" y="489" type="curve" smooth="yes"/>
      <point x="874" y="1120" type="line"/>
      <point x="1165" y="1120" type="line"/>
      <point x="948" y="0" type="line"/>
      <point x="684" y="0" type="line"/>
      <point x="688" y="166" type="line"/>
      <point x="656" y="98"/>
      <point x="603" y="51"/>
      <point x="560" y="24" type="curve" smooth="yes"/>
      <point x="497" y="-15"/>
      <point x="433" y="-29"/>
    </contour>
  </outline>
</glyph>
<glyph name="udieresis" format="1">
  <advance width="1233"/>
  <unicode hex="00FC"/>
  <outline>
    <contour>
      <point x="459" y="1347" type="line" smooth="yes" name="sv01"/>
      <point x="439" y="1347"/>
      <point x="428" y="1360"/>
      <point x="432" y="1380" type="curve" smooth="yes" name="at03"/>
      <point x="468" y="1566" type="line" smooth="yes"/>
      <point x="471" y="1584"/>
      <point x="481" y="1593"/>
      <point x="500" y="1593" type="curve" smooth="yes" name="hr01"/>
      <point x="677" y="1593" type="line" smooth="yes"/>
      <point x="695" y="1593" name="sv02"/>
      <point x="704" y="1585"/>
      <point x="704" y="1569" type="curve" smooth="yes"/>
      <point x="704" y="1565" name="at04"/>
      <point x="704" y="1562"/>
      <point x="703" y="1560" type="curve" smooth="yes"/>
      <point x="666" y="1374" type="line" smooth="yes"/>
      <point x="663" y="1356"/>
      <point x="652" y="1347" name="sv03"/>
      <point x="634" y="1347" type="curve" smooth="yes" name="dv01"/>
    </contour>
    <contour>
      <point x="854" y="1347" type="line" smooth="yes" name="hr02"/>
      <point x="834" y="1347" name="dh01"/>
      <point x="823" y="1360" name="sh01"/>
      <point x="827" y="1380" type="curve" smooth="yes"/>
      <point x="863" y="1566" type="line" smooth="yes" name="at01"/>
      <point x="866" y="1584"/>
      <point x="876" y="1593"/>
      <point x="895" y="1593" type="curve" smooth="yes"/>
      <point x="1073" y="1593" type="line" smooth="yes" name="dh02"/>
      <point x="1091" y="1593"/>
      <point x="1100" y="1585" name="dv02"/>
      <point x="1100" y="1569" type="curve" smooth="yes"/>
      <point x="1100" y="1565"/>
      <point x="1100" y="1562" name="at02"/>
      <point x="1099" y="1560" type="curve" smooth="yes"/>
      <point x="1062" y="1374" type="line" smooth="yes" name="ab01"/>
      <point x="1059" y="1356"/>
      <point x="1048" y="1347" name="iv01"/>
      <point x="1030" y="1347" type="curve" smooth="yes"/>
    </contour>
    <contour>
      <point x="370" y="-29" type="curve" smooth="yes"/>
      <point x="289" y="-29"/>
      <point x="222" y="-5"/>
      <point x="175" y="42" type="curve" smooth="yes"/>
      <point x="129" y="89"/>
      <point x="106" y="156"/>
      <point x="106" y="244" type="curve" smooth="yes"/>
      <point x="106" y="263"/>
      <point x="107" y="284"/>
      <point x="110" y="308" type="curve"/>
      <point x="113" y="324"/>
      <point x="116" y="360"/>
      <point x="123" y="391" type="curve"/>
      <point x="266" y="1120" type="line"/>
      <point x="557" y="1120" type="line"/>
      <point x="426" y="436" type="line" smooth="yes"/>
      <point x="423" y="421"/>
      <point x="422" y="404"/>
      <point x="419" y="383" type="curve" smooth="yes"/>
      <point x="416" y="362"/>
      <point x="416" y="351"/>
      <point x="416" y="336" type="curve" smooth="yes"/>
      <point x="416" y="289"/>
      <point x="426" y="264"/>
      <point x="445" y="243" type="curve" smooth="yes"/>
      <point x="462" y="224"/>
      <point x="486" y="211"/>
      <point x="529" y="211" type="curve" smooth="yes"/>
      <point x="588" y="211"/>
      <point x="632" y="235"/>
      <point x="668" y="282" type="curve" smooth="yes"/>
      <point x="707" y="331"/>
      <point x="735" y="400"/>
      <point x="752" y="489" type="curve" smooth="yes"/>
      <point x="874" y="1120" type="line"/>
      <point x="1165" y="1120" type="line"/>
      <point x="948" y="0" type="line"/>
      <point x="684" y="0" type="line"/>
      <point x="688" y="166" type="line"/>
      <point x="656" y="98"/>
      <point x="603" y="51"/>
      <point x="560" y="24" type="curve" smooth="yes"/>
      <point x="497" y="-15"/>
      <point x="433" y="-29"/>
    </contour>
  </outline>
</glyph>
<glyph name="thorn" format="1">
  <advance width="1233"/>
  <unicode hex="00FE"/>
  <outline>
    <contour>
      <point x="348" y="1556" type="line" name="at01"/>
      <point x="641" y="1556" type="line"/>
      <point x="524" y="952" type="line" name="ih01"/>
      <point x="571" y="1017"/>
      <point x="622" y="1066" name="at02"/>
      <point x="677" y="1099" type="curve" smooth="yes"/>
      <point x="729" y="1130" name="sh01"/>
      <point x="789" y="1147"/>
      <point x="854" y="1147" type="curve" smooth="yes"/>
      <point x="951" y="1147"/>
      <point x="1027" y="1111" name="dv01"/>
      <point x="1084" y="1038" type="curve" smooth="yes"/>
      <point x="1141" y="965" name="iv01"/>
      <point x="1169" y="867" name="ab01"/>
      <point x="1169" y="734" type="curve" smooth="yes"/>
      <point x="1169" y="654" name="dv02"/>
      <point x="1159" y="568"/>
      <point x="1138" y="480" type="curve" smooth="yes" name="dh02"/>
      <point x="1117" y="392"/>
      <point x="1086" y="311" name="sv01"/>
      <point x="1051" y="244" type="curve" smooth="yes"/>
      <point x="1005" y="158" name="dh01"/>
      <point x="947" y="91"/>
      <point x="877" y="43" type="curve" smooth="yes"/>
      <point x="807" y="-5"/>
      <point x="733" y="-29"/>
      <point x="654" y="-29" type="curve" smooth="yes"/>
      <point x="581" y="-29"/>
      <point x="520" y="-8"/>
      <point x="471" y="33" type="curve" smooth="yes"/>
      <point x="422" y="74"/>
      <point x="392" y="132"/>
      <point x="379" y="207" type="curve"/>
      <point x="256" y="-426" type="line"/>
      <point x="-37" y="-426" type="line"/>
    </contour>
    <contour>
      <point x="601" y="209" type="curve" smooth="yes"/>
      <point x="681" y="209"/>
      <point x="747" y="266"/>
      <point x="794" y="350" type="curve" smooth="yes"/>
      <point x="845" y="442"/>
      <point x="874" y="564"/>
      <point x="874" y="683" type="curve" smooth="yes" name="hr01"/>
      <point x="874" y="763"/>
      <point x="861" y="814"/>
      <point x="833" y="851" type="curve" smooth="yes"/>
      <point x="805" y="888"/>
      <point x="767" y="907"/>
      <point x="718" y="907" type="curve" smooth="yes"/>
      <point x="643" y="907"/>
      <point x="574" y="861"/>
      <point x="519" y="769" type="curve" smooth="yes"/>
      <point x="466" y="678"/>
      <point x="436" y="560"/>
      <point x="436" y="444" type="curve" smooth="yes"/>
      <point x="436" y="371"/>
      <point x="448" y="312"/>
      <point x="480" y="269" type="curve" smooth="yes"/>
      <point x="508" y="232"/>
      <point x="550" y="209"/>
    </contour>
  </outline>
</glyph>
<glyph name="Amacron" format="1">
  <advance width="1233"/>
  <unicode hex="0100"/>
  <outline>
    <contour>
      <point x="519" y="1850" type="line" name="hr00"/>
      <point x="1150" y="1850" type="line" name="dv02"/>
      <point x="1114" y="1662" type="line" name="dv01"/>
      <point x="483" y="1662" type="line"/>
    </contour>
    <contour>
      <point x="582" y="1493" type="line" name="at01"/>
      <point x="942" y="1493" type="line"/>
      <point x="1055" y="0" type="line" name="ab01"/>
      <point x="762" y="0" type="line"/>
      <point x="748" y="369" type="line" name="dv03"/>
      <point x="348" y="369" type="line"/>
      <point x="186" y="0" type="line" name="ab02"/>
      <point x="-113" y="0" type="line"/>
    </contour>
    <contour>
      <point x="737" y="612" type="line" name="dv04"/>
      <point x="717" y="1219" type="line"/>
      <point x="453" y="612" type="line"/>
    </contour>
  </outline>
</glyph>
<glyph name="amacron" format="1">
  <advance width="1233"/>
  <unicode hex="0101"/>
  <outline>
    <contour>
      <point x="459" y="1535" type="line"/>
      <point x="1090" y="1535" type="line" name="dv02"/>
      <point x="1053" y="1347" type="line" name="dv01"/>
      <point x="422" y="1347" type="line"/>
    </contour>
    <contour>
      <point x="381" y="-29" type="curve" smooth="yes" name="sv02"/>
      <point x="174" y="-29" name="sh01"/>
      <point x="47" y="90"/>
      <point x="47" y="302" type="curve" smooth="yes" name="sh02"/>
      <point x="47" y="578"/>
      <point x="260" y="737" name="ah02"/>
      <point x="651" y="737" type="curve" smooth="yes" name="sv03"/>
      <point x="844" y="737" type="line" name="ih01"/>
      <point x="852" y="786" type="line" smooth="yes"/>
      <point x="853" y="794" name="at01"/>
      <point x="854" y="800" name="sh04"/>
      <point x="854" y="811" type="curve" smooth="yes"/>
      <point x="854" y="891" name="ab01"/>
      <point x="785" y="932"/>
      <point x="661" y="932" type="curve" smooth="yes" name="ih02"/>
      <point x="544" y="932"/>
      <point x="411" y="896" name="sv01"/>
      <point x="248" y="819" type="curve" name="dv03"/>
      <point x="295" y="1069" type="line"/>
      <point x="463" y="1125" name="sh03"/>
      <point x="583" y="1147"/>
      <point x="709" y="1147" type="curve" smooth="yes" name="ah01"/>
      <point x="988" y="1147" name="sh05"/>
      <point x="1141" y="1045"/>
      <point x="1141" y="845" type="curve" smooth="yes"/>
      <point x="1141" y="792"/>
      <point x="1130" y="722"/>
      <point x="1114" y="639" type="curve" smooth="yes"/>
      <point x="991" y="0" type="line"/>
      <point x="739" y="0" type="line"/>
      <point x="725" y="125" type="line"/>
      <point x="636" y="21"/>
      <point x="517" y="-29"/>
    </contour>
    <contour>
      <point x="504" y="172" type="curve" smooth="yes" name="hr02"/>
      <point x="649" y="172"/>
      <point x="766" y="303"/>
      <point x="803" y="530" type="curve"/>
      <point x="690" y="530" type="line" smooth="yes"/>
      <point x="466" y="530"/>
      <point x="352" y="462"/>
      <point x="352" y="325" type="curve" smooth="yes"/>
      <point x="352" y="229"/>
      <point x="408" y="172"/>
    </contour>
  </outline>
</glyph>
<glyph name="Abreve" format="1">
  <advance width="1233"/>
  <unicode hex="0102"/>
  <outline>
    <contour>
      <point x="796" y="1588" type="curve" smooth="yes" name="dv01"/>
      <point x="607" y="1588"/>
      <point x="508" y="1680"/>
      <point x="508" y="1848" type="curve" smooth="yes" name="sv01"/>
      <point x="508" y="1852" type="line" name="dv02"/>
      <point x="651" y="1852" type="line" name="sv02"/>
      <point x="662" y="1780"/>
      <point x="711" y="1737"/>
      <point x="816" y="1737" type="curve" smooth="yes" name="at01"/>
      <point x="920" y="1737"/>
      <point x="989" y="1777" name="ab01"/>
      <point x="1022" y="1852" type="curve"/>
      <point x="1176" y="1852" type="line" name="dv03"/>
      <point x="1123" y="1676"/>
      <point x="977" y="1588" name="ab02"/>
    </contour>
    <contour>
      <point x="582" y="1493" type="line" name="dv04"/>
      <point x="942" y="1493" type="line"/>
      <point x="1055" y="0" type="line"/>
      <point x="762" y="0" type="line"/>
      <point x="748" y="369" type="line"/>
      <point x="348" y="369" type="line"/>
      <point x="186" y="0" type="line" name="hr01"/>
      <point x="-113" y="0" type="line" name="hr02"/>
    </contour>
    <contour>
      <point x="737" y="612" type="line"/>
      <point x="717" y="1219" type="line"/>
      <point x="453" y="612" type="line"/>
    </contour>
  </outline>
</glyph>
